<?xml version="1.0" encoding="UTF-8" standalone="no"?><!DOCTYPE svg PUBLIC "-//W3C//DTD SVG 1.1//EN" "http://www.w3.org/Graphics/SVG/1.1/DTD/svg11.dtd"><svg width="100%" height="100%" viewBox="0 0 1080 636" version="1.1" xmlns="http://www.w3.org/2000/svg" xmlns:xlink="http://www.w3.org/1999/xlink" xml:space="preserve" xmlns:serif="http://www.serif.com/" style="fill-rule:evenodd;clip-rule:evenodd;stroke-linejoin:round;stroke-miterlimit:2;"><rect id="Logo-Full-Color" serif:id="Logo Full Color" x="0" y="0" width="1080" height="635.233" style="fill:none;"/><g><path d="M362.666,318.642c8.176,7.746 13.279,18.704 13.279,30.844c-0,23.451 -19.039,42.49 -42.49,42.49c-23.45,-0 -42.489,-19.039 -42.489,-42.49c-0,-8.526 2.517,-16.469 6.847,-23.126c0.555,-0.853 1.14,-1.685 1.754,-2.495c1.414,-1.867 2.98,-3.615 4.678,-5.223c1.613,-1.529 3.345,-2.932 5.182,-4.194c2.978,-2.047 6.229,-3.725 9.687,-4.966c4.481,-1.609 9.31,-2.485 14.341,-2.485c8.915,-0 17.192,2.751 24.029,7.451c0.603,0.414 1.195,0.845 1.776,1.289c1.186,0.909 2.323,1.879 3.406,2.905Zm-36.862,7.468c-9.831,3.22 -16.94,12.475 -16.94,23.376c-0,13.573 11.019,24.592 24.591,24.592c13.573,-0 24.592,-11.019 24.592,-24.592c-0,-12.201 -8.905,-22.338 -20.564,-24.262c-0.942,-0.156 -1.903,-0.258 -2.878,-0.303c-0.381,-0.017 -0.764,-0.026 -1.15,-0.026c-1.371,-0 -2.717,0.112 -4.027,0.329c-1.242,0.205 -2.452,0.503 -3.624,0.886Zm-5.995,20.546c0.324,-1.565 0.909,-3.035 1.709,-4.361c0.029,0.031 0.058,0.061 0.088,0.091c1.229,1.229 3.224,1.229 4.453,0c1.229,-1.229 1.229,-3.224 0,-4.453c-0.055,-0.055 -0.111,-0.107 -0.169,-0.157c1.343,-0.872 2.844,-1.519 4.451,-1.889c-0.008,0.091 -0.012,0.184 -0.012,0.277c0,1.738 1.411,3.149 3.149,3.149c1.738,-0 3.149,-1.411 3.149,-3.149c0,-0.093 -0.004,-0.186 -0.012,-0.277c1.607,0.37 3.109,1.017 4.451,1.889c-0.058,0.05 -0.114,0.102 -0.169,0.157c-1.228,1.229 -1.228,3.224 0,4.453c1.229,1.229 3.225,1.229 4.454,0c0.03,-0.03 0.059,-0.06 0.087,-0.091c0.8,1.326 1.386,2.796 1.709,4.361c-0.009,0 -0.018,0 -0.027,0c-1.738,0 -3.149,1.411 -3.149,3.149c-0,1.699 1.347,3.085 3.031,3.147c-0.38,1.484 -0.997,2.873 -1.81,4.124c-1.236,-1.078 -3.117,-1.029 -4.295,0.148c-1.153,1.154 -1.224,2.982 -0.213,4.218c-1.245,0.753 -2.617,1.317 -4.076,1.652c-0.176,-1.572 -1.511,-2.796 -3.13,-2.796c-1.618,-0 -2.953,1.224 -3.129,2.796c-1.459,-0.335 -2.831,-0.899 -4.077,-1.652c1.011,-1.236 0.94,-3.064 -0.213,-4.218c-1.177,-1.177 -3.058,-1.226 -4.295,-0.148c-0.812,-1.251 -1.43,-2.64 -1.809,-4.124c1.683,-0.062 3.031,-1.448 3.031,-3.147c0,-1.738 -1.411,-3.149 -3.149,-3.149c-0.009,0 -0.018,0 -0.028,0Z"/><path d="M629.488,346.656c0.323,-1.565 0.909,-3.035 1.709,-4.361c0.028,0.031 0.057,0.061 0.087,0.091c1.229,1.229 3.225,1.229 4.454,0c1.229,-1.229 1.229,-3.224 -0,-4.453c-0.055,-0.055 -0.111,-0.107 -0.169,-0.157c1.342,-0.872 2.844,-1.519 4.451,-1.889c-0.008,0.091 -0.012,0.184 -0.012,0.277c-0,1.738 1.411,3.149 3.149,3.149c1.738,-0 3.149,-1.411 3.149,-3.149c-0,-0.093 -0.004,-0.186 -0.012,-0.277c1.607,0.37 3.108,1.017 4.451,1.889c-0.058,0.05 -0.114,0.102 -0.169,0.157c-1.229,1.229 -1.229,3.224 -0,4.453c1.229,1.229 3.224,1.229 4.453,0c0.03,-0.03 0.059,-0.06 0.088,-0.091c0.8,1.326 1.385,2.796 1.709,4.361c-0.01,0 -0.019,0 -0.028,0c-1.738,0 -3.149,1.411 -3.149,3.149c0,1.699 1.348,3.085 3.031,3.147c-0.379,1.484 -0.997,2.873 -1.809,4.124c-1.237,-1.078 -3.118,-1.029 -4.295,0.148c-1.153,1.154 -1.224,2.982 -0.213,4.218c-1.246,0.753 -2.618,1.317 -4.077,1.652c-0.176,-1.572 -1.511,-2.796 -3.129,-2.796c-1.619,-0 -2.954,1.224 -3.13,2.796c-1.459,-0.335 -2.831,-0.899 -4.076,-1.652c1.011,-1.236 0.94,-3.064 -0.213,-4.218c-1.178,-1.177 -3.059,-1.226 -4.295,-0.148c-0.813,-1.251 -1.43,-2.64 -1.81,-4.124c1.684,-0.062 3.031,-1.448 3.031,-3.147c0,-1.738 -1.41,-3.149 -3.148,-3.149c-0.01,0 -0.019,0 -0.028,0Zm55.538,5.793c-1.524,22.071 -19.933,39.527 -42.388,39.527c-23.45,-0 -42.489,-19.039 -42.489,-42.49c-0,-5.154 0.919,-10.095 2.604,-14.668c4.708,4.324 9.916,8.112 15.527,11.267c-0.154,1.112 -0.233,2.247 -0.233,3.401c-0,13.573 11.019,24.592 24.591,24.592c11.192,-0 20.648,-7.493 23.621,-17.732c6.499,-0.577 12.784,-1.905 18.767,-3.897Z"/><path d="M339.214,253.248c2.647,-0.354 5.329,-0.535 8.03,-0.535l4.247,0c2.629,0 5.151,-1.044 7.01,-2.903l20.581,-20.581l-9.306,-3.235c-1.173,-0.407 -1.881,-1.602 -1.674,-2.827c0.207,-1.225 1.267,-2.121 2.509,-2.121l86.878,-0c9.731,-0 17.619,7.888 17.619,17.618l-0,96.259c-0,9.73 -7.888,17.618 -17.618,17.618l-53.908,-0c0.322,-8.816 -0.878,-24.067 -10.549,-39.297c-14.322,-22.555 -36.496,-30.546 -52.755,-31.27c-27.755,-1.235 -44.934,12.742 -52.648,20.689c2.156,-12.122 7.975,-23.391 16.8,-32.216c1.709,-1.709 3.51,-3.305 5.39,-4.784c-5.289,-8.634 -19.654,-29.798 -52.715,-36.784c-4.911,-1.038 -12.465,-2.016 -17.542,-1.674l1.335,-24.941c10.009,1.357 28.991,6.819 45.98,19.747c18.701,14.231 26.402,30.876 29.615,39.092c4.188,-2.469 8.656,-4.423 13.306,-5.822c-3.996,-9.029 -13.088,-23.21 -33.458,-30.718c-4.938,-1.82 -7.572,-2.138 -8.25,-2.22l7.327,-23.877c12.41,5.356 24.273,15.347 32.007,26.258c7.629,10.763 10.583,21.158 11.789,28.524Zm110.545,29.264l-17.407,-0c-0.158,-0 -0.31,0.063 -0.421,0.174c-0.112,0.112 -0.174,0.263 -0.174,0.421l-0,3.713c-0,0.958 0.38,1.877 1.058,2.555c0.677,0.677 1.596,1.058 2.555,1.058l11.37,-0c0.959,-0 1.878,-0.381 2.555,-1.058c0.678,-0.678 1.058,-1.597 1.058,-2.555l0,-3.713c0,-0.158 -0.062,-0.309 -0.174,-0.421c-0.111,-0.111 -0.263,-0.174 -0.42,-0.174Zm3.566,-49.062l-61.659,-0c-1.779,-0 -3.476,0.75 -4.674,2.065l-16.321,17.921c-1.686,1.85 -2.121,4.522 -1.109,6.811c1.012,2.29 3.279,3.767 5.782,3.767l77.981,0c4.03,0 7.296,-3.266 7.296,-7.295l-0,-15.974c-0,-4.029 -3.266,-7.295 -7.296,-7.295Zm-50.476,119.091l-22.376,-0c-0.566,-0.406 -1.142,-0.805 -1.729,-1.198c0.024,-0.616 0.037,-1.235 0.037,-1.857c0,-12.95 -5.443,-24.64 -14.164,-32.903c-1.155,-1.094 -2.368,-2.128 -3.632,-3.097c-0.62,-0.475 -1.251,-0.933 -1.895,-1.376c-7.293,-5.013 -16.124,-7.949 -25.635,-7.949c-5.368,-0 -10.519,0.935 -15.299,2.651c-3.69,1.325 -7.159,3.114 -10.336,5.298c-0.18,0.125 -0.36,0.25 -0.539,0.377c-3.435,-0.316 -6.944,-0.48 -10.511,-0.48c-3.415,-0 -6.776,0.15 -10.069,0.44c0.041,-2.996 0.303,-5.967 0.777,-8.891c1.042,-0.9 2.215,-1.867 3.404,-2.754c29.315,-21.876 65.773,-15.68 87.835,3.206c19.457,16.655 23.463,37.529 24.132,48.533Zm167.686,-21.522l-0,21.522l-96.648,-0l-0,-1.977c-0,-6.428 5.107,-11.693 11.533,-11.889l2.594,-0.079c1.492,-0.045 2.922,-0.601 4.052,-1.575l6.961,-6.002l71.508,0Zm-281.573,10.138c-0.2,-0.099 -0.393,-0.216 -0.576,-0.349c-1.055,-0.766 -1.679,-1.991 -1.679,-3.295c-0.011,-5.686 -0.011,-14.245 -0.011,-19.082c-0,-2.093 1.633,-3.823 3.723,-3.944c2.093,-0.116 4.211,-0.176 6.351,-0.176c2.662,-0 5.292,0.093 7.881,0.274c-0.794,0.656 -1.565,1.338 -2.312,2.046c-1.808,1.712 -3.474,3.573 -4.981,5.561c-0.653,0.863 -1.276,1.749 -1.867,2.658c-3.168,4.87 -5.426,10.387 -6.529,16.307Zm-3.047,-22.78l0,19.245c-1.193,0 -2.338,-0.474 -3.182,-1.317c-0.844,-0.844 -1.318,-1.989 -1.318,-3.182l0,-10.247c0,-1.193 0.474,-2.337 1.318,-3.181c0.844,-0.844 1.989,-1.318 3.182,-1.318Zm-0.931,-6.213c-3.954,-0.798 -6.935,-4.294 -6.935,-8.482c-0,-4.775 3.877,-8.653 8.652,-8.653c0.333,0 0.662,0.019 0.985,0.056c-1.678,5.495 -2.6,11.24 -2.702,17.079Z" style="fill:#f89639;"/><path d="M232.461,154.128c19.844,0.543 35.451,19.345 34.831,41.96c-0.62,22.614 -17.233,40.533 -37.076,39.989c-19.844,-0.544 -35.451,-19.346 -34.831,-41.96c0.62,-22.615 17.233,-40.533 37.076,-39.989Z" style="fill:#f78518;"/><path d="M229.097,155.009c18.002,0.494 32.119,19.036 31.507,41.382c-0.613,22.346 -15.725,40.088 -33.726,39.594c-18.001,-0.493 -32.119,-19.036 -31.506,-41.381c0.612,-22.346 15.724,-40.088 33.725,-39.595Z" style="fill:#f89639;"/><path d="M220.748,163.072c14.125,0.387 25.199,15.071 24.714,32.772c-0.485,17.7 -12.347,31.756 -26.471,31.369c-14.125,-0.387 -25.199,-15.072 -24.714,-32.772c0.485,-17.7 12.347,-31.756 26.471,-31.369Z" style="fill:#fff;"/><clipPath id="_clip1"><path d="M220.748,163.072c14.125,0.387 25.199,15.071 24.714,32.772c-0.485,17.7 -12.347,31.756 -26.471,31.369c-14.125,-0.387 -25.199,-15.072 -24.714,-32.772c0.485,-17.7 12.347,-31.756 26.471,-31.369Z"/></clipPath><g clip-path="url(#_clip1)"><path d="M213.963,194.699c0.601,1.995 0.903,4.174 0.841,6.447c-0.254,9.257 -6.457,16.607 -13.844,16.405c-7.387,-0.202 -13.178,-7.882 -12.924,-17.139c0.254,-9.256 6.457,-16.607 13.844,-16.405c0.22,0.006 0.439,0.019 0.657,0.038c-0.355,1.035 -0.566,2.167 -0.598,3.355c-0.14,5.099 3.05,9.329 7.119,9.441c1.853,0.051 3.57,-0.761 4.905,-2.142Z"/></g><path d="M268.986,154.128c19.843,0.543 35.45,19.345 34.83,41.96c-0.62,22.614 -17.233,40.533 -37.076,39.989c-19.844,-0.544 -35.451,-19.346 -34.831,-41.96c0.62,-22.615 17.233,-40.533 37.077,-39.989Z" style="fill:#f78518;"/><path d="M265.621,155.009c18.002,0.494 32.119,19.036 31.507,41.382c-0.613,22.346 -15.725,40.088 -33.726,39.594c-18.001,-0.493 -32.119,-19.036 -31.506,-41.381c0.612,-22.346 15.724,-40.088 33.725,-39.595Z" style="fill:#f89639;"/><path d="M257.273,163.072c14.124,0.387 25.198,15.071 24.713,32.772c-0.485,17.7 -12.347,31.756 -26.471,31.369c-14.125,-0.387 -25.199,-15.072 -24.714,-32.772c0.485,-17.7 12.347,-31.756 26.472,-31.369Z" style="fill:#fff;"/><clipPath id="_clip2"><path d="M257.273,163.072c14.124,0.387 25.198,15.071 24.713,32.772c-0.485,17.7 -12.347,31.756 -26.471,31.369c-14.125,-0.387 -25.199,-15.072 -24.714,-32.772c0.485,-17.7 12.347,-31.756 26.472,-31.369Z"/></clipPath><g clip-path="url(#_clip2)"><path d="M250.487,194.699c0.601,1.995 0.903,4.174 0.841,6.447c-0.254,9.257 -6.457,16.607 -13.844,16.405c-7.386,-0.202 -13.178,-7.882 -12.924,-17.139c0.254,-9.256 6.457,-16.607 13.844,-16.405c0.22,0.006 0.439,0.019 0.657,0.038c-0.355,1.035 -0.566,2.167 -0.598,3.355c-0.14,5.099 3.05,9.329 7.119,9.441c1.853,0.051 3.57,-0.761 4.905,-2.142Z"/></g><path d="M494.867,303.045c-2.604,-1.042 -4.813,-2.131 -6.57,-3.172c-6.422,-36.538 -11.997,-124.589 76.976,-146.757c6.742,-1.676 12.885,-5.223 17.738,-10.243c0.633,-0.498 1.156,-1.039 1.619,-1.518c1.224,-1.266 2.902,-1.98 4.653,-1.98l23.24,0c2.655,0 5.201,1.066 7.078,2.964c1.877,1.898 2.932,4.472 2.932,7.156l-0,0.05c0.001,0.357 0.274,0.652 0.626,0.676c6.387,0.599 60.078,7.217 90.177,62.464c-18.439,-30.539 -51.709,-50.942 -89.656,-50.942c-57.931,-0 -104.964,47.554 -104.964,106.128c0,12.846 2.263,25.163 6.406,36.564c0.624,1.66 1.645,3.088 2.932,4.193c-0.636,0.016 -1.279,0.026 -1.928,0.028c-4.861,0.017 -9.442,-0.351 -13.667,-0.978c-0.355,-1.131 -0.377,-1.199 -0.442,-1.412c-31.526,-103.957 40.282,-142.723 48.78,-147.001c-0.035,-0.083 0.282,-0.032 0.246,-0.116c-0.036,-0.085 -15.161,5.501 -30.282,18.97c-45.166,40.23 -40.6,97.71 -35.894,124.926Zm46.192,8.099c4.275,0.012 7.934,0.012 7.934,0.012l0,19.863l-55.11,0c-3.106,0 -5.972,-1.673 -7.499,-4.378c-1.527,-2.705 -1.479,-6.023 0.126,-8.683l1.826,-3.025c2.824,0.678 6.045,1.243 9.712,1.631c15.439,1.633 31.613,-0.83 43.011,-5.42Z" style="fill:#1163b3;"/><path d="M633.244,352.541l-63.633,-0c-28.48,-18.058 -47.4,-49.862 -47.4,-86.051c-0,-56.193 45.622,-101.815 101.815,-101.815c33.117,0 62.563,15.846 81.162,40.364c-13.232,-8.952 -29.184,-14.182 -46.348,-14.182c-45.731,-0 -82.859,37.128 -82.859,82.86c-0,36.8 24.042,68.029 57.263,78.824Z" style="fill:#1268bb;"/><clipPath id="_clip3"><path d="M633.244,352.541l-63.633,-0c-28.48,-18.058 -47.4,-49.862 -47.4,-86.051c-0,-56.193 45.622,-101.815 101.815,-101.815c33.117,0 62.563,15.846 81.162,40.364c-13.232,-8.952 -29.184,-14.182 -46.348,-14.182c-45.731,-0 -82.859,37.128 -82.859,82.86c-0,36.8 24.042,68.029 57.263,78.824Z"/></clipPath><g clip-path="url(#_clip3)"><path d="M653.897,352.541l-63.633,-0c-28.48,-18.058 -47.401,-49.862 -47.401,-86.051c0,-56.193 45.622,-101.815 101.816,-101.815c33.117,0 62.563,20.471 81.162,44.988c-13.232,-8.952 -3.489,1.373 -20.653,1.373c-45.731,-0 -108.555,16.949 -108.555,62.681c0,36.8 24.043,68.029 57.264,78.824Z" style="fill:#1a83e9;"/></g><path d="M658.84,194.893c43.505,-0 78.825,35.319 78.825,78.824c-0,43.504 -35.32,78.824 -78.825,78.824c-43.504,-0 -78.824,-35.32 -78.824,-78.824c0,-43.505 35.32,-78.824 78.824,-78.824Zm24.13,64.013c0.825,0.989 5.533,6.195 6.67,14.772c0.682,5.139 -0.073,10.426 -2.188,15.16c-7.059,15.799 -25.346,19.842 -37.293,11.002c-17.473,-12.927 -6.612,-37.595 10.229,-35.543c9.494,1.158 15.715,10.365 11.468,18.421c-5.224,9.913 -17.071,3.577 -13.887,-1.646c0.424,-0.738 0.326,-1.665 -0.243,-2.298l-3.811,-4.234c-5.784,5.702 -4.198,13.604 2.044,17.665c6.257,4.072 15.474,3.039 20.542,-5.208c6.312,-10.271 0.778,-23.508 -11.633,-27.09c-17.692,-5.106 -32.797,13.742 -26.088,31.09c3.207,8.294 10.288,12.719 14.731,14.447c17.729,6.892 35.48,-5.56 37.702,-23.465c1.806,-14.544 -7.536,-23.621 -7.578,-23.669l-0.665,0.596Z" style="fill:#1163b3;"/><path d="M720.466,273.717c-0.747,-26.426 -16.835,-44.116 -32.69,-52.187c-25.74,-13.103 -58.015,-6.262 -75.884,17.825c-11.238,15.149 -11.646,30.63 -11.743,34.362c-0.09,-5.529 -0.019,-22.818 13.765,-39.666c12.659,-15.471 34.747,-25.699 58.787,-20.618c11.638,2.46 25.372,9.256 35.549,22.663c12.909,17.006 12.262,34.646 12.216,37.621Z" style="fill:#fff;"/><path d="M678.432,368.19l0,-11.979c0,-1.224 0.504,-2.395 1.393,-3.236c0.889,-0.841 2.085,-1.28 3.307,-1.213c25.584,1.408 146.932,8.085 146.932,8.085l-151.632,8.343Z"/><path d="M697.873,311.814l-0,-7.949l132.191,3.974l-132.191,3.975Z" style="fill:#1163b3;"/><path d="M721.243,244.052l-0,-7.949l151.632,3.975l-151.632,3.974Z" style="fill:#1163b3;"/><path d="M651.945,184.03l-0,-7.949l151.631,3.975l-151.631,3.974Z" style="fill:#1a83e9;"/><path d="M603.78,151.876l-0,-7.949l151.631,3.974l-151.631,3.975Z" style="fill:#1163b3;"/><path d="M215.175,429.602l-15.343,0l-17.442,65.093l-22.782,0l17.441,-65.093l-16.97,0l4.983,-18.598l58.584,0l-8.471,18.598Zm19.83,36.615c-1.101,4.107 -1.435,7.09 -1.004,8.95c0.453,1.783 1.686,2.674 3.701,2.674c2.092,-0 3.803,-0.891 5.133,-2.674c1.429,-1.86 2.693,-4.843 3.793,-8.95l14.795,-55.213l22.666,0l-14.514,54.167c-2.886,10.771 -7.308,18.598 -13.266,23.48c-5.936,4.804 -13.748,7.207 -23.435,7.207c-9.609,-0 -16.133,-2.403 -19.572,-7.207c-3.342,-4.882 -3.569,-12.709 -0.683,-23.48l14.514,-54.167l22.666,0l-14.794,55.213Zm85.582,-55.213c6.82,0 12.277,0.891 16.371,2.674c4.115,1.705 6.746,4.61 7.893,8.718c1.245,4.029 0.923,9.57 -0.967,16.621c-1.578,5.89 -3.767,10.733 -6.566,14.53c-2.779,3.72 -6.291,6.703 -10.535,8.95l5.553,32.198l-25.223,0l-1.895,-27.199l-3.719,-0l-7.289,27.199l-22.666,0l18.158,-67.766l-2.126,-15.925l33.011,0Zm-14.915,40.916c3.565,-0 6.438,-0.891 8.621,-2.674c2.182,-1.782 3.875,-4.92 5.08,-9.415c0.955,-3.564 1.351,-6.199 1.188,-7.904c-0.143,-1.782 -0.906,-2.983 -2.29,-3.603c-1.306,-0.62 -3.315,-0.93 -6.027,-0.93l-6.572,24.526Zm32.476,42.775l18.158,-67.766l-2.126,-15.925l34.871,0c9.377,0 15.687,1.899 18.932,5.696c3.265,3.719 4.047,8.756 2.344,15.111c-1.101,4.107 -2.872,7.826 -5.315,11.159c-2.442,3.332 -6.135,6.121 -11.076,8.369l-0.063,0.232c4.813,1.705 7.858,4.223 9.135,7.556c1.354,3.332 1.305,7.71 -0.149,13.134c-1.931,7.207 -6.05,12.748 -12.358,16.622c-6.307,3.875 -14.847,5.812 -25.618,5.812l-26.735,0Zm35.872,-49.284l1.046,-0c3.487,-0 6.182,-0.659 8.085,-1.977c2.001,-1.394 3.459,-3.797 4.372,-7.206c0.935,-3.487 0.765,-5.89 -0.51,-7.207c-1.176,-1.395 -3.507,-2.092 -6.994,-2.092l-1.047,-0l-4.952,18.482Zm-9.094,33.941l1.162,-0c3.875,-0 6.89,-0.698 9.046,-2.092c2.254,-1.473 3.869,-4.03 4.845,-7.672c0.997,-3.72 0.752,-6.277 -0.734,-7.672c-1.388,-1.472 -4.019,-2.208 -7.893,-2.208l-1.163,-0l-5.263,19.644Zm67.877,16.506c-7.595,-0 -13.374,-1.279 -17.338,-3.836c-3.944,-2.635 -6.17,-7.052 -6.678,-13.251c-0.411,-6.277 0.848,-14.879 3.776,-25.805c2.927,-10.926 6.268,-19.489 10.021,-25.689c3.852,-6.276 8.445,-10.693 13.78,-13.251c5.355,-2.634 11.83,-3.952 19.424,-3.952c7.594,0 13.363,1.318 17.307,3.952c3.964,2.558 6.151,6.975 6.562,13.251c0.508,6.2 -0.701,14.763 -3.629,25.689c-2.928,10.926 -6.317,19.528 -10.169,25.805c-3.753,6.199 -8.308,10.616 -13.663,13.251c-5.335,2.557 -11.799,3.836 -19.393,3.836Zm18.878,-43.125c1.785,-6.664 2.913,-11.739 3.382,-15.227c0.568,-3.564 0.486,-6.005 -0.246,-7.323c-0.634,-1.394 -1.919,-2.092 -3.856,-2.092c-1.86,0 -3.519,0.698 -4.978,2.092c-1.438,1.318 -2.867,3.759 -4.287,7.323c-1.322,3.488 -2.876,8.563 -4.661,15.227c-1.765,6.587 -2.942,11.702 -3.53,15.344c-0.511,3.642 -0.422,6.199 0.269,7.671c0.711,1.395 1.996,2.093 3.856,2.093c1.937,-0 3.597,-0.698 4.978,-2.093c1.479,-1.472 2.901,-4.029 4.264,-7.671c1.441,-3.642 3.044,-8.757 4.809,-15.344Zm86.704,24.759l-3.688,-24.41l-11.15,41.613l-22.085,0l18.158,-67.766l-2.127,-15.925l27.665,0l6.898,34.988l25.648,-34.988l21.388,0l-22.425,83.691l-22.085,0l11.088,-41.38l-16.707,24.177l-10.578,0Zm76.097,18.366c-7.595,-0 -13.374,-1.279 -17.338,-3.836c-3.944,-2.635 -6.17,-7.052 -6.678,-13.251c-0.411,-6.277 0.848,-14.879 3.775,-25.805c2.928,-10.926 6.269,-19.489 10.022,-25.689c3.852,-6.276 8.445,-10.693 13.78,-13.251c5.355,-2.634 11.83,-3.952 19.424,-3.952c7.594,0 13.363,1.318 17.307,3.952c3.964,2.558 6.151,6.975 6.562,13.251c0.508,6.2 -0.701,14.763 -3.629,25.689c-2.928,10.926 -6.317,19.528 -10.169,25.805c-3.753,6.199 -8.308,10.616 -13.663,13.251c-5.335,2.557 -11.799,3.836 -19.393,3.836Zm18.878,-43.125c1.785,-6.664 2.913,-11.739 3.382,-15.227c0.568,-3.564 0.486,-6.005 -0.246,-7.323c-0.634,-1.394 -1.919,-2.092 -3.857,-2.092c-1.859,0 -3.519,0.698 -4.977,2.092c-1.438,1.318 -2.867,3.759 -4.287,7.323c-1.322,3.488 -2.876,8.563 -4.661,15.227c-1.765,6.587 -2.942,11.702 -3.53,15.344c-0.511,3.642 -0.422,6.199 0.269,7.671c0.711,1.395 1.996,2.093 3.856,2.093c1.937,-0 3.597,-0.698 4.978,-2.093c1.479,-1.472 2.9,-4.029 4.264,-7.671c1.441,-3.642 3.044,-8.757 4.809,-15.344Zm35.591,-41.729l24.177,0l-4.144,34.988l-2.813,23.945l10.368,-23.945l14.606,-34.988l22.899,0l-41.488,83.691l-26.967,0l3.362,-83.691Zm65.674,0l55.677,0l-8.47,18.598l-23.131,0l-3.426,12.786l21.736,0l-8.47,18.598l-18.25,0l-4.049,15.111l27.432,0l-8.47,18.598l-46.611,0l18.158,-67.766l-2.126,-15.925Zm91.246,0c6.819,0 12.276,0.891 16.371,2.674c4.115,1.705 6.746,4.61 7.892,8.718c1.246,4.029 0.923,9.57 -0.966,16.621c-1.578,5.89 -3.767,10.733 -6.567,14.53c-2.779,3.72 -6.29,6.703 -10.535,8.95l5.554,32.198l-25.224,0l-1.894,-27.199l-3.72,-0l-7.288,27.199l-22.666,0l18.158,-67.766l-2.126,-15.925l33.011,0Zm-14.915,40.916c3.564,-0 6.438,-0.891 8.62,-2.674c2.183,-1.782 3.876,-4.92 5.08,-9.415c0.955,-3.564 1.351,-6.199 1.188,-7.904c-0.142,-1.782 -0.905,-2.983 -2.289,-3.603c-1.306,-0.62 -3.315,-0.93 -6.028,-0.93l-6.571,24.526Zm58.475,23.828c2.945,0 5.268,-0.426 6.968,-1.278c1.701,-0.853 2.811,-2.247 3.33,-4.185c0.353,-1.317 0.285,-2.363 -0.205,-3.138c-0.49,-0.775 -1.522,-1.55 -3.097,-2.325l-10.795,-5.695c-4.011,-2.093 -6.79,-4.882 -8.335,-8.37c-1.545,-3.487 -1.425,-8.562 0.361,-15.227c2.284,-8.524 6.195,-14.878 11.733,-19.063c5.637,-4.262 13.618,-6.431 23.945,-6.509c4.263,0 8.085,0.194 11.468,0.581c3.384,0.388 6.059,0.814 8.027,1.279l2.983,0.581l-7.34,18.714l-2.812,-0.348c-1.798,-0.233 -4.07,-0.427 -6.819,-0.582c-2.727,-0.232 -5.408,-0.348 -8.043,-0.348c-2.789,-0 -5.035,0.426 -6.735,1.278c-1.603,0.775 -2.705,2.286 -3.307,4.534c-0.333,1.239 -0.07,2.286 0.786,3.138c0.877,0.775 2.17,1.589 3.879,2.441l8.728,4.301c4.647,2.325 7.704,5.23 9.172,8.718c1.488,3.409 1.381,8.291 -0.321,14.645c-2.305,8.602 -6.328,15.228 -12.068,19.877c-5.74,4.65 -13.774,7.013 -24.101,7.091c-5.115,-0 -9.787,-0.349 -14.017,-1.047c-4.251,-0.62 -7.967,-1.356 -11.148,-2.208l7.339,-18.714l2.665,0.465c1.854,0.31 4.328,0.62 7.422,0.93c3.095,0.309 6.54,0.464 10.337,0.464Z"/><path d="M923.029,422.376l-0,-1.901l59.297,0.95l-59.297,0.951Z"/><path d="M913.747,456.667l0,-1.642l48.535,0.821l-48.535,0.821Z"/><path d="M900.412,491.098l-0,-1.663l35.53,0.831l-35.53,0.832Z"/></g></svg>