<?xml version="1.0" encoding="UTF-8" standalone="no"?><!DOCTYPE svg PUBLIC "-//W3C//DTD SVG 1.1//EN" "http://www.w3.org/Graphics/SVG/1.1/DTD/svg11.dtd"><svg width="100%" height="100%" viewBox="0 0 1080 1080" version="1.1" xmlns="http://www.w3.org/2000/svg" xmlns:xlink="http://www.w3.org/1999/xlink" xml:space="preserve" xmlns:serif="http://www.serif.com/" style="fill-rule:evenodd;clip-rule:evenodd;stroke-linejoin:round;stroke-miterlimit:2;"><rect id="Logo-Full-color" serif:id="Logo Full color" x="0" y="0" width="1080" height="1080" style="fill:none;"/><g><path d="M897.535,539.604l42.388,186.045c-267.993,122.229 -535.986,119.875 -803.979,-0l42.527,-186.045l-42.527,-186.045c267.993,-119.876 535.986,-122.23 803.979,-0l-42.388,186.045Z" style="fill:url(#_Linear1);"/><path d="M259.066,451.772l76.46,0l0,33.613c0,0 -4.289,-6.478 -29.547,-6.478l-11.676,-0l-0,39.109l33.122,-0l-5.481,32.632c0,-0 -2.859,-5.259 -25.973,-5.497l-1.668,-0l-0,51.629c0.715,21.513 6.434,25.337 6.434,25.337l-41.671,0c0,0 5.481,-3.585 6.434,-22.946l-0,-124.787c-0.953,-19.28 -6.434,-22.612 -6.434,-22.612Zm188.458,146.328c4.527,20.415 9.529,24.017 9.529,24.017l-41.689,0c0,0 4.526,-3.602 2.621,-23.057l-1.192,-7.205l-31.207,-0l-1.191,7.205c-1.906,19.455 2.62,23.057 2.62,23.057l-41.927,0c-0,0 5.241,-3.602 9.767,-24.017l23.346,-125.359c2.144,-17.633 -2.382,-20.969 -2.382,-20.969l50.503,0c0,0 -4.049,3.098 -2.62,19.063l23.822,127.265Zm-57.888,-33.38l23.108,-0l-11.673,-75.328l-11.435,75.328Zm193.232,-112.948c0,0 -5.719,3.828 -6.434,25.597l0,119.177c0.715,21.748 6.434,25.571 6.434,25.571l-41.676,0c-0,0 5.247,-3.345 6.439,-21.269l0,-59.267l-31.483,-3.339l-0,60.933c0.954,19.358 6.201,22.942 6.201,22.942l-41.438,0c0,0 5.242,-3.584 6.196,-22.942l-0,-124.437c-0.954,-19.617 -6.196,-22.966 -6.196,-22.966l41.438,0c0,0 -5.247,3.349 -6.201,22.966l-0,36.123l31.483,3.34l0,-41.138c-1.192,-17.942 -6.439,-21.291 -6.439,-21.291l41.676,0Zm126.295,146.328c4.527,20.415 9.529,24.017 9.529,24.017l-41.689,0c-0,0 4.526,-3.602 2.62,-23.057l-1.191,-7.205l-31.207,-0l-1.191,7.205c-1.906,19.455 2.62,23.057 2.62,23.057l-41.927,0c-0,0 5.24,-3.602 9.767,-24.017l23.346,-125.359c2.144,-17.633 -2.382,-20.969 -2.382,-20.969l50.503,0c0,0 -4.05,3.098 -2.62,19.063l23.822,127.265Zm-57.888,-33.38l23.107,-0l-11.673,-75.328l-11.434,75.328Zm178.221,23.8l0,33.597l-84.563,0l48.832,-143.21l-14.53,-0c-25.25,-0 -29.776,6.462 -29.776,6.462l-0,-33.597l84.563,0l-48.832,143.21l14.769,0c25.25,0 29.537,-6.462 29.537,-6.462Z" style="fill:#2b2b2b;fill-opacity:0;"/><clipPath id="_clip2"><path d="M259.066,451.772l76.46,0l0,33.613c0,0 -4.289,-6.478 -29.547,-6.478l-11.676,-0l-0,39.109l33.122,-0l-5.481,32.632c0,-0 -2.859,-5.259 -25.973,-5.497l-1.668,-0l-0,51.629c0.715,21.513 6.434,25.337 6.434,25.337l-41.671,0c0,0 5.481,-3.585 6.434,-22.946l-0,-124.787c-0.953,-19.28 -6.434,-22.612 -6.434,-22.612Zm188.458,146.328c4.527,20.415 9.529,24.017 9.529,24.017l-41.689,0c0,0 4.526,-3.602 2.621,-23.057l-1.192,-7.205l-31.207,-0l-1.191,7.205c-1.906,19.455 2.62,23.057 2.62,23.057l-41.927,0c-0,0 5.241,-3.602 9.767,-24.017l23.346,-125.359c2.144,-17.633 -2.382,-20.969 -2.382,-20.969l50.503,0c0,0 -4.049,3.098 -2.62,19.063l23.822,127.265Zm-57.888,-33.38l23.108,-0l-11.673,-75.328l-11.435,75.328Zm193.232,-112.948c0,0 -5.719,3.828 -6.434,25.597l0,119.177c0.715,21.748 6.434,25.571 6.434,25.571l-41.676,0c-0,0 5.247,-3.345 6.439,-21.269l0,-59.267l-31.483,-3.339l-0,60.933c0.954,19.358 6.201,22.942 6.201,22.942l-41.438,0c0,0 5.242,-3.584 6.196,-22.942l-0,-124.437c-0.954,-19.617 -6.196,-22.966 -6.196,-22.966l41.438,0c0,0 -5.247,3.349 -6.201,22.966l-0,36.123l31.483,3.34l0,-41.138c-1.192,-17.942 -6.439,-21.291 -6.439,-21.291l41.676,0Zm126.295,146.328c4.527,20.415 9.529,24.017 9.529,24.017l-41.689,0c-0,0 4.526,-3.602 2.62,-23.057l-1.191,-7.205l-31.207,-0l-1.191,7.205c-1.906,19.455 2.62,23.057 2.62,23.057l-41.927,0c-0,0 5.24,-3.602 9.767,-24.017l23.346,-125.359c2.144,-17.633 -2.382,-20.969 -2.382,-20.969l50.503,0c0,0 -4.05,3.098 -2.62,19.063l23.822,127.265Zm-57.888,-33.38l23.107,-0l-11.673,-75.328l-11.434,75.328Zm178.221,23.8l0,33.597l-84.563,0l48.832,-143.21l-14.53,-0c-25.25,-0 -29.776,6.462 -29.776,6.462l-0,-33.597l84.563,0l-48.832,143.21l14.769,0c25.25,0 29.537,-6.462 29.537,-6.462Z"/></clipPath><g clip-path="url(#_clip2)"><path d="M192.941,492.127c-0.113,-0.285 0.026,-0.609 0.311,-0.722c0.285,-0.114 0.609,0.026 0.722,0.311l134.524,337.827c0.113,0.285 -0.026,0.608 -0.311,0.722c-0.285,0.113 -0.609,-0.026 -0.722,-0.311l-134.524,-337.827Zm4.133,-1.645c-0.114,-0.286 0.026,-0.609 0.311,-0.723c0.285,-0.113 0.608,0.026 0.722,0.311l134.523,337.827c0.114,0.285 -0.025,0.609 -0.311,0.722c-0.285,0.114 -0.608,-0.026 -0.722,-0.311l-134.523,-337.826Zm4.132,-1.646c-0.113,-0.285 0.026,-0.609 0.311,-0.722c0.285,-0.114 0.609,0.025 0.722,0.311l134.524,337.826c0.113,0.286 -0.026,0.609 -0.311,0.723c-0.285,0.113 -0.609,-0.026 -0.722,-0.311l-134.524,-337.827Zm4.133,-1.646c-0.114,-0.285 0.025,-0.608 0.311,-0.722c0.285,-0.113 0.608,0.026 0.722,0.311l134.523,337.827c0.114,0.285 -0.026,0.609 -0.311,0.722c-0.285,0.114 -0.608,-0.026 -0.722,-0.311l-134.523,-337.827Zm4.132,-1.645c-0.113,-0.285 0.026,-0.609 0.311,-0.722c0.285,-0.114 0.609,0.025 0.722,0.31l134.524,337.827c0.113,0.285 -0.026,0.609 -0.311,0.723c-0.285,0.113 -0.609,-0.026 -0.723,-0.311l-134.523,-337.827Zm4.133,-1.646c-0.114,-0.285 0.025,-0.608 0.31,-0.722c0.285,-0.113 0.609,0.026 0.723,0.311l134.523,337.827c0.114,0.285 -0.026,0.609 -0.311,0.722c-0.285,0.114 -0.609,-0.026 -0.722,-0.311l-134.523,-337.827Zm4.132,-1.645c-0.114,-0.285 0.026,-0.609 0.311,-0.722c0.285,-0.114 0.609,0.025 0.722,0.31l134.523,337.827c0.114,0.285 -0.025,0.609 -0.31,0.723c-0.285,0.113 -0.609,-0.026 -0.723,-0.311l-134.523,-337.827Zm4.132,-1.646c-0.113,-0.285 0.026,-0.608 0.311,-0.722c0.285,-0.114 0.609,0.026 0.723,0.311l134.523,337.827c0.113,0.285 -0.026,0.608 -0.311,0.722c-0.285,0.114 -0.609,-0.026 -0.722,-0.311l-134.524,-337.827Zm4.133,-1.645c-0.114,-0.285 0.026,-0.609 0.311,-0.723c0.285,-0.113 0.608,0.026 0.722,0.311l134.523,337.827c0.114,0.285 -0.025,0.609 -0.311,0.722c-0.285,0.114 -0.608,-0.025 -0.722,-0.31l-134.523,-337.827Zm4.132,-1.646c-0.113,-0.285 0.026,-0.609 0.311,-0.722c0.285,-0.114 0.609,0.026 0.722,0.311l134.524,337.827c0.113,0.285 -0.026,0.608 -0.311,0.722c-0.285,0.113 -0.609,-0.026 -0.722,-0.311l-134.524,-337.827Zm4.133,-1.645c-0.114,-0.285 0.025,-0.609 0.311,-0.723c0.285,-0.113 0.608,0.026 0.722,0.311l134.523,337.827c0.114,0.285 -0.026,0.609 -0.311,0.722c-0.285,0.114 -0.608,-0.025 -0.722,-0.311l-134.523,-337.826Zm4.132,-1.646c-0.113,-0.285 0.026,-0.609 0.311,-0.722c0.285,-0.114 0.609,0.026 0.722,0.311l134.524,337.827c0.113,0.285 -0.026,0.608 -0.311,0.722c-0.285,0.113 -0.609,-0.026 -0.722,-0.311l-134.524,-337.827Zm4.133,-1.645c-0.114,-0.286 0.025,-0.609 0.31,-0.723c0.286,-0.113 0.609,0.026 0.723,0.311l134.523,337.827c0.114,0.285 -0.026,0.609 -0.311,0.722c-0.285,0.114 -0.608,-0.026 -0.722,-0.311l-134.523,-337.826Zm4.132,-1.646c-0.113,-0.285 0.026,-0.609 0.311,-0.722c0.285,-0.114 0.609,0.025 0.722,0.311l134.524,337.826c0.113,0.286 -0.026,0.609 -0.311,0.723c-0.285,0.113 -0.609,-0.026 -0.723,-0.311l-134.523,-337.827Zm4.132,-1.646c-0.113,-0.285 0.026,-0.608 0.311,-0.722c0.285,-0.113 0.609,0.026 0.723,0.311l134.523,337.827c0.114,0.285 -0.026,0.609 -0.311,0.722c-0.285,0.114 -0.609,-0.026 -0.722,-0.311l-134.524,-337.827Zm4.133,-1.645c-0.114,-0.285 0.026,-0.609 0.311,-0.722c0.285,-0.114 0.609,0.025 0.722,0.31l134.523,337.827c0.114,0.285 -0.025,0.609 -0.31,0.723c-0.286,0.113 -0.609,-0.026 -0.723,-0.311l-134.523,-337.827Zm4.132,-1.646c-0.113,-0.285 0.026,-0.608 0.311,-0.722c0.285,-0.113 0.609,0.026 0.722,0.311l134.524,337.827c0.113,0.285 -0.026,0.609 -0.311,0.722c-0.285,0.114 -0.609,-0.026 -0.722,-0.311l-134.524,-337.827Zm4.133,-1.645c-0.114,-0.285 0.026,-0.609 0.311,-0.722c0.285,-0.114 0.608,0.025 0.722,0.31l134.523,337.827c0.114,0.285 -0.025,0.609 -0.311,0.723c-0.285,0.113 -0.608,-0.026 -0.722,-0.311l-134.523,-337.827Zm4.132,-1.646c-0.113,-0.285 0.026,-0.608 0.311,-0.722c0.285,-0.114 0.609,0.026 0.722,0.311l134.524,337.827c0.113,0.285 -0.026,0.608 -0.311,0.722c-0.285,0.114 -0.609,-0.026 -0.722,-0.311l-134.524,-337.827Zm4.133,-1.645c-0.114,-0.285 0.025,-0.609 0.311,-0.723c0.285,-0.113 0.608,0.026 0.722,0.311l134.523,337.827c0.114,0.285 -0.026,0.609 -0.311,0.722c-0.285,0.114 -0.608,-0.025 -0.722,-0.31l-134.523,-337.827Zm4.132,-1.646c-0.113,-0.285 0.026,-0.609 0.311,-0.722c0.285,-0.114 0.609,0.026 0.722,0.311l134.524,337.827c0.113,0.285 -0.026,0.608 -0.311,0.722c-0.285,0.113 -0.609,-0.026 -0.722,-0.311l-134.524,-337.827Zm4.133,-1.645c-0.114,-0.286 0.025,-0.609 0.31,-0.723c0.286,-0.113 0.609,0.026 0.723,0.311l134.523,337.827c0.114,0.285 -0.026,0.609 -0.311,0.722c-0.285,0.114 -0.609,-0.025 -0.722,-0.311l-134.523,-337.826Zm4.132,-1.646c-0.114,-0.285 0.026,-0.609 0.311,-0.722c0.285,-0.114 0.609,0.026 0.722,0.311l134.523,337.827c0.114,0.285 -0.025,0.608 -0.31,0.722c-0.285,0.113 -0.609,-0.026 -0.723,-0.311l-134.523,-337.827Zm4.132,-1.646c-0.113,-0.285 0.026,-0.608 0.311,-0.722c0.285,-0.113 0.609,0.026 0.723,0.311l134.523,337.827c0.113,0.285 -0.026,0.609 -0.311,0.722c-0.285,0.114 -0.609,-0.026 -0.722,-0.311l-134.524,-337.827Zm4.133,-1.645c-0.114,-0.285 0.026,-0.609 0.311,-0.722c0.285,-0.114 0.608,0.025 0.722,0.311l134.523,337.826c0.114,0.286 -0.025,0.609 -0.31,0.723c-0.286,0.113 -0.609,-0.026 -0.723,-0.311l-134.523,-337.827Zm4.132,-1.646c-0.113,-0.285 0.026,-0.608 0.311,-0.722c0.285,-0.113 0.609,0.026 0.722,0.311l134.524,337.827c0.113,0.285 -0.026,0.609 -0.311,0.722c-0.285,0.114 -0.609,-0.026 -0.722,-0.311l-134.524,-337.827Zm4.133,-1.645c-0.114,-0.285 0.026,-0.609 0.311,-0.722c0.285,-0.114 0.608,0.025 0.722,0.31l134.523,337.827c0.114,0.285 -0.026,0.609 -0.311,0.723c-0.285,0.113 -0.608,-0.026 -0.722,-0.311l-134.523,-337.827Zm4.132,-1.646c-0.113,-0.285 0.026,-0.608 0.311,-0.722c0.285,-0.113 0.609,0.026 0.722,0.311l134.524,337.827c0.113,0.285 -0.026,0.609 -0.311,0.722c-0.285,0.114 -0.609,-0.026 -0.722,-0.311l-134.524,-337.827Zm4.133,-1.645c-0.114,-0.285 0.025,-0.609 0.31,-0.722c0.286,-0.114 0.609,0.025 0.723,0.31l134.523,337.827c0.114,0.285 -0.026,0.609 -0.311,0.723c-0.285,0.113 -0.608,-0.026 -0.722,-0.311l-134.523,-337.827Zm4.132,-1.646c-0.113,-0.285 0.026,-0.609 0.311,-0.722c0.285,-0.114 0.609,0.026 0.722,0.311l134.524,337.827c0.113,0.285 -0.026,0.608 -0.311,0.722c-0.285,0.113 -0.609,-0.026 -0.723,-0.311l-134.523,-337.827Zm4.133,-1.645c-0.114,-0.285 0.025,-0.609 0.31,-0.723c0.285,-0.113 0.609,0.026 0.723,0.311l134.523,337.827c0.114,0.285 -0.026,0.609 -0.311,0.722c-0.285,0.114 -0.609,-0.025 -0.722,-0.31l-134.523,-337.827Zm4.132,-1.646c-0.114,-0.285 0.026,-0.609 0.311,-0.722c0.285,-0.114 0.609,0.026 0.722,0.311l134.523,337.827c0.114,0.285 -0.025,0.608 -0.31,0.722c-0.286,0.113 -0.609,-0.026 -0.723,-0.311l-134.523,-337.827Zm4.132,-1.645c-0.113,-0.286 0.026,-0.609 0.311,-0.723c0.285,-0.113 0.609,0.026 0.722,0.311l134.524,337.827c0.113,0.285 -0.026,0.609 -0.311,0.722c-0.285,0.114 -0.609,-0.025 -0.722,-0.311l-134.524,-337.826Zm4.133,-1.646c-0.114,-0.285 0.026,-0.609 0.311,-0.722c0.285,-0.114 0.608,0.026 0.722,0.311l134.523,337.827c0.114,0.285 -0.025,0.608 -0.311,0.722c-0.285,0.113 -0.608,-0.026 -0.722,-0.311l-134.523,-337.827Zm4.132,-1.646c-0.113,-0.285 0.026,-0.608 0.311,-0.722c0.285,-0.113 0.609,0.026 0.722,0.311l134.524,337.827c0.113,0.285 -0.026,0.609 -0.311,0.722c-0.285,0.114 -0.609,-0.026 -0.722,-0.311l-134.524,-337.827Zm4.133,-1.645c-0.114,-0.285 0.025,-0.609 0.311,-0.722c0.285,-0.114 0.608,0.025 0.722,0.311l134.523,337.826c0.114,0.286 -0.026,0.609 -0.311,0.723c-0.285,0.113 -0.608,-0.026 -0.722,-0.311l-134.523,-337.827Zm4.132,-1.646c-0.113,-0.285 0.026,-0.608 0.311,-0.722c0.285,-0.113 0.609,0.026 0.722,0.311l134.524,337.827c0.113,0.285 -0.026,0.609 -0.311,0.722c-0.285,0.114 -0.609,-0.026 -0.722,-0.311l-134.524,-337.827Zm4.133,-1.645c-0.114,-0.285 0.025,-0.609 0.31,-0.722c0.286,-0.114 0.609,0.025 0.723,0.31l134.523,337.827c0.114,0.285 -0.026,0.609 -0.311,0.723c-0.285,0.113 -0.609,-0.026 -0.722,-0.311l-134.523,-337.827Zm4.132,-1.646c-0.114,-0.285 0.026,-0.608 0.311,-0.722c0.285,-0.113 0.609,0.026 0.722,0.311l134.524,337.827c0.113,0.285 -0.026,0.609 -0.311,0.722c-0.285,0.114 -0.609,-0.026 -0.723,-0.311l-134.523,-337.827Zm4.132,-1.645c-0.113,-0.285 0.026,-0.609 0.311,-0.722c0.285,-0.114 0.609,0.025 0.723,0.31l134.523,337.827c0.113,0.285 -0.026,0.609 -0.311,0.723c-0.285,0.113 -0.609,-0.026 -0.722,-0.311l-134.524,-337.827Zm4.133,-1.646c-0.114,-0.285 0.026,-0.609 0.311,-0.722c0.285,-0.114 0.608,0.026 0.722,0.311l134.523,337.827c0.114,0.285 -0.025,0.608 -0.31,0.722c-0.286,0.113 -0.609,-0.026 -0.723,-0.311l-134.523,-337.827Zm4.132,-1.645c-0.113,-0.285 0.026,-0.609 0.311,-0.723c0.285,-0.113 0.609,0.026 0.722,0.311l134.524,337.827c0.113,0.285 -0.026,0.609 -0.311,0.722c-0.285,0.114 -0.609,-0.025 -0.722,-0.31l-134.524,-337.827Zm4.133,-1.646c-0.114,-0.285 0.026,-0.609 0.311,-0.722c0.285,-0.114 0.608,0.026 0.722,0.311l134.523,337.827c0.114,0.285 -0.025,0.608 -0.311,0.722c-0.285,0.113 -0.608,-0.026 -0.722,-0.311l-134.523,-337.827Zm4.132,-1.645c-0.113,-0.286 0.026,-0.609 0.311,-0.723c0.285,-0.113 0.609,0.026 0.722,0.311l134.524,337.827c0.113,0.285 -0.026,0.609 -0.311,0.722c-0.285,0.114 -0.609,-0.025 -0.722,-0.311l-134.524,-337.826Zm4.133,-1.646c-0.114,-0.285 0.025,-0.609 0.311,-0.722c0.285,-0.114 0.608,0.026 0.722,0.311l134.523,337.827c0.114,0.285 -0.026,0.608 -0.311,0.722c-0.285,0.113 -0.608,-0.026 -0.722,-0.311l-134.523,-337.827Zm4.132,-1.646c-0.113,-0.285 0.026,-0.608 0.311,-0.722c0.285,-0.113 0.609,0.026 0.722,0.311l134.524,337.827c0.113,0.285 -0.026,0.609 -0.311,0.722c-0.285,0.114 -0.609,-0.026 -0.723,-0.311l-134.523,-337.827Zm4.133,-1.645c-0.114,-0.285 0.025,-0.609 0.31,-0.722c0.285,-0.114 0.609,0.025 0.723,0.311l134.523,337.826c0.114,0.286 -0.026,0.609 -0.311,0.723c-0.285,0.113 -0.609,-0.026 -0.722,-0.311l-134.523,-337.827Zm4.132,-1.646c-0.114,-0.285 0.026,-0.608 0.311,-0.722c0.285,-0.113 0.609,0.026 0.722,0.311l134.523,337.827c0.114,0.285 -0.025,0.609 -0.31,0.722c-0.285,0.114 -0.609,-0.026 -0.723,-0.311l-134.523,-337.827Zm4.132,-1.645c-0.113,-0.285 0.026,-0.609 0.311,-0.722c0.285,-0.114 0.609,0.025 0.723,0.31l134.523,337.827c0.113,0.285 -0.026,0.609 -0.311,0.723c-0.285,0.113 -0.609,-0.026 -0.722,-0.311l-134.524,-337.827Zm4.133,-1.646c-0.114,-0.285 0.026,-0.608 0.311,-0.722c0.285,-0.113 0.608,0.026 0.722,0.311l134.523,337.827c0.114,0.285 -0.025,0.609 -0.311,0.722c-0.285,0.114 -0.608,-0.026 -0.722,-0.311l-134.523,-337.827Zm4.132,-1.645c-0.113,-0.285 0.026,-0.609 0.311,-0.722c0.285,-0.114 0.609,0.025 0.722,0.31l134.524,337.827c0.113,0.285 -0.026,0.609 -0.311,0.723c-0.285,0.113 -0.609,-0.026 -0.722,-0.311l-134.524,-337.827Zm4.133,-1.646c-0.114,-0.285 0.025,-0.609 0.311,-0.722c0.285,-0.114 0.608,0.026 0.722,0.311l134.523,337.827c0.114,0.285 -0.026,0.608 -0.311,0.722c-0.285,0.113 -0.608,-0.026 -0.722,-0.311l-134.523,-337.827Zm4.132,-1.645c-0.113,-0.285 0.026,-0.609 0.311,-0.723c0.285,-0.113 0.609,0.026 0.722,0.311l134.524,337.827c0.113,0.285 -0.026,0.609 -0.311,0.722c-0.285,0.114 -0.609,-0.025 -0.722,-0.31l-134.524,-337.827Zm4.133,-1.646c-0.114,-0.285 0.025,-0.609 0.31,-0.722c0.286,-0.114 0.609,0.026 0.723,0.311l134.523,337.827c0.114,0.285 -0.026,0.608 -0.311,0.722c-0.285,0.113 -0.608,-0.026 -0.722,-0.311l-134.523,-337.827Zm4.132,-1.645c-0.113,-0.286 0.026,-0.609 0.311,-0.723c0.285,-0.113 0.609,0.026 0.722,0.311l134.524,337.827c0.113,0.285 -0.026,0.609 -0.311,0.722c-0.285,0.114 -0.609,-0.025 -0.723,-0.311l-134.523,-337.826Zm4.132,-1.646c-0.113,-0.285 0.026,-0.609 0.311,-0.722c0.285,-0.114 0.609,0.026 0.723,0.311l134.523,337.827c0.114,0.285 -0.026,0.608 -0.311,0.722c-0.285,0.113 -0.609,-0.026 -0.722,-0.311l-134.524,-337.827Zm4.133,-1.646c-0.114,-0.285 0.026,-0.608 0.311,-0.722c0.285,-0.113 0.609,0.026 0.722,0.311l134.523,337.827c0.114,0.285 -0.025,0.609 -0.31,0.722c-0.286,0.114 -0.609,-0.026 -0.723,-0.311l-134.523,-337.827Zm4.132,-1.645c-0.113,-0.285 0.026,-0.609 0.311,-0.722c0.285,-0.114 0.609,0.025 0.722,0.311l134.524,337.826c0.113,0.286 -0.026,0.609 -0.311,0.723c-0.285,0.113 -0.609,-0.026 -0.722,-0.311l-134.524,-337.827Zm4.133,-1.646c-0.114,-0.285 0.026,-0.608 0.311,-0.722c0.285,-0.113 0.608,0.026 0.722,0.311l134.523,337.827c0.114,0.285 -0.025,0.609 -0.311,0.722c-0.285,0.114 -0.608,-0.026 -0.722,-0.311l-134.523,-337.827Zm4.132,-1.645c-0.113,-0.285 0.026,-0.609 0.311,-0.722c0.285,-0.114 0.609,0.025 0.722,0.31l134.524,337.827c0.113,0.285 -0.026,0.609 -0.311,0.723c-0.285,0.113 -0.609,-0.026 -0.722,-0.311l-134.524,-337.827Zm4.133,-1.646c-0.114,-0.285 0.025,-0.608 0.311,-0.722c0.285,-0.113 0.608,0.026 0.722,0.311l134.523,337.827c0.114,0.285 -0.026,0.609 -0.311,0.722c-0.285,0.114 -0.608,-0.026 -0.722,-0.311l-134.523,-337.827Zm4.132,-1.645c-0.113,-0.285 0.026,-0.609 0.311,-0.723c0.285,-0.113 0.609,0.026 0.722,0.311l134.524,337.827c0.113,0.285 -0.026,0.609 -0.311,0.722c-0.285,0.114 -0.609,-0.025 -0.722,-0.31l-134.524,-337.827Zm4.133,-1.646c-0.114,-0.285 0.025,-0.609 0.31,-0.722c0.286,-0.114 0.609,0.026 0.723,0.311l134.523,337.827c0.114,0.285 -0.026,0.608 -0.311,0.722c-0.285,0.113 -0.609,-0.026 -0.722,-0.311l-134.523,-337.827Zm4.132,-1.645c-0.114,-0.285 0.026,-0.609 0.311,-0.723c0.285,-0.113 0.609,0.026 0.722,0.311l134.523,337.827c0.114,0.285 -0.025,0.609 -0.31,0.722c-0.285,0.114 -0.609,-0.025 -0.723,-0.31l-134.523,-337.827Zm4.132,-1.646c-0.113,-0.285 0.026,-0.609 0.311,-0.722c0.285,-0.114 0.609,0.026 0.723,0.311l134.523,337.827c0.113,0.285 -0.026,0.608 -0.311,0.722c-0.285,0.113 -0.609,-0.026 -0.722,-0.311l-134.524,-337.827Zm4.133,-1.645c-0.114,-0.286 0.026,-0.609 0.311,-0.723c0.285,-0.113 0.608,0.026 0.722,0.311l134.523,337.827c0.114,0.285 -0.025,0.609 -0.31,0.722c-0.286,0.114 -0.609,-0.025 -0.723,-0.311l-134.523,-337.826Zm4.132,-1.646c-0.113,-0.285 0.026,-0.609 0.311,-0.722c0.285,-0.114 0.609,0.026 0.722,0.311l134.524,337.827c0.113,0.285 -0.026,0.608 -0.311,0.722c-0.285,0.113 -0.609,-0.026 -0.722,-0.311l-134.524,-337.827Zm4.133,-1.646c-0.114,-0.285 0.026,-0.608 0.311,-0.722c0.285,-0.113 0.608,0.026 0.722,0.311l134.523,337.827c0.114,0.285 -0.026,0.609 -0.311,0.722c-0.285,0.114 -0.608,-0.026 -0.722,-0.311l-134.523,-337.827Zm4.132,-1.645c-0.113,-0.285 0.026,-0.609 0.311,-0.722c0.285,-0.114 0.609,0.025 0.722,0.311l134.524,337.826c0.113,0.286 -0.026,0.609 -0.311,0.723c-0.285,0.113 -0.609,-0.026 -0.722,-0.311l-134.524,-337.827Zm4.133,-1.646c-0.114,-0.285 0.025,-0.608 0.31,-0.722c0.286,-0.113 0.609,0.026 0.723,0.311l134.523,337.827c0.114,0.285 -0.026,0.609 -0.311,0.722c-0.285,0.114 -0.608,-0.026 -0.722,-0.311l-134.523,-337.827Zm4.132,-1.645c-0.113,-0.285 0.026,-0.609 0.311,-0.722c0.285,-0.114 0.609,0.025 0.722,0.31l134.524,337.827c0.113,0.285 -0.026,0.609 -0.311,0.723c-0.285,0.113 -0.609,-0.026 -0.723,-0.311l-134.523,-337.827Zm4.133,-1.646c-0.114,-0.285 0.025,-0.608 0.31,-0.722c0.285,-0.113 0.609,0.026 0.723,0.311l134.523,337.827c0.114,0.285 -0.026,0.609 -0.311,0.722c-0.285,0.114 -0.609,-0.026 -0.722,-0.311l-134.523,-337.827Zm4.132,-1.645c-0.114,-0.285 0.026,-0.609 0.311,-0.723c0.285,-0.113 0.609,0.026 0.722,0.311l134.523,337.827c0.114,0.285 -0.025,0.609 -0.31,0.722c-0.286,0.114 -0.609,-0.025 -0.723,-0.31l-134.523,-337.827Zm4.132,-1.646c-0.113,-0.285 0.026,-0.609 0.311,-0.722c0.285,-0.114 0.609,0.026 0.722,0.311l134.524,337.827c0.113,0.285 -0.026,0.608 -0.311,0.722c-0.285,0.113 -0.609,-0.026 -0.722,-0.311l-134.524,-337.827Zm4.133,-1.645c-0.114,-0.285 0.026,-0.609 0.311,-0.723c0.285,-0.113 0.608,0.026 0.722,0.311l134.523,337.827c0.114,0.285 -0.025,0.609 -0.311,0.722c-0.285,0.114 -0.608,-0.025 -0.722,-0.31l-134.523,-337.827Zm4.132,-1.646c-0.113,-0.285 0.026,-0.609 0.311,-0.722c0.285,-0.114 0.609,0.026 0.722,0.311l134.524,337.827c0.113,0.285 -0.026,0.608 -0.311,0.722c-0.285,0.113 -0.609,-0.026 -0.722,-0.311l-134.524,-337.827Zm4.133,-1.645c-0.114,-0.286 0.025,-0.609 0.311,-0.723c0.285,-0.113 0.608,0.026 0.722,0.311l134.523,337.827c0.114,0.285 -0.026,0.609 -0.311,0.722c-0.285,0.114 -0.608,-0.025 -0.722,-0.311l-134.523,-337.826Zm4.132,-1.646c-0.113,-0.285 0.026,-0.609 0.311,-0.722c0.285,-0.114 0.609,0.026 0.722,0.311l134.524,337.827c0.113,0.285 -0.026,0.608 -0.311,0.722c-0.285,0.113 -0.609,-0.026 -0.722,-0.311l-134.524,-337.827Zm4.133,-1.646c-0.114,-0.285 0.025,-0.608 0.31,-0.722c0.286,-0.113 0.609,0.026 0.723,0.311l134.523,337.827c0.114,0.285 -0.026,0.609 -0.311,0.722c-0.285,0.114 -0.609,-0.026 -0.722,-0.311l-134.523,-337.827Zm4.132,-1.645c-0.114,-0.285 0.026,-0.609 0.311,-0.722c0.285,-0.114 0.609,0.025 0.722,0.311l134.524,337.826c0.113,0.286 -0.026,0.609 -0.311,0.723c-0.285,0.113 -0.609,-0.026 -0.723,-0.311l-134.523,-337.827Zm4.132,-1.646c-0.113,-0.285 0.026,-0.608 0.311,-0.722c0.285,-0.113 0.609,0.026 0.723,0.311l134.523,337.827c0.113,0.285 -0.026,0.609 -0.311,0.722c-0.285,0.114 -0.609,-0.026 -0.722,-0.311l-134.524,-337.827Zm4.133,-1.645c-0.114,-0.285 0.026,-0.609 0.311,-0.722c0.285,-0.114 0.608,0.025 0.722,0.31l134.523,337.827c0.114,0.285 -0.025,0.609 -0.31,0.723c-0.286,0.113 -0.609,-0.026 -0.723,-0.311l-134.523,-337.827Zm4.132,-1.646c-0.113,-0.285 0.026,-0.608 0.311,-0.722c0.285,-0.113 0.609,0.026 0.722,0.311l134.524,337.827c0.113,0.285 -0.026,0.609 -0.311,0.722c-0.285,0.114 -0.609,-0.026 -0.722,-0.311l-134.524,-337.827Zm4.133,-1.645c-0.114,-0.285 0.026,-0.609 0.311,-0.723c0.285,-0.113 0.608,0.026 0.722,0.311l134.523,337.827c0.114,0.285 -0.025,0.609 -0.311,0.722c-0.285,0.114 -0.608,-0.025 -0.722,-0.31l-134.523,-337.827Zm4.132,-1.646c-0.113,-0.285 0.026,-0.609 0.311,-0.722c0.285,-0.114 0.609,0.026 0.722,0.311l134.524,337.827c0.113,0.285 -0.026,0.608 -0.311,0.722c-0.285,0.113 -0.609,-0.026 -0.722,-0.311l-134.524,-337.827Zm4.133,-1.645c-0.114,-0.285 0.025,-0.609 0.311,-0.723c0.285,-0.113 0.608,0.026 0.722,0.311l134.523,337.827c0.114,0.285 -0.026,0.609 -0.311,0.722c-0.285,0.114 -0.608,-0.025 -0.722,-0.31l-134.523,-337.827Zm4.132,-1.646c-0.113,-0.285 0.026,-0.609 0.311,-0.722c0.285,-0.114 0.609,0.026 0.722,0.311l134.524,337.827c0.113,0.285 -0.026,0.608 -0.311,0.722c-0.285,0.113 -0.609,-0.026 -0.723,-0.311l-134.523,-337.827Zm4.133,-1.645c-0.114,-0.286 0.025,-0.609 0.31,-0.723c0.285,-0.113 0.609,0.026 0.723,0.311l134.523,337.827c0.114,0.285 -0.026,0.609 -0.311,0.722c-0.285,0.114 -0.609,-0.025 -0.722,-0.311l-134.523,-337.826Zm4.132,-1.646c-0.114,-0.285 0.026,-0.609 0.311,-0.722c0.285,-0.114 0.609,0.026 0.722,0.311l134.523,337.827c0.114,0.285 -0.025,0.608 -0.31,0.722c-0.285,0.113 -0.609,-0.026 -0.723,-0.311l-134.523,-337.827Zm4.132,-1.646c-0.113,-0.285 0.026,-0.608 0.311,-0.722c0.285,-0.113 0.609,0.026 0.723,0.311l134.523,337.827c0.113,0.285 -0.026,0.609 -0.311,0.722c-0.285,0.114 -0.609,-0.026 -0.722,-0.311l-134.524,-337.827Zm4.133,-1.645c-0.114,-0.285 0.026,-0.609 0.311,-0.722c0.285,-0.114 0.608,0.025 0.722,0.311l134.523,337.826c0.114,0.286 -0.025,0.609 -0.311,0.723c-0.285,0.113 -0.608,-0.026 -0.722,-0.311l-134.523,-337.827Zm4.132,-1.646c-0.113,-0.285 0.026,-0.608 0.311,-0.722c0.285,-0.113 0.609,0.026 0.722,0.311l134.524,337.827c0.113,0.285 -0.026,0.609 -0.311,0.722c-0.285,0.114 -0.609,-0.026 -0.722,-0.311l-134.524,-337.827Zm4.133,-1.645c-0.114,-0.285 0.025,-0.609 0.311,-0.722c0.285,-0.114 0.608,0.025 0.722,0.31l134.523,337.827c0.114,0.285 -0.026,0.609 -0.311,0.723c-0.285,0.113 -0.608,-0.026 -0.722,-0.311l-134.523,-337.827Zm4.132,-1.646c-0.113,-0.285 0.026,-0.608 0.311,-0.722c0.285,-0.113 0.609,0.026 0.722,0.311l134.524,337.827c0.113,0.285 -0.026,0.608 -0.311,0.722c-0.285,0.114 -0.609,-0.026 -0.722,-0.311l-134.524,-337.827Zm4.133,-1.645c-0.114,-0.285 0.025,-0.609 0.31,-0.723c0.286,-0.113 0.609,0.026 0.723,0.311l134.523,337.827c0.114,0.285 -0.026,0.609 -0.311,0.722c-0.285,0.114 -0.608,-0.025 -0.722,-0.31l-134.523,-337.827Zm4.132,-1.646c-0.113,-0.285 0.026,-0.609 0.311,-0.722c0.285,-0.114 0.609,0.026 0.722,0.311l134.524,337.827c0.113,0.285 -0.026,0.608 -0.311,0.722c-0.285,0.113 -0.609,-0.026 -0.723,-0.311l-134.523,-337.827Zm4.132,-1.645c-0.113,-0.285 0.026,-0.609 0.311,-0.723c0.285,-0.113 0.609,0.026 0.723,0.311l134.523,337.827c0.114,0.285 -0.026,0.609 -0.311,0.722c-0.285,0.114 -0.609,-0.025 -0.722,-0.31l-134.524,-337.827Zm4.133,-1.646c-0.114,-0.285 0.026,-0.609 0.311,-0.722c0.285,-0.114 0.609,0.026 0.722,0.311l134.523,337.827c0.114,0.285 -0.025,0.608 -0.31,0.722c-0.286,0.113 -0.609,-0.026 -0.723,-0.311l-134.523,-337.827Zm4.132,-1.645c-0.113,-0.286 0.026,-0.609 0.311,-0.723c0.285,-0.113 0.609,0.026 0.722,0.311l134.524,337.827c0.113,0.285 -0.026,0.609 -0.311,0.722c-0.285,0.114 -0.609,-0.025 -0.722,-0.311l-134.524,-337.826Zm4.133,-1.646c-0.114,-0.285 0.026,-0.609 0.311,-0.722c0.285,-0.114 0.608,0.026 0.722,0.311l134.523,337.826c0.114,0.286 -0.025,0.609 -0.311,0.723c-0.285,0.113 -0.608,-0.026 -0.722,-0.311l-134.523,-337.827Zm4.132,-1.646c-0.113,-0.285 0.026,-0.608 0.311,-0.722c0.285,-0.113 0.609,0.026 0.722,0.311l134.524,337.827c0.113,0.285 -0.026,0.609 -0.311,0.722c-0.285,0.114 -0.609,-0.026 -0.722,-0.311l-134.524,-337.827Zm4.133,-1.645c-0.114,-0.285 0.025,-0.609 0.311,-0.722c0.285,-0.114 0.608,0.025 0.722,0.311l134.523,337.826c0.114,0.286 -0.026,0.609 -0.311,0.723c-0.285,0.113 -0.608,-0.026 -0.722,-0.311l-134.523,-337.827Zm4.132,-1.646c-0.113,-0.285 0.026,-0.608 0.311,-0.722c0.285,-0.113 0.609,0.026 0.722,0.311l134.524,337.827c0.113,0.285 -0.026,0.609 -0.311,0.722c-0.285,0.114 -0.609,-0.026 -0.722,-0.311l-134.524,-337.827Zm4.133,-1.645c-0.114,-0.285 0.025,-0.609 0.31,-0.722c0.286,-0.114 0.609,0.025 0.723,0.31l134.523,337.827c0.114,0.285 -0.026,0.609 -0.311,0.723c-0.285,0.113 -0.609,-0.026 -0.722,-0.311l-134.523,-337.827Zm4.132,-1.646c-0.114,-0.285 0.026,-0.608 0.311,-0.722c0.285,-0.114 0.609,0.026 0.722,0.311l134.523,337.827c0.114,0.285 -0.025,0.608 -0.31,0.722c-0.285,0.114 -0.609,-0.026 -0.723,-0.311l-134.523,-337.827Zm4.132,-1.645c-0.113,-0.285 0.026,-0.609 0.311,-0.723c0.285,-0.113 0.609,0.026 0.723,0.311l134.523,337.827c0.113,0.285 -0.026,0.609 -0.311,0.722c-0.285,0.114 -0.609,-0.025 -0.722,-0.31l-134.524,-337.827Zm4.133,-1.646c-0.114,-0.285 0.026,-0.609 0.311,-0.722c0.285,-0.114 0.608,0.026 0.722,0.311l134.523,337.827c0.114,0.285 -0.025,0.608 -0.31,0.722c-0.286,0.113 -0.609,-0.026 -0.723,-0.311l-134.523,-337.827Zm4.132,-1.645c-0.113,-0.285 0.026,-0.609 0.311,-0.723c0.285,-0.113 0.609,0.026 0.722,0.311l134.524,337.827c0.113,0.285 -0.026,0.609 -0.311,0.722c-0.285,0.114 -0.609,-0.025 -0.722,-0.31l-134.524,-337.827Zm4.133,-1.646c-0.114,-0.285 0.026,-0.609 0.311,-0.722c0.285,-0.114 0.608,0.026 0.722,0.311l134.523,337.827c0.114,0.285 -0.026,0.608 -0.311,0.722c-0.285,0.113 -0.608,-0.026 -0.722,-0.311l-134.523,-337.827Zm4.132,-1.645c-0.113,-0.286 0.026,-0.609 0.311,-0.723c0.285,-0.113 0.609,0.026 0.722,0.311l134.524,337.827c0.113,0.285 -0.026,0.609 -0.311,0.722c-0.285,0.114 -0.609,-0.025 -0.722,-0.311l-134.524,-337.826Zm4.133,-1.646c-0.114,-0.285 0.025,-0.609 0.31,-0.722c0.286,-0.114 0.609,0.026 0.723,0.311l134.523,337.826c0.114,0.286 -0.026,0.609 -0.311,0.723c-0.285,0.113 -0.608,-0.026 -0.722,-0.311l-134.523,-337.827Zm4.132,-1.646c-0.113,-0.285 0.026,-0.608 0.311,-0.722c0.285,-0.113 0.609,0.026 0.722,0.311l134.524,337.827c0.113,0.285 -0.026,0.609 -0.311,0.722c-0.285,0.114 -0.609,-0.026 -0.723,-0.311l-134.523,-337.827Zm4.133,-1.645c-0.114,-0.285 0.025,-0.609 0.31,-0.722c0.285,-0.114 0.609,0.025 0.723,0.311l134.523,337.826c0.114,0.285 -0.026,0.609 -0.311,0.723c-0.285,0.113 -0.609,-0.026 -0.722,-0.311l-134.523,-337.827Zm4.132,-1.646c-0.114,-0.285 0.026,-0.608 0.311,-0.722c0.285,-0.113 0.609,0.026 0.722,0.311l134.523,337.827c0.114,0.285 -0.025,0.609 -0.31,0.722c-0.286,0.114 -0.609,-0.026 -0.723,-0.311l-134.523,-337.827Zm4.132,-1.645c-0.113,-0.285 0.026,-0.609 0.311,-0.722c0.285,-0.114 0.609,0.025 0.722,0.31l134.524,337.827c0.113,0.285 -0.026,0.609 -0.311,0.723c-0.285,0.113 -0.609,-0.026 -0.722,-0.311l-134.524,-337.827Zm4.133,-1.646c-0.114,-0.285 0.026,-0.608 0.311,-0.722c0.285,-0.114 0.608,0.026 0.722,0.311l134.523,337.827c0.114,0.285 -0.025,0.608 -0.311,0.722c-0.285,0.114 -0.608,-0.026 -0.722,-0.311l-134.523,-337.827Zm4.132,-1.645c-0.113,-0.285 0.026,-0.609 0.311,-0.723c0.285,-0.113 0.609,0.026 0.722,0.311l134.524,337.827c0.113,0.285 -0.026,0.609 -0.311,0.722c-0.285,0.114 -0.609,-0.025 -0.722,-0.31l-134.524,-337.827Zm4.133,-1.646c-0.114,-0.285 0.025,-0.609 0.311,-0.722c0.285,-0.114 0.608,0.026 0.722,0.311l134.523,337.827c0.114,0.285 -0.026,0.608 -0.311,0.722c-0.285,0.113 -0.608,-0.026 -0.722,-0.311l-134.523,-337.827Zm4.132,-1.645c-0.113,-0.285 0.026,-0.609 0.311,-0.723c0.285,-0.113 0.609,0.026 0.722,0.311l134.524,337.827c0.113,0.285 -0.026,0.609 -0.311,0.722c-0.285,0.114 -0.609,-0.025 -0.722,-0.31l-134.524,-337.827Zm4.133,-1.646c-0.114,-0.285 0.025,-0.609 0.31,-0.722c0.286,-0.114 0.609,0.026 0.723,0.311l134.523,337.827c0.114,0.285 -0.026,0.608 -0.311,0.722c-0.285,0.113 -0.609,-0.026 -0.722,-0.311l-134.523,-337.827Zm4.132,-1.645c-0.114,-0.286 0.026,-0.609 0.311,-0.723c0.285,-0.113 0.609,0.026 0.722,0.311l134.524,337.827c0.113,0.285 -0.026,0.609 -0.311,0.722c-0.285,0.114 -0.609,-0.025 -0.723,-0.311l-134.523,-337.826Zm4.132,-1.646c-0.113,-0.285 0.026,-0.609 0.311,-0.722c0.285,-0.114 0.609,0.026 0.723,0.311l134.523,337.826c0.113,0.286 -0.026,0.609 -0.311,0.723c-0.285,0.113 -0.609,-0.026 -0.722,-0.311l-134.524,-337.827Zm4.133,-1.646c-0.114,-0.285 0.026,-0.608 0.311,-0.722c0.285,-0.113 0.608,0.026 0.722,0.311l134.523,337.827c0.114,0.285 -0.025,0.609 -0.31,0.722c-0.286,0.114 -0.609,-0.026 -0.723,-0.311l-134.523,-337.827Zm4.132,-1.645c-0.113,-0.285 0.026,-0.609 0.311,-0.722c0.285,-0.114 0.609,0.025 0.722,0.311l134.524,337.826c0.113,0.285 -0.026,0.609 -0.311,0.723c-0.285,0.113 -0.609,-0.026 -0.722,-0.311l-134.524,-337.827Zm4.133,-1.646c-0.114,-0.285 0.026,-0.608 0.311,-0.722c0.285,-0.113 0.608,0.026 0.722,0.311l134.523,337.827c0.114,0.285 -0.025,0.609 -0.311,0.722c-0.285,0.114 -0.608,-0.026 -0.722,-0.311l-134.523,-337.827Zm4.132,-1.645c-0.113,-0.285 0.026,-0.609 0.311,-0.722c0.285,-0.114 0.609,0.025 0.722,0.31l134.524,337.827c0.113,0.285 -0.026,0.609 -0.311,0.723c-0.285,0.113 -0.609,-0.026 -0.722,-0.311l-134.524,-337.827Zm4.133,-1.646c-0.114,-0.285 0.025,-0.608 0.311,-0.722c0.285,-0.114 0.608,0.026 0.722,0.311l134.523,337.827c0.114,0.285 -0.026,0.608 -0.311,0.722c-0.285,0.114 -0.608,-0.026 -0.722,-0.311l-134.523,-337.827Zm4.132,-1.645c-0.113,-0.285 0.026,-0.609 0.311,-0.723c0.285,-0.113 0.609,0.026 0.722,0.311l134.524,337.827c0.113,0.285 -0.026,0.609 -0.311,0.722c-0.285,0.114 -0.609,-0.025 -0.723,-0.31l-134.523,-337.827Zm4.133,-1.646c-0.114,-0.285 0.025,-0.609 0.31,-0.722c0.285,-0.114 0.609,0.026 0.723,0.311l134.523,337.827c0.114,0.285 -0.026,0.608 -0.311,0.722c-0.285,0.113 -0.609,-0.026 -0.722,-0.311l-134.523,-337.827Zm4.132,-1.645c-0.114,-0.285 0.026,-0.609 0.311,-0.723c0.285,-0.113 0.609,0.026 0.722,0.311l134.523,337.827c0.114,0.285 -0.025,0.609 -0.31,0.722c-0.285,0.114 -0.609,-0.025 -0.723,-0.31l-134.523,-337.827Zm4.132,-1.646c-0.113,-0.285 0.026,-0.609 0.311,-0.722c0.285,-0.114 0.609,0.026 0.723,0.311l134.523,337.827c0.113,0.285 -0.026,0.608 -0.311,0.722c-0.285,0.113 -0.609,-0.026 -0.722,-0.311l-134.524,-337.827Zm4.133,-1.645c-0.114,-0.286 0.026,-0.609 0.311,-0.723c0.285,-0.113 0.608,0.026 0.722,0.311l134.523,337.827c0.114,0.285 -0.025,0.609 -0.311,0.722c-0.285,0.114 -0.608,-0.025 -0.722,-0.311l-134.523,-337.826Zm4.132,-1.646c-0.113,-0.285 0.026,-0.609 0.311,-0.722c0.285,-0.114 0.609,0.025 0.722,0.311l134.524,337.826c0.113,0.286 -0.026,0.609 -0.311,0.723c-0.285,0.113 -0.609,-0.026 -0.722,-0.311l-134.524,-337.827Zm4.133,-1.646c-0.114,-0.285 0.025,-0.608 0.311,-0.722c0.285,-0.113 0.608,0.026 0.722,0.311l134.523,337.827c0.114,0.285 -0.026,0.609 -0.311,0.722c-0.285,0.114 -0.608,-0.026 -0.722,-0.311l-134.523,-337.827Zm4.132,-1.645c-0.113,-0.285 0.026,-0.609 0.311,-0.722c0.285,-0.114 0.609,0.025 0.722,0.31l134.524,337.827c0.113,0.285 -0.026,0.609 -0.311,0.723c-0.285,0.113 -0.609,-0.026 -0.722,-0.311l-134.524,-337.827Zm4.133,-1.646c-0.114,-0.285 0.025,-0.608 0.31,-0.722c0.286,-0.113 0.609,0.026 0.723,0.311l134.523,337.827c0.114,0.285 -0.026,0.609 -0.311,0.722c-0.285,0.114 -0.608,-0.026 -0.722,-0.311l-134.523,-337.827Zm4.132,-1.645c-0.113,-0.285 0.026,-0.609 0.311,-0.722c0.285,-0.114 0.609,0.025 0.722,0.31l134.524,337.827c0.113,0.285 -0.026,0.609 -0.311,0.723c-0.285,0.113 -0.609,-0.026 -0.723,-0.311l-134.523,-337.827Zm4.132,-1.646c-0.113,-0.285 0.026,-0.608 0.311,-0.722c0.285,-0.114 0.609,0.026 0.723,0.311l134.523,337.827c0.114,0.285 -0.026,0.608 -0.311,0.722c-0.285,0.114 -0.609,-0.026 -0.722,-0.311l-134.524,-337.827Zm4.133,-1.645c-0.114,-0.285 0.026,-0.609 0.311,-0.723c0.285,-0.113 0.609,0.026 0.722,0.311l134.523,337.827c0.114,0.285 -0.025,0.609 -0.31,0.722c-0.286,0.114 -0.609,-0.025 -0.723,-0.31l-134.523,-337.827Zm4.132,-1.646c-0.113,-0.285 0.026,-0.609 0.311,-0.722c0.285,-0.114 0.609,0.026 0.722,0.311l134.524,337.827c0.113,0.285 -0.026,0.608 -0.311,0.722c-0.285,0.113 -0.609,-0.026 -0.722,-0.311l-134.524,-337.827Zm4.133,-1.645c-0.114,-0.285 0.026,-0.609 0.311,-0.723c0.285,-0.113 0.608,0.026 0.722,0.311l134.523,337.827c0.114,0.285 -0.025,0.609 -0.311,0.722c-0.285,0.114 -0.608,-0.025 -0.722,-0.311l-134.523,-337.826Zm4.132,-1.646c-0.113,-0.285 0.026,-0.609 0.311,-0.722c0.285,-0.114 0.609,0.026 0.722,0.311l134.524,337.827c0.113,0.285 -0.026,0.608 -0.311,0.722c-0.285,0.113 -0.609,-0.026 -0.722,-0.311l-134.524,-337.827Zm4.133,-1.645c-0.114,-0.286 0.025,-0.609 0.311,-0.723c0.285,-0.113 0.608,0.026 0.722,0.311l134.523,337.827c0.114,0.285 -0.026,0.609 -0.311,0.722c-0.285,0.114 -0.608,-0.026 -0.722,-0.311l-134.523,-337.826Zm4.132,-1.646c-0.113,-0.285 0.026,-0.609 0.311,-0.722c0.285,-0.114 0.609,0.025 0.722,0.311l134.524,337.826c0.113,0.286 -0.026,0.609 -0.311,0.723c-0.285,0.113 -0.609,-0.026 -0.722,-0.311l-134.524,-337.827Zm4.133,-1.646c-0.114,-0.285 0.025,-0.608 0.31,-0.722c0.286,-0.113 0.609,0.026 0.723,0.311l134.523,337.827c0.114,0.285 -0.026,0.609 -0.311,0.722c-0.285,0.114 -0.609,-0.026 -0.722,-0.311l-134.523,-337.827Zm4.132,-1.645c-0.114,-0.285 0.026,-0.609 0.311,-0.722c0.285,-0.114 0.609,0.025 0.722,0.31l134.523,337.827c0.114,0.285 -0.025,0.609 -0.31,0.723c-0.285,0.113 -0.609,-0.026 -0.723,-0.311l-134.523,-337.827Zm4.132,-1.646c-0.113,-0.285 0.026,-0.608 0.311,-0.722c0.285,-0.113 0.609,0.026 0.723,0.311l134.523,337.827c0.113,0.285 -0.026,0.609 -0.311,0.722c-0.285,0.114 -0.609,-0.026 -0.722,-0.311l-134.524,-337.827Zm4.133,-1.645c-0.114,-0.285 0.026,-0.609 0.311,-0.722c0.285,-0.114 0.608,0.025 0.722,0.31l134.523,337.827c0.114,0.285 -0.025,0.609 -0.31,0.723c-0.286,0.113 -0.609,-0.026 -0.723,-0.311l-134.523,-337.827Zm4.132,-1.646c-0.113,-0.285 0.026,-0.608 0.311,-0.722c0.285,-0.114 0.609,0.026 0.722,0.311l134.524,337.827c0.113,0.285 -0.026,0.608 -0.311,0.722c-0.285,0.114 -0.609,-0.026 -0.722,-0.311l-134.524,-337.827Z" style="fill:#fff;"/></g><path d="M250.455,444.431l76.461,0l-0,33.613c-0,0 -4.29,-6.478 -29.548,-6.478l-11.676,-0l-0,39.109l33.122,-0l-5.481,32.632c0,-0 -2.859,-5.259 -25.973,-5.497l-1.668,-0l-0,51.629c0.715,21.513 6.434,25.337 6.434,25.337l-41.671,0c0,0 5.481,-3.585 6.434,-22.946l0,-124.787c-0.953,-19.28 -6.434,-22.612 -6.434,-22.612Zm188.459,146.328c4.526,20.415 9.528,24.017 9.528,24.017l-41.689,0c0,0 4.526,-3.602 2.621,-23.057l-1.192,-7.205l-31.207,-0l-1.191,7.205c-1.906,19.455 2.62,23.057 2.62,23.057l-41.927,0c-0,0 5.241,-3.602 9.767,-24.017l23.346,-125.359c2.144,-17.633 -2.382,-20.969 -2.382,-20.969l50.503,0c0,0 -4.049,3.098 -2.62,19.063l23.823,127.265Zm-57.889,-33.38l23.108,-0l-11.673,-75.328l-11.435,75.328Zm193.232,-112.948c0,0 -5.719,3.828 -6.434,25.597l0,119.177c0.715,21.748 6.434,25.571 6.434,25.571l-41.676,0c-0,0 5.247,-3.345 6.44,-21.269l-0,-59.267l-31.484,-3.339l-0,60.933c0.954,19.358 6.201,22.942 6.201,22.942l-41.438,0c0,0 5.243,-3.584 6.196,-22.942l-0,-124.437c-0.953,-19.617 -6.196,-22.966 -6.196,-22.966l41.438,0c0,0 -5.247,3.349 -6.201,22.966l-0,36.123l31.484,3.34l-0,-41.138c-1.193,-17.942 -6.44,-21.291 -6.44,-21.291l41.676,0Zm126.295,146.328c4.527,20.415 9.529,24.017 9.529,24.017l-41.689,0c-0,0 4.526,-3.602 2.62,-23.057l-1.191,-7.205l-31.207,-0l-1.191,7.205c-1.906,19.455 2.62,23.057 2.62,23.057l-41.927,0c-0,0 5.241,-3.602 9.767,-24.017l23.346,-125.359c2.144,-17.633 -2.382,-20.969 -2.382,-20.969l50.503,0c0,0 -4.05,3.098 -2.62,19.063l23.822,127.265Zm-57.888,-33.38l23.107,-0l-11.673,-75.328l-11.434,75.328Zm178.221,23.8l0,33.597l-84.563,0l48.832,-143.21l-14.53,-0c-25.25,-0 -29.776,6.462 -29.776,6.462l-0,-33.597l84.563,0l-48.832,143.21l14.769,0c25.25,0 29.537,-6.462 29.537,-6.462Z" style="fill:#fff;"/><path d="M228.656,675.309l-1.117,-6.578c210.172,-35.677 418.5,-35.807 624.963,0.002l-1.14,6.574c-205.718,-35.68 -413.294,-35.546 -622.706,0.002Z" style="fill:#dcad24;"/><path d="M228.656,431.612l-1.117,-6.578c210.172,-35.677 418.5,-35.807 624.963,0.002l-1.14,6.574c-205.718,-35.68 -413.294,-35.547 -622.706,0.002Z" style="fill:#dcad24;"/><path d="M164.583,540l-44.583,-195.037l11.668,-5.219c272.266,-121.787 544.531,-124.131 816.797,0.046l11.535,5.262l-44.416,194.948l44.416,194.948l-11.535,5.262c-272.266,124.177 -544.531,121.833 -816.797,0.046l-11.668,-5.219l44.583,-195.037Zm732.487,-58.905c13.34,-58.55 26.923,-118.166 26.923,-118.166c-255.976,-113.273 -511.951,-111.098 -767.927,0.086l26.985,118.052l25.605,5.853c-0,-0 -5.065,22.158 -12.134,53.08l12.134,53.08l-25.605,5.853c-10.726,46.923 -21.878,95.71 -26.985,118.052c255.975,111.184 511.951,113.359 767.927,0.086l-26.923,-118.166l-25.516,-5.814c-0,0 5.088,-22.336 12.096,-53.091l-12.096,-53.091l25.516,-5.814Z" style="fill:url(#_Linear3);"/><path d="M471.425,722.135c1.495,3.414 2.523,4.023 2.523,4.023l-8.176,-0c0,-0 0.607,-0.563 0,-3.326l-3.738,-10.587l-1.308,2.295l0,6.418c0.094,4.45 1.262,5.2 1.262,5.2l-8.171,-0c0,-0 1.168,-0.75 1.262,-5.2l-0,-23.047c-0.094,-4.404 -1.262,-5.153 -1.262,-5.153l8.171,-0c-0,-0 -1.215,0.796 -1.262,5.567l0,6.174l4.298,-8.046l0,-0.093c1.355,-2.994 0.748,-3.602 0.748,-3.602l8.176,0.047c0,-0 -0.981,0.468 -2.756,3.087l-5.747,10.291l5.98,15.952Zm19.109,-29.377c0,-0 -1.261,0.842 -1.308,5.8l0,21.846c0.047,4.912 1.308,5.754 1.308,5.754l-8.17,-0c-0,-0 1.028,-0.702 1.215,-4.491l-0,-24.372c-0.187,-3.835 -1.215,-4.537 -1.215,-4.537l8.17,-0Zm8.883,-0l17.935,-0l0,6.631c0,-0 -0.888,-1.264 -5.84,-1.264l-0.327,-0l-0,23.072c0.14,4.212 1.261,4.961 1.261,4.961l-8.17,-0c0,-0 1.075,-0.702 1.262,-4.493l-0,-23.54l-0.328,-0c-4.952,-0 -5.793,1.264 -5.793,1.264l0,-6.631Zm37.75,-0.281c3.642,0 6.583,2.941 6.583,6.536l-0,4.439l-6.957,0c-0,0 1.075,-0.701 1.262,-4.626c-0.093,-0.374 -0.467,-0.701 -0.888,-0.701l-3.929,-0c-0.467,-0 -0.888,0.42 -0.888,0.888l-0,20.89c-0,0.514 0.421,0.934 0.888,0.934l3.929,0c0.421,0 0.795,-0.327 0.888,-0.748c-0.187,-3.878 -1.262,-5.514 -1.262,-5.514l6.957,-0l-0,5.328c-0,3.641 -2.941,6.582 -6.583,6.582l-3.929,-0c-3.595,-0 -6.536,-2.941 -6.536,-6.582l0,-20.89c0,-3.595 2.941,-6.536 6.536,-6.536l3.929,0Zm35.923,0.281c0,-0 -1.121,0.75 -1.261,5.019l-0,23.367c0.14,4.264 1.261,5.014 1.261,5.014l-8.171,-0c-0,-0 1.029,-0.656 1.262,-4.171l0,-11.62l-6.173,-0.655l0,11.947c0.188,3.796 1.216,4.499 1.216,4.499l-8.124,-0c-0,-0 1.027,-0.703 1.214,-4.499l0,-24.398c-0.187,-3.847 -1.214,-4.503 -1.214,-4.503l8.124,-0c0,-0 -1.028,0.656 -1.216,4.503l0,7.082l6.173,0.655l0,-8.066c-0.233,-3.518 -1.262,-4.174 -1.262,-4.174l8.171,-0Zm23.828,0.046l0,6.583c0,0 -0.841,-1.262 -5.793,-1.262l-2.243,-0l0,7.621l6.494,0l-1.121,6.401c0,0 -0.514,-1.033 -5.046,-1.08l-0.327,-0l0,9.77l2.944,0c4.345,-0.141 5.092,-1.268 5.092,-1.268l0,6.589l-14.945,-0c0,-0 1.028,-0.701 1.215,-4.527l-0,-24.3c-0.187,-3.873 -1.215,-4.573 -1.215,-4.573l14.945,0.046Zm29.294,-0.046c0,-0 -1.168,0.749 -1.261,5.146l-0,23.155c0.093,4.35 1.261,5.099 1.261,5.099l-6.769,-0l-6.266,-17.823l0,13.332c0.187,3.789 1.263,4.491 1.263,4.491l-8.172,-0c0,-0 1.075,-0.702 1.262,-4.491l-0,-24.418c-0.187,-3.789 -1.262,-4.444 -1.262,-4.444l6.722,-0.047l6.313,17.801l0,-13.679c-0.28,-3.513 -1.262,-4.122 -1.262,-4.122l8.171,-0Z" style="fill:#fff;"/><path id="path1" d="M708.519,727.355c-1.77,-0.788 -3.28,-3.143 -3.28,-5.117c-0,-2.247 2.616,-4.905 4.843,-4.919c2.024,-0.013 3.3,2.326 2.423,4.443c-0.723,1.744 -2.914,2.009 -4.063,0.491c-0.388,-0.512 -0.441,-0.51 -0.644,0.019c-0.121,0.318 -0.032,1.034 0.199,1.592c0.903,2.18 4.882,2.119 6.232,-0.095c1.353,-2.218 0.559,-6.679 -1.758,-9.877c-1.806,-2.494 -14.063,-11.723 -14.889,-11.212c-0.172,0.106 0.01,0.685 0.406,1.286c1.317,1.997 3.37,6.251 3.933,8.148c0.874,2.943 0.739,6.424 -0.334,8.576c-2.737,5.492 -10.107,6.786 -13.792,2.421c-3.674,-4.353 -2.595,-10.916 2.055,-12.503c2.491,-0.85 4.871,0.621 5.75,3.552c0.496,1.656 0.217,2.94 -0.875,4.032c-1.715,1.715 -4.015,1.532 -4.933,-0.393c-0.524,-1.099 -0.531,-1.316 -0.066,-2.149c0.414,-0.739 0.811,-0.947 1.974,-1.032c1.552,-0.113 1.708,-0.295 1.025,-1.19c-1.709,-2.237 -5.781,0.689 -5.782,4.155c-0.002,3.954 4.393,7.172 8.116,5.943c3.106,-1.025 5.055,-3.941 5.04,-7.541c-0.033,-7.58 -7.09,-16.087 -15.07,-18.166c-2.713,-0.706 -4.333,-0.666 -7.415,0.184c-4.969,1.371 -6.852,2.922 -10.929,9.006c-4.758,7.102 -8.673,10.876 -13.237,12.759c-2.846,1.174 -7.409,1.139 -10.019,-0.078c-4.154,-1.937 -6.189,-4.879 -6.195,-8.954c-0.006,-3.864 2.257,-7.249 5.493,-8.218c1.952,-0.585 3.105,-0.482 5.131,0.462c1.481,0.689 1.951,1.128 2.495,2.327c0.827,1.82 0.843,2.423 0.11,3.968c-1.183,2.493 -4.131,3.269 -5.951,1.565c-1.476,-1.382 -1.638,-2.309 -0.587,-3.36c1.095,-1.095 1.619,-1.091 2.944,0.025c0.878,0.739 1.097,0.802 1.264,0.365c0.366,-0.952 -0.014,-1.739 -1.239,-2.569c-2.817,-1.909 -6.848,0.835 -7.16,4.874c-0.119,1.534 0.01,2.018 0.906,3.413c1.396,2.171 3.732,3.383 6.504,3.373c4.23,-0.016 6.961,-2.289 11.578,-9.636c4.106,-6.533 7.137,-9.671 11.304,-11.703c3.859,-1.882 6.343,-2.475 10.343,-2.469c7.199,0.012 11.415,1.866 22.224,9.777c4.697,3.437 7.396,5.017 10.689,6.257c5.213,1.962 10.088,0.447 8.869,-2.757c-0.502,-1.321 -1.362,-1.473 -2.222,-0.394c-0.838,1.051 -2.567,1.256 -3.418,0.406c-0.825,-0.825 -1.049,-2.509 -0.455,-3.416c1.337,-2.04 4.391,-2 6.476,0.084c3.141,3.141 2.414,7.626 -1.49,9.188c-1.806,0.723 -1.566,0.894 2.895,2.063c8.656,2.267 15.648,2.019 21.175,-0.752c4.217,-2.114 6.127,-4.783 6.127,-8.566c0.001,-3.879 -2.061,-6.368 -5.277,-6.37c-1.853,-0.002 -4.311,1.145 -5.266,2.457c-0.928,1.275 -0.875,3.38 0.104,4.173c1.183,0.957 1.442,0.766 1.195,-0.88c-0.266,-1.777 0.36,-2.645 1.908,-2.645c1.286,0 2.417,1.412 2.417,3.016c0,2.99 -4.274,4.726 -6.948,2.822c-0.905,-0.644 -2.029,-2.882 -2.026,-4.032c0.008,-2.389 1.812,-5.083 4.281,-6.394c1.108,-0.588 2.012,-0.752 4.175,-0.757c2.411,-0.005 2.972,0.118 4.41,0.963c3.092,1.817 4.213,4.839 3.637,9.803c-0.734,6.33 -5.603,9.963 -14.486,10.81c-5.8,0.553 -14.471,-0.603 -20.057,-2.674c-1.295,-0.48 -2.454,-0.774 -2.574,-0.654c-0.12,0.12 -0.037,1.007 0.186,1.97c0.983,4.262 -0.006,8.309 -2.459,10.055c-1.175,0.837 -4.664,1.218 -5.94,0.65l-0,-0.001Zm-47.783,-15.453c0.855,-0.916 2.979,-3.775 4.719,-6.353c2.889,-4.279 5.017,-6.705 7.333,-8.359c0.475,-0.339 -0.302,-0.03 -1.726,0.688c-3.774,1.901 -6.503,4.79 -9.399,9.948c-1.278,2.275 -2.665,4.662 -3.084,5.304c-0.717,1.099 -0.721,1.146 -0.08,0.803c0.375,-0.2 1.382,-1.114 2.237,-2.031l-0,0Z" style="fill:#fff;fill-rule:nonzero;"/><path id="path11" serif:id="path1" d="M371.511,727.355c1.77,-0.788 3.28,-3.143 3.28,-5.117c-0,-2.247 -2.616,-4.905 -4.843,-4.919c-2.025,-0.013 -3.3,2.326 -2.423,4.443c0.722,1.744 2.914,2.009 4.063,0.491c0.387,-0.512 0.44,-0.51 0.643,0.019c0.122,0.318 0.033,1.034 -0.199,1.592c-0.903,2.18 -4.881,2.119 -6.232,-0.095c-1.352,-2.218 -0.558,-6.679 1.758,-9.877c1.807,-2.494 14.063,-11.723 14.89,-11.212c0.172,0.106 -0.011,0.685 -0.407,1.286c-1.316,1.997 -3.369,6.251 -3.933,8.148c-0.874,2.943 -0.738,6.424 0.334,8.576c2.737,5.492 10.108,6.786 13.792,2.421c3.674,-4.353 2.596,-10.916 -2.054,-12.503c-2.491,-0.85 -4.872,0.621 -5.75,3.552c-0.496,1.656 -0.218,2.94 0.874,4.032c1.715,1.715 4.016,1.532 4.934,-0.393c0.524,-1.099 0.53,-1.316 0.065,-2.149c-0.413,-0.739 -0.811,-0.947 -1.973,-1.032c-1.552,-0.113 -1.709,-0.295 -1.025,-1.19c1.709,-2.237 5.78,0.689 5.782,4.155c0.002,3.954 -4.393,7.172 -8.116,5.943c-3.107,-1.025 -5.056,-3.941 -5.04,-7.541c0.033,-7.58 7.09,-16.087 15.069,-18.166c2.713,-0.706 4.333,-0.666 7.415,0.184c4.97,1.371 6.853,2.922 10.929,9.006c4.759,7.102 8.674,10.876 13.237,12.759c2.846,1.174 7.41,1.139 10.02,-0.078c4.153,-1.937 6.189,-4.879 6.195,-8.954c0.006,-3.864 -2.257,-7.249 -5.493,-8.218c-1.953,-0.585 -3.105,-0.482 -5.132,0.462c-1.48,0.689 -1.951,1.128 -2.495,2.327c-0.826,1.82 -0.843,2.423 -0.109,3.968c1.183,2.493 4.131,3.269 5.95,1.565c1.477,-1.382 1.639,-2.309 0.588,-3.36c-1.096,-1.095 -1.619,-1.091 -2.945,0.025c-0.878,0.739 -1.096,0.802 -1.264,0.365c-0.365,-0.952 0.015,-1.739 1.239,-2.569c2.818,-1.909 6.848,0.835 7.161,4.874c0.118,1.534 -0.01,2.018 -0.907,3.413c-1.395,2.171 -3.732,3.383 -6.503,3.373c-4.23,-0.016 -6.961,-2.289 -11.579,-9.636c-4.105,-6.533 -7.136,-9.671 -11.304,-11.703c-3.859,-1.882 -6.342,-2.475 -10.343,-2.469c-7.199,0.012 -11.415,1.866 -22.223,9.777c-4.697,3.437 -7.396,5.017 -10.689,6.257c-5.214,1.962 -10.088,0.447 -8.87,-2.757c0.502,-1.321 1.362,-1.473 2.223,-0.394c0.838,1.051 2.567,1.256 3.417,0.406c0.825,-0.825 1.05,-2.509 0.455,-3.416c-1.336,-2.04 -4.391,-2 -6.476,0.084c-3.141,3.141 -2.413,7.626 1.491,9.188c1.806,0.723 1.565,0.894 -2.895,2.063c-8.656,2.267 -15.649,2.019 -21.175,-0.752c-4.218,-2.114 -6.127,-4.783 -6.128,-8.566c-0,-3.879 2.062,-6.368 5.278,-6.37c1.853,-0.002 4.311,1.145 5.265,2.457c0.928,1.275 0.875,3.38 -0.104,4.173c-1.182,0.957 -1.442,0.766 -1.195,-0.88c0.267,-1.777 -0.36,-2.645 -1.908,-2.645c-1.285,0 -2.417,1.412 -2.417,3.016c0,2.99 4.275,4.726 6.948,2.822c0.906,-0.644 2.03,-2.882 2.026,-4.032c-0.008,-2.389 -1.811,-5.083 -4.281,-6.394c-1.107,-0.588 -2.011,-0.752 -4.175,-0.757c-2.41,-0.005 -2.971,0.118 -4.409,0.963c-3.092,1.817 -4.213,4.839 -3.637,9.803c0.734,6.33 5.602,9.963 14.485,10.81c5.801,0.553 14.471,-0.603 20.058,-2.674c1.295,-0.48 2.453,-0.774 2.573,-0.654c0.121,0.12 0.037,1.007 -0.185,1.97c-0.984,4.262 0.005,8.309 2.459,10.055c1.174,0.837 4.664,1.218 5.94,0.65l0,-0.001Zm47.783,-15.453c-0.856,-0.916 -2.979,-3.775 -4.72,-6.353c-2.888,-4.279 -5.017,-6.705 -7.333,-8.359c-0.474,-0.339 0.303,-0.03 1.727,0.688c3.773,1.901 6.503,4.79 9.399,9.948c1.277,2.275 2.665,4.662 3.084,5.304c0.716,1.099 0.721,1.146 0.079,0.803c-0.375,-0.2 -1.381,-1.114 -2.236,-2.031l-0,0Z" style="fill:#fff;fill-rule:nonzero;"/></g><defs><linearGradient id="_Linear1" x1="0" y1="0" x2="1" y2="0" gradientUnits="userSpaceOnUse" gradientTransform="matrix(714.817,376.519,-376.519,714.817,184.517,351.107)"><stop offset="0" style="stop-color:#245d1c;stop-opacity:1"/><stop offset="1" style="stop-color:#20341d;stop-opacity:1"/></linearGradient><linearGradient id="_Linear3" x1="0" y1="0" x2="1" y2="0" gradientUnits="userSpaceOnUse" gradientTransform="matrix(806.22,203.996,-203.996,806.22,122.276,392.679)"><stop offset="0" style="stop-color:#e7c76a;stop-opacity:1"/><stop offset="0.58" style="stop-color:#dcad23;stop-opacity:1"/><stop offset="0.68" style="stop-color:#987303;stop-opacity:1"/><stop offset="0.82" style="stop-color:#dcad23;stop-opacity:1"/><stop offset="1" style="stop-color:#dcad23;stop-opacity:1"/></linearGradient></defs></svg>