<?xml version="1.0" encoding="UTF-8" standalone="no"?><!DOCTYPE svg PUBLIC "-//W3C//DTD SVG 1.1//EN" "http://www.w3.org/Graphics/SVG/1.1/DTD/svg11.dtd"><svg width="100%" height="100%" viewBox="0 0 1080 629" version="1.1" xmlns="http://www.w3.org/2000/svg" xmlns:xlink="http://www.w3.org/1999/xlink" xml:space="preserve" xmlns:serif="http://www.serif.com/" style="fill-rule:evenodd;clip-rule:evenodd;stroke-linejoin:round;stroke-miterlimit:2;"><rect id="Logo-Full-color-top-btm" serif:id="Logo Full color top btm" x="0" y="0.274" width="1080" height="628.168" style="fill:none;"/><path d="M599.596,279.657l-173.283,0l0,-15.255c0,-21.429 8.513,-41.981 23.666,-57.134c15.153,-15.153 35.705,-23.665 57.134,-23.665l76.521,0c-0,8.643 -3.433,16.931 -9.545,23.042c-6.111,6.112 -14.399,9.545 -23.042,9.545l-43.934,-0c-12.787,-0 -25.05,5.079 -34.091,14.121c-4.694,4.694 -8.32,10.256 -10.722,16.308c0.158,-0.005 0.317,-0.007 0.476,-0.007l136.82,-0c5.581,-0 10.934,-2.218 14.881,-6.164c3.947,-3.947 6.164,-9.3 6.164,-14.882l0,-72.385l-140.228,-0c-5.582,-0 -10.935,2.217 -14.881,6.164c-3.947,3.947 -6.164,9.299 -6.164,14.881l-0,15.936c-5.258,3.381 -10.181,7.337 -14.67,11.826c-7.813,7.813 -14.01,16.94 -18.376,26.862l0,-54.624c0,-14.346 5.699,-28.104 15.843,-38.248c10.144,-10.144 23.902,-15.843 38.248,-15.843l173.274,0l-0,105.431c-0,14.346 -5.699,28.104 -15.843,38.248c-10.144,10.144 -23.902,15.843 -38.248,15.843Zm-474.596,187.642l0,-95.371l50.196,-0c17.761,-0 32.112,4.826 43.052,14.479c10.94,9.524 16.41,22.395 16.41,38.612c-0,16.217 -5.47,29.152 -16.41,38.805c-10.94,9.524 -25.291,14.286 -43.052,14.286l-39.385,0c-2.96,0 -5.534,-1.029 -7.722,-3.089c-2.059,-2.188 -3.089,-4.762 -3.089,-7.722Zm30.117,-13.128l18.92,-0c9.138,-0 16.41,-2.574 21.816,-7.722c5.534,-5.277 8.301,-12.421 8.301,-21.43c0,-9.138 -2.767,-16.281 -8.301,-21.43c-5.406,-5.148 -12.678,-7.722 -21.816,-7.722l-40.349,-0l21.429,11.583l0,46.721Zm171.919,-17.182c-0,0.386 -0.129,2.767 -0.386,7.143l-59.849,-0c0.386,1.158 0.837,2.252 1.351,3.282c3.347,6.693 9.653,10.039 18.92,10.039c7.079,-0 13.386,-2.381 18.92,-7.143l10.811,11.197c1.288,1.287 1.867,2.896 1.738,4.827c-0.129,1.802 -0.965,3.282 -2.51,4.44c-7.465,5.792 -17.439,8.688 -29.924,8.688c-14.415,-0 -26.063,-3.99 -34.944,-11.97c-8.881,-7.98 -13.321,-18.212 -13.321,-30.696c0,-12.356 4.247,-22.524 12.742,-30.504c8.623,-7.98 19.435,-11.97 32.434,-11.97c12.613,0 23.103,3.862 31.469,11.584c8.366,7.594 12.549,17.955 12.549,31.083Zm-59.656,-11.777c-0.62,1.738 -0.562,3.861 -0.562,3.861l33.189,0c-0.772,-4.376 -2.638,-7.787 -5.598,-10.232c-2.961,-2.574 -6.693,-3.861 -11.198,-3.861c-7.722,-0 -12.999,3.411 -15.831,10.232Zm101.55,-30.89c28.058,0 42.087,12.678 42.087,38.033l-0,45.755l-20.079,0c-1.93,0 -3.539,-0.643 -4.826,-1.93c-1.287,-1.416 -1.931,-3.089 -1.931,-5.02l0,-3.668c-4.247,7.98 -12.356,11.97 -24.325,11.97c-9.653,-0 -17.183,-2.381 -22.588,-7.143c-5.406,-4.763 -8.109,-10.876 -8.109,-18.341c0,-7.851 2.961,-13.9 8.881,-18.148c6.049,-4.247 15.252,-6.371 27.608,-6.371l15.658,0c0,0 0.108,-3.861 -0.021,-4.247c-1.93,-5.921 -7.465,-8.881 -16.603,-8.881c-4.762,0 -9.524,0.901 -14.286,2.703c-2.446,1.03 -4.891,1.094 -7.336,0.193c-2.317,-0.901 -4.055,-2.51 -5.213,-4.826l-5.213,-10.426c4.634,-3.089 10.168,-5.47 16.603,-7.143c6.565,-1.673 13.129,-2.51 19.693,-2.51Zm-0.966,66.799c7.208,0 11.906,-3.153 14.094,-9.46l-0,-7.143l-12.356,-0c-8.366,-0 -12.549,2.767 -12.549,8.302c-0,2.445 0.901,4.44 2.703,5.984c1.93,1.545 4.633,2.317 8.108,2.317Zm48.025,-95.758l21.043,0c2.188,0 3.99,0.773 5.406,2.317c1.545,1.545 2.317,3.347 2.317,5.406l-0,105.024l-21.816,0c-1.93,0 -3.604,-0.643 -5.019,-1.93c-1.288,-1.416 -1.931,-3.089 -1.931,-5.02l-0,-105.797Zm84.485,6.565c14.416,-0 25.87,3.539 34.365,10.618c8.495,6.95 12.742,16.474 12.742,28.573c-0,12.098 -4.247,21.687 -12.742,28.766c-8.495,6.95 -19.949,10.425 -34.365,10.425l-18.533,-0l-0,16.989c-0,2.96 -1.094,5.534 -3.282,7.722c-2.06,2.06 -4.634,3.089 -7.723,3.089l-19.113,0l0,-106.182l48.651,-0Zm-1.93,54.635c6.178,0 10.811,-1.287 13.9,-3.861c3.218,-2.703 4.827,-6.564 4.827,-11.583c-0,-5.02 -1.609,-8.881 -4.827,-11.584c-3.089,-2.703 -7.722,-4.054 -13.9,-4.054l-35.716,-0l19.113,7.915l-0,23.167l16.603,0Zm325.112,-30.889l0,73.363c0,2.445 -0.901,4.569 -2.703,6.37c-1.801,1.802 -3.925,2.703 -6.371,2.703l-18.533,0l9.653,-21.043c-5.406,7.98 -11.069,13.707 -16.99,17.182c-5.92,3.475 -11.583,5.213 -16.989,5.213c-10.682,-0 -19.177,-3.154 -25.484,-9.46c-6.306,-6.307 -9.46,-15.702 -9.46,-28.187l0,-45.948l21.237,-0c2.188,-0 3.99,0.708 5.406,2.124c1.415,1.415 2.123,3.217 2.123,5.405l0,33.593c0,11.841 4.569,17.761 13.708,17.761c4.633,0 8.365,-1.544 11.197,-4.633c2.832,-3.218 4.247,-8.109 4.247,-14.673l0,-29.924c0,-2.703 0.966,-5.02 2.896,-6.95c1.931,-1.931 4.248,-2.896 6.95,-2.896l19.113,-0Zm56.178,-1.352c11.455,0 21.044,3.926 28.766,11.777c7.722,7.722 11.584,18.019 11.584,30.89c-0,12.742 -3.862,23.038 -11.584,30.889c-7.722,7.723 -17.311,11.584 -28.766,11.584c-9.653,-0 -17.311,-2.896 -22.974,-8.688l-0,28.766c-0,2.188 -0.772,4.054 -2.317,5.599c-1.544,1.544 -3.411,2.316 -5.599,2.316l-20.85,0l0,-102.128c0,-2.574 0.901,-4.762 2.703,-6.564c1.93,-1.931 4.247,-2.896 6.95,-2.896l17.762,-0l-14.094,19.885c12.742,-14.286 25.548,-21.43 38.419,-21.43Zm-18.534,56.953c3.347,3.475 7.53,5.213 12.549,5.213c5.02,-0 9.138,-1.738 12.356,-5.213c3.218,-3.475 4.826,-8.237 4.826,-14.286c0,-6.05 -1.608,-10.812 -4.826,-14.287c-3.218,-3.604 -7.336,-5.405 -12.356,-5.405c-5.019,-0 -9.202,1.801 -12.549,5.405c-3.217,3.475 -4.826,8.237 -4.826,14.287c-0,6.049 1.609,10.811 4.826,14.286Zm-220.839,-7.022c-1.261,9.656 -5.504,17.778 -12.728,24.365c-8.624,7.98 -19.692,11.97 -33.207,11.97c-13.514,-0 -24.647,-3.99 -33.399,-11.97c-8.752,-8.108 -13.128,-18.34 -13.128,-30.696c0,-12.356 4.376,-22.524 13.128,-30.504c8.752,-7.979 19.885,-11.969 33.399,-11.969c13.515,-0 24.583,3.99 33.207,11.969c7.217,6.581 11.459,14.65 12.724,24.207c0.269,2.031 0.404,4.131 0.404,6.297c-0,2.179 -0.134,4.289 -0.4,6.331Zm-45.935,13.361c5.02,-0 9.139,-1.738 12.356,-5.213c3.218,-3.475 4.827,-8.301 4.827,-14.479c-0,-6.049 -1.609,-10.812 -4.827,-14.287c-3.217,-3.475 -7.336,-5.212 -12.356,-5.212c-5.019,-0 -9.202,1.737 -12.548,5.212c-3.218,3.475 -4.827,8.238 -4.827,14.287c0,6.049 1.609,10.875 4.827,14.479c3.346,3.475 7.529,5.213 12.548,5.213Zm48.416,-35.636c-0.579,-1.662 -1.256,-3.275 -2.032,-4.839c-0.549,-1.082 -0.836,-2.279 -0.836,-3.494c-0.02,-4.953 -0.02,-18.096 -0.02,-18.096c-0,-2.574 0.901,-4.762 2.702,-6.564c1.931,-1.93 4.248,-2.896 6.951,-2.896l17.761,0l0.039,10.997l-1.6,2.241c5.954,-2.374 12.617,-3.561 19.989,-3.561c0.379,0 0.757,0.003 1.133,0.009c13.001,0.218 23.692,4.205 32.073,11.961c7.217,6.58 11.458,14.648 12.724,24.203c0.211,1.988 0.317,4.047 0.317,6.176c0,2.95 -0.207,5.769 -0.621,8.457c-1.56,8.783 -5.7,16.237 -12.42,22.364c-3.262,3.018 -6.874,5.466 -10.836,7.343c-4.799,2.273 -10.111,3.708 -15.936,4.306c-2.079,0.214 -4.224,0.32 -6.434,0.32c-6.171,0 -11.845,-0.832 -17.023,-2.495c-0.053,8.485 -0.053,22.256 -0.053,22.256c-0,2.188 -0.773,4.054 -2.317,5.599c-1.545,1.544 -3.411,2.317 -5.599,2.317l-20.85,-0l-0,-46.227c-0,-1.214 0.285,-2.41 0.832,-3.492c0.791,-1.59 1.48,-3.232 2.068,-4.927c1.698,-4.901 2.547,-10.24 2.547,-16.014c0,-5.741 -0.854,-11.055 -2.559,-15.944Zm43.249,-3.552c-0.127,-0.002 -0.254,-0.003 -0.382,-0.003c-5.02,-0 -9.203,1.802 -12.549,5.405c-3.218,3.476 -4.827,8.238 -4.827,14.287c0,3.771 0.626,7.042 1.876,9.812c0.766,1.785 1.779,3.382 3.038,4.792c3.346,3.475 7.529,5.212 12.549,5.212c2.849,0 5.408,-0.56 7.676,-1.679c2.004,-0.868 3.792,-2.152 5.365,-3.851c3.217,-3.475 4.826,-8.301 4.826,-14.479c0,-6.049 -1.609,-10.812 -4.826,-14.287c-3.218,-3.475 -7.336,-5.212 -12.356,-5.212c-0.13,-0 -0.26,0.001 -0.39,0.003Z" style="fill:#3db549;"/></svg>