<?xml version="1.0" encoding="UTF-8" standalone="no"?><!DOCTYPE svg PUBLIC "-//W3C//DTD SVG 1.1//EN" "http://www.w3.org/Graphics/SVG/1.1/DTD/svg11.dtd"><svg width="100%" height="100%" viewBox="0 0 1080 1080" version="1.1" xmlns="http://www.w3.org/2000/svg" xmlns:xlink="http://www.w3.org/1999/xlink" xml:space="preserve" xmlns:serif="http://www.serif.com/" style="fill-rule:evenodd;clip-rule:evenodd;stroke-linejoin:round;stroke-miterlimit:2;"><rect id="Logo-full-color-english" serif:id="Logo full color english" x="0" y="0" width="1080" height="1080" style="fill:none;"/><g id="Logo-full-color-english1" serif:id="Logo full color english"><path d="M399.231,735.491c3.035,0 5.602,3.035 7.587,8.988c1.634,5.485 2.451,11.788 2.451,18.675c-0,8.17 -0.934,15.29 -2.801,21.242c-2.685,7.937 -5.72,11.906 -9.104,11.906c-2.685,-0 -4.903,-2.335 -6.42,-7.003c-1.751,-5.486 -2.568,-12.139 -2.568,-20.193c0,-9.804 1.167,-18.091 3.385,-24.744c1.984,-5.953 4.552,-8.871 7.47,-8.871Zm24.511,-45.637c-4.786,0 -8.754,1.985 -11.905,5.953c-1.751,2.685 -2.685,5.369 -2.685,8.17l0,31.398c-3.035,-4.086 -5.486,-6.537 -7.236,-7.587c-2.685,-1.868 -6.77,-2.801 -12.256,-2.801c-4.785,-0 -9.921,2.568 -15.29,7.586c-2.918,2.918 -5.252,5.836 -7.237,8.988c-4.668,7.82 -7.003,15.99 -7.003,24.277c0,7.704 1.401,14.823 4.319,21.36c3.268,7.236 7.703,12.605 13.189,16.107c3.852,2.218 7.82,3.385 11.905,3.385c7.587,-0 14.357,-3.735 20.309,-11.089c0.467,1.751 1.518,3.619 3.035,5.486c2.918,3.152 6.536,4.786 10.738,4.786l14.24,-0l-0,-116.019l-14.123,0Z" style="fill:#fcaf26;fill-rule:nonzero;"/><path id="green" d="M508.731,242.144c-2.866,2.517 -11.11,8.616 -25.993,12.44c-8.941,2.297 -23.934,7.803 -28.329,10.149c-14.216,7.589 -19.902,13.047 -25.165,19.562c-7.91,9.793 -12.157,18.911 -15.509,25.357c0.913,-3.255 3.054,-17.071 18.688,-34.343c7.317,-8.083 22.758,-16.488 35.811,-20.058c14.999,-4.101 34.422,-8.308 40.497,-13.107Zm0,-0c0.67,-0.588 1.046,-0.981 1.145,-1.103c-0.3,0.371 -0.684,0.739 -1.145,1.103Zm-81.346,83.965c-3.997,12.041 2.063,30.758 2.063,30.758c-6.589,-8.197 -8.567,-19.723 -8.153,-27.555c0.472,-8.959 6.533,-18.271 15.838,-24.005c13.333,-8.215 35.628,-12.68 49.432,-15.728c20.01,-4.416 29.704,-12.042 37.142,-23.403c3.917,-5.982 13.346,-23.252 14.426,-27.762c-2.469,10.315 -4.081,19.346 -16.194,37.795c-6.462,9.843 -18.52,15.884 -31.541,18.711c-10.048,2.181 -20.419,3.338 -36.311,7.382c-13.166,3.351 -22.991,12.628 -26.702,23.807Z" style="fill:#457243;"/><path id="kernels" d="M531.742,240.693c-2.187,4.824 -6.351,14.808 -7.256,16.337c-1.102,1.849 -1.509,3.114 -2.944,2.781c-1.501,-0.348 -4.582,-0.739 -5.392,-0.84c6.622,-6.219 17.369,-22.786 17.442,-22.69l-1.85,4.412Zm-92.048,42.264c0.174,1.421 0.298,4.058 0.177,6.317c-0.037,0.681 -0.839,1.297 -1.41,1.791c-4.353,3.77 -7.737,6.735 -11.398,11.21c-3.256,3.978 -4.335,7.507 -4.335,7.507c0,0 3.908,-5.917 9.993,-10.847c4.814,-3.901 10.487,-6.03 11.476,-6.164c3.016,-0.406 5.46,0.383 8.105,1.039c2.41,0.598 2.761,1.047 2.027,1.226c-6.335,1.549 -17.136,5.06 -26.048,13.429c-11.662,10.951 -10.317,24.733 -10.317,24.733c-0,0 -3.436,-9.7 -1.046,-19.345c2.718,-10.966 8.925,-20.77 21.646,-31.081c0,0 1.021,-0.707 1.13,0.185Zm68.063,-28.171c-0.134,-1.473 -0.417,-2.755 -0.296,-4.006c0.049,-0.577 0.803,-1.198 1.367,-1.63c8.488,-6.505 12.323,-9.838 16.286,-15.018c-0.471,4.394 -9.767,16.411 -17.357,20.654Zm-31.478,22.852c1.951,-1.003 3.768,-2.093 6.181,-1.337c4.86,1.528 9.82,2.768 15.165,4.231c-3.454,1.169 -6.346,2.254 -9.637,1.065c-3.846,-1.385 -7.869,-2.294 -11.818,-3.405c0.036,-0.181 0.072,-0.374 0.109,-0.554Zm0.351,10.047c-3.726,1.724 -7.118,1.655 -10.629,0.457c-3.055,-1.04 -6.243,-1.718 -9.799,-2.666c2.444,-1.324 4.301,-2.079 6.673,-1.362c4.459,1.345 9.024,2.364 13.755,3.571Zm-10.168,-6.265c1.747,-1.071 3.478,-1.794 5.675,-1.176c4.649,1.298 9.368,2.386 14.334,3.632c-3.602,1.138 -6.767,2.042 -10.306,0.683c-3.105,-1.194 -6.517,-1.666 -9.798,-2.458c0.037,-0.228 0.065,-0.452 0.095,-0.681Zm-19.34,8.164c1.849,-1.399 3.799,-2.052 6.175,-1.455c4.265,1.07 8.596,1.9 13.352,2.931c-3.01,1.187 -5.474,2.261 -8.323,1.417c-3.676,-1.09 -7.425,-1.928 -11.204,-2.893Zm-4.03,-2.595c0.09,-2.836 0.144,-5.138 0.269,-7.444c0.016,-0.307 0.329,-0.7 0.614,-0.886c1.562,-1.006 3.16,-1.957 5.169,-3.182c-0.069,2.797 -0.118,5.227 -0.21,7.66c-0.006,0.22 -0.249,0.511 -0.46,0.644c-1.629,0.995 -3.271,1.953 -5.382,3.208Zm42.317,-13.197c2.451,-1.043 4.806,-2.033 7.357,-1.385c4.539,1.151 9.061,2.38 13.609,3.577c-3.122,2.372 -6.281,2.416 -9.664,1.223c-3.665,-1.272 -7.439,-2.255 -11.302,-3.415Zm9.984,-3.285c2.103,-1.16 4.127,-2.263 6.438,-1.847c4.116,0.763 8.214,1.593 12.341,2.397c-2.604,2.469 -5.409,2.734 -8.498,1.865c-3.346,-0.951 -6.765,-1.61 -10.281,-2.415Zm8.891,-3.732c1.601,-0.91 3.139,-1.793 4.972,-1.621c3.259,0.299 6.513,0.647 9.789,0.982c-1.937,1.844 -4.124,2.184 -6.587,1.747c-2.67,-0.471 -5.381,-0.739 -8.174,-1.108Zm6.897,-4.204c1.094,-0.807 2.145,-1.59 3.446,-1.441c2.312,0.26 4.622,0.562 6.948,0.853c-1.296,1.633 -2.827,1.936 -4.582,1.554c-1.903,-0.412 -3.826,-0.645 -5.812,-0.966Zm-29.114,5.701c0.009,-2.841 -0.242,-5.712 -0.157,-8.219c0.014,-0.415 0.446,-0.989 0.825,-1.179c1.271,-0.651 2.61,-1.166 4.307,-1.892c-0.026,2.934 -0.033,5.605 -0.091,8.269c0,0.222 -0.261,0.556 -0.475,0.652c-1.438,0.663 -2.674,1.628 -4.409,2.369Zm-19.372,8.51c-0.029,-3.06 0.153,-5.333 0.173,-7.987c0.004,-0.353 0.042,-1.288 0.315,-1.431c1.372,-0.71 2.788,-1.318 4.618,-2.159c-0.022,3.557 -0.016,6.27 -0.093,8.683c-0.013,0.361 -0.497,0.841 -0.858,1.015c-1.236,0.632 -2.515,1.15 -4.155,1.879Zm-9.647,4.851c0.022,-2.961 0.019,-5.441 0.086,-7.926c0.008,-0.353 0.521,-0.472 0.803,-0.649c1.447,-0.952 2.941,-1.821 4.747,-2.906c-0.011,2.833 -0.206,4.877 -0.275,7.296c-0.01,0.395 -0.335,0.933 -0.65,1.156c-1.394,0.965 -2.833,1.836 -4.711,3.029Zm24.418,-20.777c0.013,3.093 0.276,6.067 0.218,8.668c-0.007,0.37 -0.404,0.907 -0.738,1.075c-1.286,0.66 -2.839,0.821 -4.514,1.563c0.027,-2.671 0.03,-5.402 0.112,-8.544c0.002,-0.267 0.333,-0.648 0.592,-0.781c1.287,-0.635 2.6,-1.199 4.33,-1.981Zm18.51,-6.847c0.052,2.519 0.135,4.812 0.115,7.114c-0.001,0.343 -0.417,0.846 -0.749,1.013c-1.299,0.614 -2.635,1.119 -4.244,1.785c-0.026,-2.569 -0.079,-4.918 -0.041,-7.263c0.006,-0.36 0.375,-0.901 0.693,-1.042c1.303,-0.574 2.649,-1.027 4.226,-1.607Zm3.872,5.537c-0.048,-2.102 -0.126,-3.842 -0.101,-5.58c0.005,-0.471 0.233,-1.234 0.497,-1.366c1.21,-0.615 2.46,-1.063 3.874,-1.641c0.158,1.869 0.352,3.464 0.395,5.064c0.007,0.471 -0.33,1.218 -0.652,1.419c-1.225,0.752 -2.499,1.332 -4.013,2.104Z" style="fill:#f38825;"/><path id="brown" d="M538.877,249.903c101.757,0.402 184.246,83.139 184.246,184.989c0,102.099 -82.891,184.991 -184.99,184.991c-102.1,-0 -184.991,-82.892 -184.991,-184.991c-0,-54.106 23.278,-102.817 60.358,-136.657c-1.932,4.881 -2.656,8.43 -3.089,10.117c-32.204,32.503 -52.105,77.216 -52.105,126.54c-0,99.249 80.577,179.827 179.827,179.827c99.249,0 179.826,-80.578 179.826,-179.827c0,-99.249 -80.577,-179.827 -179.826,-179.827c-0.328,0 -0.655,0.001 -0.982,0.003c0.671,-1.801 1.233,-3.51 1.726,-5.165Z" style="fill:#5a381d;"/><path id="yellow" d="M535.531,259.079c0.732,-0.009 1.464,-0.013 2.198,-0.013c96.819,-0 175.424,78.604 175.424,175.423c-0,96.819 -78.605,175.423 -175.424,175.423c-96.818,0 -175.423,-78.604 -175.423,-175.423c0,-47.366 18.813,-90.373 49.369,-121.949c0.23,0.163 0.483,0.302 0.756,0.41c0.327,0.13 0.664,0.207 1,0.236c-2.553,10.599 1.19,21.196 1.19,21.196c0.111,0.316 0.264,0.606 0.449,0.868c-21.973,27.117 -35.143,61.652 -35.143,99.239c0,87.094 70.709,157.802 157.802,157.802c87.094,0 157.803,-70.708 157.803,-157.802c-0,-87.093 -70.709,-157.802 -157.803,-157.802c-4.094,-0 -8.153,0.156 -12.169,0.463c4.692,-7.24 7.788,-13.049 9.971,-18.071Z" style="fill:#fcaf26;"/><path d="M669.077,667.865l-260.32,-0c-0,-0 13.996,-10.821 13.996,-18.381c0,-7.828 -13.996,-18.157 -13.996,-18.157l260.32,0c-0,0 -14,10.821 -14,18.381c0,7.828 14,18.157 14,18.157Zm-177.103,-12.782c0,-1.787 -0.261,-3.689 -0.784,-5.705c-0.523,-2.015 -0.785,-3.416 -0.785,-4.201c-0,-0.805 0.218,-1.361 0.654,-1.667c-0.349,-0.414 -1.003,-0.621 -1.961,-0.621c-0.611,0 -1.134,0.186 -1.57,0.556c-0.523,0.436 -0.784,1.025 -0.784,1.765c-0,0.938 0.343,2.578 1.029,4.92c0.687,2.343 1.03,4.037 1.03,5.083c0,1.918 -0.893,2.877 -2.68,2.877c-0.611,0 -1.297,-0.076 -2.06,-0.228c1.504,-2.066 2.256,-4.611 2.256,-7.634c-0,-2.24 -0.534,-4.055 -1.602,-5.447c-1.133,-1.479 -2.692,-2.219 -4.675,-2.219c-1.221,0 -2.222,0.142 -3.007,0.425c-0.785,-0.283 -1.602,-0.425 -2.452,-0.425c-2.79,0 -4.953,0.643 -6.489,1.929c-1.537,1.286 -2.305,3.073 -2.305,5.361c0,1.548 0.327,2.801 0.981,3.759c0.654,0.96 1.58,1.439 2.779,1.439c1.438,0 2.44,-0.49 3.007,-1.471c0.85,1.068 1.994,1.602 3.433,1.602c1.46,-0 2.68,-0.62 3.661,-1.858c0.915,-1.151 1.373,-2.51 1.373,-4.075c-0,-2.02 -0.708,-3.704 -2.125,-5.051c0.131,-0.022 0.327,-0.033 0.589,-0.033c1.111,0 1.939,0.685 2.484,2.054c0.436,1.066 0.654,2.348 0.654,3.848c-0,1.739 -0.186,3.185 -0.556,4.337c-0.261,0.87 -0.719,1.804 -1.373,2.804c-1.09,-0.261 -2.168,-0.523 -3.236,-0.784c-1.264,-0.284 -2.681,-0.425 -4.25,-0.425c-4.795,-0 -7.192,0.915 -7.192,2.746c0,0.98 0.937,1.819 2.812,2.517c1.7,0.61 3.508,0.915 5.426,0.915c3.661,0 6.571,-1.024 8.728,-3.072c1.875,0.305 3.16,0.457 3.858,0.457c1.351,0 2.517,-0.381 3.498,-1.144c1.089,-0.85 1.634,-1.961 1.634,-3.334Zm-12.161,3.399c-0.61,0.698 -1.427,1.275 -2.451,1.733c-1.025,0.458 -2.06,0.687 -3.106,0.687c-0.98,-0 -1.874,-0.153 -2.68,-0.458c-0.916,-0.349 -1.374,-0.796 -1.374,-1.34c0,-0.545 0.36,-0.981 1.079,-1.308c0.654,-0.283 1.493,-0.425 2.517,-0.425c1.025,-0 2.081,0.119 3.172,0.36c0.936,0.261 1.884,0.511 2.843,0.751Zm-2.026,-8.842c-0,1.116 -0.153,2.057 -0.458,2.823c-0.349,0.832 -0.807,1.247 -1.373,1.247c-0.502,-0 -0.817,-0.339 -0.948,-1.018c-0.065,-0.306 -0.098,-0.896 -0.098,-1.772c0,-2.559 0.588,-4.452 1.765,-5.677c0.741,0.941 1.112,2.407 1.112,4.397Zm-6.931,1.271c0,0.55 -0.109,1.089 -0.326,1.616c-0.219,0.527 -0.458,0.79 -0.72,0.79c-0.414,0 -0.632,-0.549 -0.654,-1.647c0.087,-0.572 0.164,-1.143 0.229,-1.715c0.131,-0.417 0.403,-0.626 0.817,-0.626c0.436,0 0.654,0.528 0.654,1.582Zm4.119,-6.651c-1.438,0.999 -2.419,2.275 -2.942,3.827c-0.371,-0.327 -0.763,-0.49 -1.177,-0.49c-0.436,-0 -0.85,0.098 -1.242,0.294c0.741,-2.485 2.223,-3.727 4.446,-3.727c0.327,0 0.632,0.032 0.915,0.096Zm-10.133,4.092c-0,-1.605 -0.393,-2.938 -1.177,-4.001c-0.872,-1.192 -2.104,-1.789 -3.694,-1.789l-1.504,0c-0.502,0.108 -0.752,0.42 -0.752,0.936c0,0.775 0.49,1.302 1.471,1.581c0.022,-0.188 0.054,-0.365 0.098,-0.533c0.044,-0.167 0.24,-0.251 0.589,-0.251c1.155,0 1.732,1.569 1.732,4.708c0,1.19 -0.174,2.251 -0.523,3.182c-0.414,1.082 -0.97,1.623 -1.667,1.623c-0.632,-0 -0.948,-0.848 -0.948,-2.543c-0,-0.413 0.021,-1.021 0.065,-1.825c0.044,-0.804 0.066,-1.347 0.066,-1.63c-0,-3.498 -1.624,-5.248 -4.871,-5.248c-2.31,0 -4.13,0.774 -5.46,2.321c-1.198,1.395 -1.797,3.171 -1.797,5.329c-0,1.395 0.326,2.594 0.98,3.596c0.741,1.111 1.711,1.667 2.91,1.667c1.263,-0 2.266,-0.349 3.007,-1.046c0.872,-0.806 1.308,-2.005 1.308,-3.596c-0,-0.915 -0.207,-1.667 -0.621,-2.256c-0.502,-0.697 -1.243,-1.046 -2.223,-1.046c-0.523,0 -1.003,0.12 -1.439,0.36c0.501,-2.485 1.537,-3.727 3.106,-3.727c0.806,-0 1.308,0.531 1.504,1.593c0.087,0.39 0.13,1.376 0.13,2.958c0,2.361 0.099,3.845 0.295,4.452c0.501,1.539 1.732,2.308 3.694,2.308c1.808,-0 3.236,-0.748 4.282,-2.245c0.959,-1.322 1.439,-2.948 1.439,-4.878Zm-12.782,3.087c-0,1.71 -0.241,2.565 -0.72,2.565c-0.828,-0 -1.242,-1.05 -1.242,-3.149c0,-0.368 0.011,-0.639 0.033,-0.812c0.174,-0.519 0.414,-0.779 0.719,-0.779c0.806,-0 1.21,0.725 1.21,2.175Zm-6.571,-0.083c-0,-1.329 -0.425,-2.506 -1.275,-3.531c-0.785,-0.915 -1.558,-1.373 -2.321,-1.373c-1.787,0 -3.029,0.666 -3.727,1.994c-0.043,-1.22 0.142,-2.615 0.556,-4.184c0.981,0.07 1.776,0.185 2.386,0.347c0.545,0.161 0.883,0.242 1.014,0.242c0.392,-0 0.773,-0.144 1.144,-0.43c0.37,-0.286 0.556,-0.615 0.556,-0.99c-0,-0.616 -0.231,-1.106 -0.693,-1.468c-0.462,-0.363 -0.95,-0.523 -1.465,-0.479c0.087,0.217 0.131,0.425 0.131,0.621c0,0.675 -0.436,1.013 -1.308,1.013c-0.196,-0 -1.013,-0.114 -2.451,-0.343c-1.439,-0.229 -2.539,-0.343 -3.302,-0.343c-3.88,-0 -5.819,1.558 -5.819,4.674c0,0.85 0.278,1.989 0.834,3.416c0.555,1.428 0.833,2.338 0.833,2.73c0,0.632 -0.414,0.948 -1.242,0.948c0.131,0.894 0.773,1.34 1.929,1.34c0.37,0 0.675,-0.175 0.915,-0.524c0.24,-0.35 0.36,-0.743 0.36,-1.18c-0,-0.656 -0.317,-1.759 -0.948,-3.311c-0.633,-1.552 -0.948,-2.786 -0.948,-3.705c-0,-0.874 0.272,-1.579 0.817,-2.114c0.544,-0.535 1.242,-0.803 2.092,-0.803l0.752,-0c0.261,0.043 0.501,0.043 0.719,-0c-0.523,2.176 -0.785,4 -0.785,5.474c0,1.759 0.109,3.022 0.327,3.792c0.414,1.363 1.21,2.044 2.387,2.044c0.654,0 1.253,-0.065 1.798,-0.196c0.654,-0.152 0.959,-0.348 0.915,-0.588c-0.48,-0.022 -0.839,-0.36 -1.079,-1.014c-0.174,-0.479 -0.261,-1.002 -0.261,-1.569l-0,-1.144c0.345,-1.155 0.949,-1.732 1.813,-1.732c1.014,-0 1.521,0.893 1.521,2.68c0,3.291 -1.024,4.937 -3.073,4.937c-0.697,-0 -1.689,-0.131 -2.974,-0.393c-1.287,-0.261 -2.376,-0.392 -3.27,-0.392c-1.068,-0 -1.961,0.218 -2.68,0.654c-0.719,0.435 -1.079,1.013 -1.079,1.732c0,0.697 0.33,1.297 0.989,1.798c0.527,0.414 1,0.621 1.418,0.621l0.757,0c0.264,-0.022 0.528,-0.153 0.792,-0.392c-0.611,-0.284 -0.916,-0.556 -0.916,-0.817c0,-0.654 0.295,-1.166 0.883,-1.537c0.523,-0.305 1.133,-0.457 1.831,-0.457c0.305,-0 0.969,0.059 1.994,0.179c1.024,0.12 1.841,0.18 2.451,0.18c1.831,0 3.405,-0.616 4.724,-1.847c1.319,-1.231 1.978,-2.751 1.978,-4.56Zm63.811,-2.877c-0,-1.612 -0.643,-2.942 -1.929,-3.988c-1.155,-0.937 -2.484,-1.406 -3.988,-1.406c-1.526,0 -2.572,0.044 -3.138,0.131c-0.96,1.068 -1.439,2.725 -1.439,4.969c0,2.332 0.61,4.315 1.831,5.95c-2.615,-0.131 -3.923,-1.155 -3.923,-3.073c0,-0.654 0.136,-1.58 0.408,-2.779c0.273,-1.198 0.409,-2.103 0.409,-2.713c0,-1.569 -0.904,-2.354 -2.713,-2.354c-0.523,-0 -1.09,0.077 -1.7,0.229c0.021,0.044 0.152,0.294 0.392,0.752c0.131,0.261 0.196,0.512 0.196,0.752c0,0.501 -0.13,1.269 -0.392,2.304c-0.261,1.036 -0.392,1.956 -0.392,2.763c-0,1.721 0.85,3.105 2.55,4.151c1.416,0.894 2.996,1.341 4.74,1.341c2.528,-0 4.631,-0.599 6.309,-1.798c1.852,-1.286 2.779,-3.029 2.779,-5.231Zm-3.465,-0.445c-0,1.16 -0.264,2.253 -0.792,3.281c-0.528,1.028 -1.231,1.794 -2.11,2.296c-0.572,-0.874 -0.858,-2.219 -0.858,-4.035c0,-1.05 0.187,-2.149 0.56,-3.297c0.375,-1.149 0.759,-1.723 1.155,-1.723c0.506,0 0.972,0.378 1.402,1.132c0.428,0.755 0.643,1.537 0.643,2.346Zm-1.733,-8.316c-0,-0.348 -0.349,-0.795 -1.046,-1.34c0.261,-0.24 0.457,-0.392 0.588,-0.458c-0.676,-1.263 -1.515,-1.896 -2.517,-1.896c-0.676,0 -1.405,0.251 -2.19,0.752c-0.915,0.61 -1.373,1.319 -1.373,2.125c0,0.828 0.316,1.487 0.948,1.978c0.632,0.49 1.427,0.735 2.386,0.735c2.136,0 3.204,-0.632 3.204,-1.896Zm-2.55,-0.425c0,0.567 -0.349,0.85 -1.046,0.85c-0.24,0 -0.359,-0.131 -0.359,-0.392c-0,-0.152 0.135,-0.365 0.408,-0.638c0.272,-0.272 0.474,-0.408 0.605,-0.408c0.261,-0 0.392,0.196 0.392,0.588Zm43.641,0.687c-0,-0.349 -0.153,-0.676 -0.458,-0.981c-0.261,-0.196 -0.523,-0.403 -0.784,-0.621c0.065,-0.021 0.24,-0.054 0.523,-0.098c0.217,-0 0.446,-0.087 0.686,-0.262c-0.24,-0.414 -0.665,-0.806 -1.275,-1.177c-0.61,-0.37 -1.253,-0.609 -1.928,-0.719c-0.72,0.044 -1.417,0.355 -2.092,0.932c-0.676,0.578 -1.014,1.204 -1.014,1.88c0,0.806 0.294,1.515 0.883,2.124c0.632,0.676 1.438,1.014 2.419,1.014c0.784,-0 1.487,-0.212 2.108,-0.638c0.621,-0.424 0.932,-0.909 0.932,-1.454Zm-2.125,-0.687c0,0.196 -0.185,0.474 -0.556,0.834c-0.37,0.359 -0.653,0.539 -0.85,0.539c-0.283,0 -0.425,-0.163 -0.425,-0.49c0,-0.152 0.142,-0.42 0.425,-0.801c0.283,-0.381 0.523,-0.572 0.72,-0.572c0.457,-0 0.686,0.163 0.686,0.49Zm8.467,10.101c0,-1.917 -0.518,-3.459 -1.553,-4.625c-1.035,-1.166 -2.425,-1.749 -4.168,-1.749c-1.548,-0 -2.692,0.556 -3.432,1.667c-0.458,-1.046 -1.777,-1.569 -3.956,-1.569c-1.068,-0 -1.994,0.398 -2.779,1.193c-0.784,0.796 -1.176,1.716 -1.176,2.762c-0,0.981 0.196,2.098 0.588,3.351c0.392,1.254 0.588,2.185 0.588,2.795c0,0.611 -0.326,0.916 -0.98,0.916c-0.11,-0 -0.218,-0.011 -0.327,-0.033c0.152,0.937 0.697,1.406 1.634,1.406c0.48,-0 0.867,-0.175 1.161,-0.523c0.294,-0.349 0.441,-0.774 0.441,-1.276c0,-0.522 -0.234,-1.492 -0.703,-2.909c-0.469,-1.416 -0.702,-2.593 -0.702,-3.53c-0,-1.656 0.631,-2.485 1.895,-2.485c0.524,0 0.949,0.267 1.275,0.801c0.327,0.534 0.491,1.128 0.491,1.782c-0,0.348 -0.098,1.013 -0.294,1.994c-0.197,0.98 -0.295,1.929 -0.295,2.844c0,2.223 0.861,3.334 2.583,3.334c0.479,0 0.986,-0.087 1.52,-0.261c0.534,-0.174 0.845,-0.36 0.932,-0.556c-0.741,0.131 -1.112,-0.839 -1.112,-2.909c0,-0.676 0.033,-1.379 0.098,-2.109c0.066,-0.73 0.098,-1.389 0.098,-1.978c0,-2.048 0.61,-3.072 1.831,-3.072c0.654,-0 1.231,0.436 1.733,1.307c0.501,0.937 0.751,2.071 0.751,3.4c0,2.027 -0.468,3.661 -1.405,4.903c-1.068,1.395 -2.605,2.093 -4.61,2.093c-0.675,-0 -1.421,-0.055 -2.239,-0.164c-0.817,-0.109 -1.575,-0.163 -2.272,-0.163c-0.85,-0 -1.64,0.234 -2.37,0.702c-0.73,0.469 -1.095,0.997 -1.095,1.586c0,0.654 0.265,1.247 0.794,1.781c0.529,0.535 1.14,0.802 1.832,0.802c0.454,-0 0.875,-0.131 1.264,-0.393c-0.502,-0.327 -0.752,-0.61 -0.752,-0.85c0,-1.438 1.046,-2.157 3.139,-2.157c0.501,-0 1.007,0.016 1.52,0.049c0.511,0.032 1.062,0.049 1.651,0.049c1.808,-0 3.541,-0.6 5.197,-1.798c2.136,-1.547 3.204,-3.683 3.204,-6.408Zm-18.078,1.962c0,-1.329 -0.425,-2.506 -1.274,-3.531c-0.785,-0.915 -1.559,-1.373 -2.321,-1.373c-1.788,0 -3.03,0.666 -3.727,1.994c-0.044,-1.22 0.141,-2.615 0.555,-4.184c0.981,0.07 1.776,0.185 2.387,0.347c0.544,0.161 0.882,0.242 1.013,0.242c0.393,-0 0.773,-0.144 1.144,-0.43c0.371,-0.286 0.556,-0.615 0.556,-0.99c0,-0.616 -0.231,-1.106 -0.692,-1.468c-0.462,-0.363 -0.951,-0.523 -1.465,-0.479c0.087,0.217 0.13,0.425 0.13,0.621c0,0.675 -0.436,1.013 -1.307,1.013c-0.196,-0 -1.014,-0.114 -2.452,-0.343c-1.438,-0.229 -2.539,-0.343 -3.302,-0.343c-3.879,-0 -5.819,1.558 -5.819,4.674c0,0.85 0.278,1.989 0.834,3.416c0.556,1.428 0.834,2.338 0.834,2.73c-0,0.632 -0.415,0.948 -1.243,0.948c0.131,0.894 0.774,1.34 1.929,1.34c0.371,0 0.675,-0.175 0.915,-0.524c0.24,-0.35 0.36,-0.743 0.36,-1.18c-0,-0.656 -0.316,-1.759 -0.948,-3.311c-0.632,-1.552 -0.948,-2.786 -0.948,-3.705c0,-0.874 0.272,-1.579 0.817,-2.114c0.545,-0.535 1.243,-0.803 2.093,-0.803l0.751,-0c0.262,0.043 0.501,0.043 0.719,-0c-0.523,2.176 -0.784,4 -0.784,5.474c-0,1.759 0.109,3.022 0.327,3.792c0.413,1.363 1.209,2.044 2.386,2.044c0.654,0 1.253,-0.065 1.798,-0.196c0.654,-0.152 0.959,-0.348 0.916,-0.588c-0.48,-0.022 -0.84,-0.36 -1.079,-1.014c-0.175,-0.479 -0.262,-1.002 -0.262,-1.569l0,-1.144c0.345,-1.155 0.95,-1.732 1.813,-1.732c1.014,-0 1.522,0.893 1.522,2.68c-0,3.291 -1.025,4.937 -3.073,4.937c-0.698,-0 -1.689,-0.131 -2.975,-0.393c-1.286,-0.261 -2.376,-0.392 -3.269,-0.392c-1.068,-0 -1.962,0.218 -2.681,0.654c-0.719,0.435 -1.078,1.013 -1.078,1.732c-0,0.697 0.329,1.297 0.988,1.798c0.527,0.414 1,0.621 1.418,0.621l0.758,0c0.263,-0.022 0.527,-0.153 0.791,-0.392c-0.61,-0.284 -0.915,-0.556 -0.915,-0.817c-0,-0.654 0.294,-1.166 0.882,-1.537c0.523,-0.305 1.133,-0.457 1.831,-0.457c0.305,-0 0.969,0.059 1.994,0.179c1.024,0.12 1.841,0.18 2.452,0.18c1.831,0 3.405,-0.616 4.724,-1.847c1.318,-1.231 1.977,-2.751 1.977,-4.56Zm35.861,-4.25c0,-0.348 -0.114,-0.67 -0.343,-0.964c-0.229,-0.294 -0.518,-0.452 -0.867,-0.474c0,0.523 -0.076,0.85 -0.228,0.981c-0.241,0.218 -0.84,0.326 -1.798,0.326c-1.069,0 -1.847,-0.032 -2.338,-0.098c-0.49,-0.065 -0.986,-0.098 -1.487,-0.098l-1.962,0c-0.741,-1.166 -1.144,-1.962 -1.209,-2.386c0.217,0.022 0.74,0.12 1.569,0.294c0.654,0.153 1.209,0.229 1.667,0.229c0.479,-0 0.937,-0.147 1.373,-0.441c0.436,-0.295 0.654,-0.638 0.654,-1.03c0,-0.327 -0.13,-0.632 -0.389,-0.915c-0.26,-0.283 -0.566,-0.436 -0.919,-0.458c0.066,0.218 0.098,0.392 0.098,0.523c0,0.392 -0.479,0.589 -1.438,0.589c-0.458,-0 -1.057,-0.038 -1.798,-0.115c-0.741,-0.076 -1.351,-0.114 -1.831,-0.114c-1.94,-0 -3.399,0.359 -4.38,1.078c-0.85,0.611 -1.275,1.417 -1.275,2.42c0,1.089 0.403,1.928 1.21,2.517c-0.676,0.741 -1.014,1.656 -1.014,2.746c0,1.264 0.456,2.234 1.369,2.909c0.825,0.61 1.867,0.915 3.127,0.915c1.324,0 2.475,-0.372 3.453,-1.116c0.977,-0.744 1.466,-1.686 1.466,-2.824c0,-1.007 -0.294,-2.124 -0.883,-3.35c0.981,-0.043 1.766,0.001 2.354,0.132c-0.022,0.306 -0.109,0.974 -0.261,2.002c-0.131,0.855 -0.197,1.522 -0.197,2.004c0,2.189 1.025,3.283 3.073,3.283c0.785,-0 1.362,-0.153 1.733,-0.458c-0.523,-0.13 -0.861,-0.511 -1.013,-1.144c-0.11,-0.458 -0.164,-1.318 -0.164,-2.582c-0,-0.523 0.164,-1.602 0.49,-3.237c0.24,0.11 0.469,0.164 0.687,0.164c0.414,-0 0.763,-0.131 1.046,-0.393c0.283,-0.261 0.425,-0.566 0.425,-0.915Zm-12.39,0.15c-0.98,0.236 -1.798,0.567 -2.451,0.994c-0.044,-0.17 -0.066,-0.502 -0.066,-0.994c0,-1.047 0.446,-1.827 1.341,-2.34c0.522,1.026 0.915,1.806 1.176,2.34Zm1.635,4.688c-0,1.417 -0.458,2.125 -1.373,2.125c-0.414,0 -0.741,-0.229 -0.981,-0.686c-0.218,-0.393 -0.327,-0.861 -0.327,-1.406c0,-1.547 0.578,-2.637 1.733,-3.269c0.632,1.373 0.948,2.452 0.948,3.236Zm31.906,-2.582c-0,-1.918 -0.573,-3.438 -1.717,-4.56c-1.144,-1.123 -2.741,-1.684 -4.789,-1.684c-1.025,-0 -1.951,0.142 -2.779,0.425c-0.784,-0.283 -1.601,-0.425 -2.451,-0.425c-2.834,-0 -5.013,0.741 -6.539,2.223c-1.417,1.373 -2.124,3.215 -2.124,5.525c-0,1.264 0.315,2.321 0.948,3.17c0.719,0.938 1.688,1.406 2.909,1.406c1.373,0 2.354,-0.512 2.942,-1.536c0.654,1.09 1.733,1.634 3.237,1.634c0.958,0 1.819,-0.251 2.582,-0.751c0.523,0.435 1.286,0.653 2.288,0.653c1.569,0 2.877,-0.577 3.923,-1.732c1.046,-1.155 1.57,-2.604 1.57,-4.348Zm-15.267,1.921c0,0.466 -0.098,0.964 -0.294,1.496c-0.24,0.621 -0.49,0.931 -0.752,0.931c-0.502,-0 -0.752,-0.587 -0.752,-1.762c-0,-0.31 0.011,-0.543 0.033,-0.698c0.392,-0.997 0.762,-1.496 1.111,-1.496c0.392,0 0.621,0.177 0.687,0.532c-0.022,-0.066 -0.033,0.266 -0.033,0.997Zm3.825,-6.629c-1.264,0.973 -2.114,2.237 -2.55,3.792c-0.349,-0.282 -0.774,-0.424 -1.275,-0.424c-0.436,-0 -0.85,0.087 -1.242,0.261c0.85,-2.463 2.266,-3.694 4.249,-3.694c0.197,0 0.469,0.022 0.818,0.065Zm2.876,4.479c0,1.177 -0.142,2.245 -0.424,3.204c-0.349,1.111 -0.807,1.667 -1.373,1.667c-0.676,-0 -1.014,-0.774 -1.014,-2.321c0,-0.959 0.164,-1.95 0.491,-2.975c0.37,-1.177 0.882,-2.125 1.536,-2.844c0.523,0.741 0.784,1.83 0.784,3.269Zm5.166,0.132c-0,1.363 -0.241,2.511 -0.72,3.441c-0.523,1.018 -1.22,1.527 -2.092,1.527c-0.283,-0 -0.512,-0.055 -0.686,-0.163c1.089,-1.125 1.634,-2.564 1.634,-4.318c0,-2.1 -0.741,-3.788 -2.223,-5.065c0.262,-0.065 0.545,-0.098 0.85,-0.098c2.158,0 3.237,1.559 3.237,4.676Zm22.915,1.982c0,-0.83 -0.147,-1.857 -0.441,-3.081c-0.294,-1.223 -0.441,-2.49 -0.441,-3.801c-0,-0.633 0.239,-1.049 0.719,-1.245c-0.327,-0.35 -0.916,-0.525 -1.765,-0.525c-0.698,-0 -1.287,0.153 -1.766,0.458c-0.567,0.392 -0.85,0.959 -0.85,1.7c0,0.567 0.251,1.694 0.752,3.383c0.501,1.689 0.752,2.774 0.752,3.253c-0,1.525 -0.631,2.288 -1.891,2.288c-0.266,-0 -0.543,-0.049 -0.83,-0.147c-0.288,-0.098 -0.542,-0.147 -0.764,-0.147c-0.243,-0 -0.541,0.044 -0.896,0.13c0.915,-0.828 1.562,-1.557 1.942,-2.19c0.58,-0.959 0.87,-2.07 0.87,-3.334c0,-1.591 -0.6,-2.844 -1.798,-3.76c-1.09,-0.828 -2.43,-1.242 -4.021,-1.242c-2.507,0 -4.5,0.752 -5.982,2.256c-1.395,1.417 -2.093,3.236 -2.093,5.459c0,1.352 0.283,2.452 0.85,3.302c0.676,1.024 1.668,1.536 2.975,1.536c1.242,0 2.283,-0.446 3.122,-1.34c0.839,-0.893 1.259,-2.005 1.259,-3.334c-0,-2.027 -0.948,-3.041 -2.844,-3.041c-0.371,0 -0.785,0.033 -1.242,0.099c0.98,-2.31 2.44,-3.466 4.38,-3.466c1.721,0 2.582,1.109 2.582,3.325c0,1.043 -0.283,2.108 -0.849,3.194c-0.676,1.239 -1.526,2.01 -2.55,2.315c-0.044,0.521 0.131,1.032 0.523,1.532c0.392,0.499 0.861,0.804 1.405,0.912c0.676,-0.544 1.188,-0.817 1.537,-0.817c0.479,0 1.089,0.104 1.831,0.311c0.74,0.207 1.318,0.31 1.732,0.31c1.046,0 1.961,-0.502 2.746,-1.507c0.697,-0.896 1.046,-1.825 1.046,-2.786Zm-13.011,0.534c0,0.545 -0.125,1.074 -0.376,1.585c-0.25,0.513 -0.539,0.769 -0.866,0.769c-0.588,-0 -0.882,-0.774 -0.882,-2.321c-0,-0.632 0.086,-1.384 0.261,-2.256c0.305,-0.109 0.61,-0.164 0.915,-0.164c0.632,0 0.948,0.796 0.948,2.387Zm47.074,-12.063c0,-0.348 -0.349,-0.795 -1.046,-1.34c0.262,-0.24 0.458,-0.392 0.589,-0.458c-0.676,-1.263 -1.516,-1.896 -2.518,-1.896c-0.675,0 -1.405,0.251 -2.19,0.752c-0.915,0.61 -1.373,1.319 -1.373,2.125c0,0.828 0.316,1.487 0.948,1.978c0.632,0.49 1.427,0.735 2.387,0.735c2.135,0 3.203,-0.632 3.203,-1.896Zm-2.55,-0.425c0,0.567 -0.349,0.85 -1.046,0.85c-0.24,0 -0.359,-0.131 -0.359,-0.392c-0,-0.152 0.136,-0.365 0.408,-0.638c0.273,-0.272 0.474,-0.408 0.605,-0.408c0.262,-0 0.392,0.196 0.392,0.588Zm-9.218,4.25c-0.392,-0.632 -1.232,-0.948 -2.517,-0.948c-0.96,-0 -1.635,0.311 -2.027,0.932c-0.392,0.621 -0.588,1.662 -0.588,3.122c-0,0.588 0.054,1.438 0.163,2.549c0.109,1.112 0.163,2.027 0.163,2.746c0,0.807 -0.392,1.406 -1.176,1.798c-0.589,0.306 -1.275,0.458 -2.06,0.458c-2.463,-0 -3.694,-1.187 -3.694,-3.563c0,-0.72 0.164,-1.705 0.49,-2.959c0.327,-1.253 0.491,-2.195 0.491,-2.827c-0,-1.439 -1.058,-2.158 -3.171,-2.158c-0.371,0 -0.774,0.022 -1.21,0.066c0.022,0.066 0.12,0.241 0.294,0.526c0.109,0.197 0.164,0.383 0.164,0.559c-0,0.526 -0.136,1.343 -0.409,2.449c-0.272,1.107 -0.408,2.034 -0.408,2.778c-0,0.329 0.032,0.85 0.098,1.562c0.065,0.712 0.098,1.266 0.098,1.66c-0,1.272 -0.447,1.907 -1.341,1.907c-0.98,-0 -1.471,-0.877 -1.471,-2.63c0,-0.833 0.218,-1.983 0.654,-3.452c0.436,-1.468 0.654,-2.543 0.654,-3.222c0,-0.701 -0.234,-1.244 -0.703,-1.627c-0.469,-0.384 -1.041,-0.576 -1.716,-0.576c-0.654,0 -1.286,0.163 -1.896,0.491c0.719,0.217 1.079,0.904 1.079,2.059c-0,0.545 -0.077,1.368 -0.229,2.468c-0.153,1.101 -0.229,2.022 -0.229,2.762c0,1.483 0.273,2.659 0.819,3.531c0.589,0.981 1.452,1.471 2.587,1.471c1.179,0 2.239,-0.61 3.178,-1.831c0.895,0.741 1.648,1.221 2.26,1.439c0.829,0.327 1.943,0.49 3.341,0.49c1.594,-0 2.948,-0.305 4.062,-0.916c0.13,0.632 0.196,1.341 0.196,2.126c0,0.936 -0.152,2.026 -0.457,3.269c0.479,0.936 1.296,1.405 2.451,1.405c0.283,0 0.545,-0.044 0.785,-0.131c0.261,-1.198 0.392,-2.789 0.392,-4.772c0,-1.134 -0.228,-3.269 -0.686,-6.408c0.065,-0.108 0.098,-0.283 0.098,-0.523c-0,-0.675 -0.016,-1.236 -0.049,-1.683c-0.033,-0.447 -0.049,-0.736 -0.049,-0.866c-0,-1.047 0.109,-1.799 0.327,-2.256c0.174,-0.393 0.588,-0.817 1.242,-1.275Zm16.966,4.936c0,-1.612 -0.643,-2.942 -1.929,-3.988c-1.155,-0.937 -2.484,-1.406 -3.988,-1.406c-1.526,0 -2.572,0.044 -3.138,0.131c-0.959,1.068 -1.439,2.725 -1.439,4.969c0,2.332 0.61,4.315 1.831,5.95c-2.615,-0.131 -3.923,-1.155 -3.923,-3.073c0,-0.654 0.136,-1.58 0.409,-2.779c0.272,-1.198 0.408,-2.103 0.408,-2.713c0,-1.569 -0.904,-2.354 -2.713,-2.354c-0.523,-0 -1.09,0.077 -1.7,0.229c0.022,0.044 0.153,0.294 0.393,0.752c0.13,0.261 0.196,0.512 0.196,0.752c-0,0.501 -0.131,1.269 -0.393,2.304c-0.261,1.036 -0.392,1.956 -0.392,2.763c0,1.721 0.85,3.105 2.55,4.151c1.416,0.894 2.996,1.341 4.74,1.341c2.528,-0 4.631,-0.599 6.309,-1.798c1.852,-1.286 2.779,-3.029 2.779,-5.231Zm-3.465,-0.445c-0,1.16 -0.264,2.253 -0.792,3.281c-0.527,1.028 -1.231,1.794 -2.11,2.296c-0.572,-0.874 -0.858,-2.219 -0.858,-4.035c0,-1.05 0.187,-2.149 0.561,-3.297c0.374,-1.149 0.758,-1.723 1.154,-1.723c0.506,0 0.973,0.378 1.402,1.132c0.428,0.755 0.643,1.537 0.643,2.346Z" style="fill:#aa1e22;"/><path d="M490.804,335.188c5.769,-10.845 11.043,-20.762 15.479,-29.107c2.298,-4.326 6.796,-7.032 11.694,-7.035c4.899,-0.003 9.4,2.697 11.703,7.021c19.341,36.303 55.839,104.811 55.839,104.811c5.818,-1.523 11.923,-2.334 18.216,-2.334c39.645,0 71.832,32.187 71.832,71.832c-0,39.645 -32.187,71.832 -71.832,71.832c-21.812,-0 -41.366,-9.743 -54.544,-25.11c-3.854,-4.486 -4.734,-10.81 -2.251,-16.177c2.483,-5.368 7.871,-8.792 13.786,-8.76c5.752,23.021 26.589,40.095 51.382,40.095c29.229,0 52.958,-23.729 52.958,-52.958c0,-29.228 -23.729,-52.958 -52.958,-52.958l-0.004,0c-2.75,0 -5.299,1.443 -6.715,3.801c-1.416,2.357 -1.493,5.285 -0.201,7.713l28.776,54.099l-54.454,-0l-31.647,-59.496l-70.709,-0c-1.064,-0 -1.929,0.857 -1.939,1.921l0,0.003c-0.124,13.75 5.251,26.98 14.929,36.747c6.555,6.615 14.717,11.27 23.573,13.586c0.413,0.099 0.686,0.491 0.636,0.913c-0.05,0.421 -0.408,0.739 -0.832,0.739c-8.337,0.023 -17.534,0.023 -17.534,0.023c-32.525,0 -58.893,-26.367 -58.893,-58.893l0,-3.201c0,-2.927 1.163,-5.734 3.232,-7.804c2.07,-2.069 4.877,-3.232 7.804,-3.232l89.521,0l-33.436,-62.858c-0.193,-0.403 -0.402,-0.797 -0.627,-1.18l-12.784,-24.033Zm-81.433,154.203l20.021,-37.638c0.364,-0.685 1.147,-1.034 1.9,-0.846c0.752,0.188 1.28,0.864 1.28,1.639c0,22.843 17.262,41.686 39.442,44.185c0.076,0.006 0.133,0.071 0.13,0.146c-0.003,0.076 -0.065,0.135 -0.141,0.135l-69.65,0c-0.197,0 -0.365,-0.14 -0.4,-0.333c-0.036,-0.193 0.071,-0.384 0.254,-0.454c3.222,-1.2 5.818,-3.687 7.164,-6.834Zm72.711,-135.822c7.125,5.364 11.736,13.893 11.736,23.49c-0,16.218 -13.167,29.385 -29.385,29.385c-3.366,-0 -6.601,-0.567 -9.614,-1.611l27.263,-51.264Z" style="fill:#aa1e22;"/><path d="M490.672,793.546c-0.306,0.405 -0.618,0.805 -0.935,1.199c-5.953,7.12 -12.956,10.621 -20.893,10.621c-6.419,0 -12.138,-2.451 -16.924,-7.236c-4.085,-4.436 -6.186,-9.688 -6.186,-15.757l0,-58.71l14.356,0c3.852,0 7.354,1.518 10.388,4.436c1.051,1.283 1.751,2.334 2.101,2.917c1.284,1.985 1.868,4.553 1.868,7.587l-0,43.886c-0,7.12 2.217,10.622 6.536,10.622c1.984,-0 3.968,-1.051 5.719,-3.035c1.454,-1.58 2.771,-3.503 3.97,-5.787l0,-59.809l14.24,0c4.202,0 7.82,1.634 10.738,4.786c1.517,1.867 2.568,3.735 3.034,5.485c5.953,-7.353 12.723,-11.088 20.31,-11.088c4.085,0 8.053,1.167 11.905,3.385c5.486,3.502 9.921,8.871 13.189,16.107c2.918,6.536 4.319,13.656 4.319,21.36c-0,8.287 -2.335,16.457 -7.004,24.277c-1.984,3.152 -4.318,6.07 -7.236,8.988c-5.369,5.018 -10.505,7.586 -15.29,7.586c-5.486,0 -9.571,-0.934 -12.256,-2.801c-1.75,-1.05 -4.202,-3.502 -7.236,-7.587l-0,31.398c-0,2.801 -0.934,5.485 -2.685,8.17c-3.151,3.968 -7.12,5.953 -11.905,5.953l-14.123,-0l0,-46.953Zm38.634,1.316c2.918,-0 5.486,-2.918 7.47,-8.871c2.218,-6.653 3.385,-14.94 3.385,-24.744c-0,-8.054 -0.817,-14.707 -2.568,-20.193c-1.517,-4.668 -3.735,-7.003 -6.42,-7.003c-3.384,0 -6.419,3.969 -9.104,11.905c-1.867,5.953 -2.801,13.073 -2.801,21.243c0,6.887 0.817,13.189 2.451,18.675c1.984,5.953 4.552,8.988 7.587,8.988Zm259.939,-2.928c-0.672,0.967 -1.372,1.904 -2.103,2.811c-5.952,7.12 -12.955,10.621 -20.892,10.621c-6.42,0 -12.139,-2.451 -16.924,-7.236c-1.93,-2.095 -3.416,-4.372 -4.448,-6.831c-2.915,4.431 -6.29,7.771 -10.143,9.982c-4.319,2.685 -8.871,4.085 -13.423,4.085c-5.719,0 -10.855,-1.984 -15.407,-5.836c-2.732,-2.545 -4.737,-5.388 -6.016,-8.511c-2.956,4.571 -6.391,8.005 -10.326,10.262c-4.318,2.685 -8.87,4.085 -13.423,4.085c-5.719,0 -10.854,-1.984 -15.406,-5.836c-5.136,-4.785 -7.704,-10.621 -7.704,-17.391l0,-50.539l-9.921,0l0,-7.937l9.921,0c0,-5.135 0.701,-8.754 1.984,-10.738c2.452,-4.552 8.171,-6.77 17.158,-6.77l9.454,0c0.117,0 0.117,5.836 0.117,17.508l16.459,0c-0,-5.135 0.7,-8.754 1.984,-10.738c2.451,-4.552 8.17,-6.77 17.157,-6.77l9.455,0c0.116,0 0.116,5.836 0.116,17.508l9.805,0c0.116,0 0.116,1.284 0.116,3.969c0,2.684 0,3.968 -0.116,3.968l-9.805,0l0,50.423c0,7.353 2.218,10.971 6.537,10.971c3.459,0 6.706,-2.983 9.739,-9.003c-0.033,-0.533 -0.05,-1.072 -0.05,-1.618l-0,-58.71l14.356,0c3.852,0 7.353,1.518 10.388,4.436c1.05,1.283 1.751,2.334 2.101,2.917c1.284,1.985 1.867,4.553 1.867,7.587l0,43.886c0,7.12 2.218,10.622 6.537,10.622c1.984,-0 3.968,-1.051 5.719,-3.035c1.201,-1.306 2.309,-2.846 3.334,-4.63c-0.121,-0.996 -0.181,-2.021 -0.181,-3.073l-0,-44.47c-0,-3.852 1.4,-7.12 4.201,-10.038c2.918,-2.801 6.537,-4.202 10.738,-4.202l13.657,0c0.116,0 0.116,19.492 0.116,58.476c0,7.354 2.218,11.088 6.537,11.088c2.917,0 5.485,-1.867 7.936,-5.719l1.168,-1.984l-0,-61.861l28.596,0l-0,78.318c-0,14.824 -5.603,25.562 -16.808,32.215c-7.12,4.202 -14.94,6.303 -23.46,6.303c-6.07,-0 -11.672,-1.168 -16.808,-3.385c-7.937,-3.619 -11.905,-9.104 -11.905,-16.224c-0,-3.502 1.284,-6.42 3.735,-8.871c2.451,-2.451 5.369,-3.618 8.637,-3.618c3.152,-0 6.069,1.167 8.754,3.501c2.685,2.802 4.085,5.836 4.085,9.221c0,2.101 -0.7,4.202 -1.984,6.303c-1.284,2.218 -2.801,3.618 -4.435,4.435c1.05,0 2.684,-0.233 4.902,-0.817c7.703,-1.75 12.605,-5.719 14.823,-11.905c1.284,-3.385 1.868,-8.637 1.868,-15.874l-0,-8.754c-5.953,7.237 -13.073,10.855 -21.243,10.855c-4.319,0 -8.521,-1.167 -12.489,-3.618c-2.918,-1.751 -5.019,-3.735 -6.186,-5.719c-0.975,-1.287 -1.793,-2.652 -2.451,-4.095Zm-91.043,-60.334l-16.459,0l-0,50.423c-0,7.353 2.218,10.971 6.536,10.971c3.544,0 6.864,-3.129 9.96,-9.447c-0.025,-0.465 -0.037,-0.934 -0.037,-1.408l-0,-50.539Zm-412.339,61.646c-0.974,1.297 -1.997,2.497 -3.072,3.6c-5.836,5.719 -12.139,8.52 -18.908,8.52c-5.953,0 -11.322,-2.101 -15.991,-6.419c-4.785,-4.669 -7.12,-10.388 -7.12,-17.158l0,-93.375l14.59,0c2.918,0 5.719,0.934 8.404,2.801c3.852,2.918 5.719,6.887 5.719,12.139l0,79.252c0,3.502 0.7,6.303 2.101,8.287c1.05,1.401 2.568,2.101 4.435,2.101c2.699,0 5.311,-1.901 7.81,-5.676c-0.382,-1.842 -0.572,-3.763 -0.572,-5.762c0,-3.852 1.284,-7.587 3.735,-11.439c5.019,-7.353 12.956,-12.022 23.577,-14.006c7.47,-1.868 11.789,-5.252 13.073,-10.038c0.233,-0.817 0.35,-2.334 0.35,-4.435c-0,-3.268 -0.934,-5.836 -2.801,-7.587c-1.985,-1.751 -4.669,-2.684 -8.287,-2.684c-2.451,-0 -5.136,0.467 -8.054,1.284c2.218,1.05 3.969,2.801 5.252,5.252c1.051,1.751 1.634,3.501 1.634,5.486c0,3.151 -1.167,6.069 -3.384,8.637c-2.802,2.918 -5.953,4.318 -9.571,4.318c-2.918,0 -5.603,-0.933 -7.937,-2.918c-2.918,-2.567 -4.319,-5.835 -4.319,-9.804c0,-3.151 0.934,-6.186 2.918,-9.221c2.685,-3.851 6.536,-6.653 11.555,-8.403c3.969,-1.518 9.688,-2.335 17.158,-2.335c13.773,0 23.344,3.502 28.596,10.622c3.968,5.019 5.953,12.022 5.953,20.776l-0,50.305l-14.357,0c-3.618,0 -6.769,-1.284 -9.687,-3.968c-1.751,-1.751 -2.918,-3.502 -3.619,-5.253c-6.419,6.42 -13.072,9.571 -20.075,9.571c-5.136,0 -9.805,-1.75 -13.89,-5.369c-2.212,-2.163 -3.948,-4.532 -5.216,-7.101Zm26.459,5.234c2.218,-0 4.435,-1.634 6.886,-4.902c3.152,-4.669 4.786,-10.155 4.786,-16.458l-0,-21.476c-1.051,2.334 -3.735,4.902 -8.17,7.82c-1.518,1.051 -2.918,2.101 -4.086,3.152c-3.501,3.268 -5.252,7.82 -5.252,13.772l0,7.47c0,3.385 0.7,6.187 2.101,8.404c1.051,1.518 2.218,2.218 3.735,2.218Zm-252.322,6.886c14.856,-49.016 27.401,-91.205 32.528,-108.5c1.469,-4.968 6.024,-8.384 11.204,-8.404c5.908,-0.022 12.643,-0.048 12.643,-0.048c1.517,0 3.385,0.701 5.486,1.984c2.451,1.751 4.085,4.086 4.902,7.004l24.278,84.154c2.217,7.586 3.384,12.138 3.384,13.422c0,3.619 -1.4,6.42 -4.318,8.521c-1.868,1.284 -3.969,1.867 -6.186,1.867l-14.59,0c-0.075,0 -1.527,-4.99 -4.419,-15c-3.744,-12.961 -15.608,-21.883 -29.099,-21.883l-10.252,0l-9.337,30.58c-0.467,1.051 -1.284,2.218 -2.334,3.385c-2.218,1.984 -4.436,2.918 -6.537,2.918l-7.353,0Zm56.375,-44.82l-13.889,-47.738l-14.59,47.738l28.479,0Zm122.295,85.322c-9.221,-0 -17.041,-2.218 -23.694,-6.653c-2.451,-1.518 -4.435,-3.268 -6.186,-5.486c-4.435,-5.486 -6.653,-11.905 -6.653,-19.142l0,-17.391c-6.186,5.719 -12.606,8.52 -19.142,8.52c-5.252,0 -10.038,-1.867 -14.239,-5.719c-5.019,-5.019 -7.47,-11.205 -7.47,-18.325c-0,-3.851 1.167,-7.586 3.501,-11.321c4.552,-6.653 11.205,-11.205 20.076,-13.54c5.019,-1.05 8.52,-2.101 10.621,-3.385c4.435,-2.451 6.653,-5.719 6.653,-9.921c0,-3.151 -0.233,-5.252 -0.817,-6.536c-1.517,-3.852 -5.019,-5.719 -10.271,-5.719c-2.451,-0 -5.252,0.467 -8.17,1.284c2.217,1.05 4.085,2.918 5.485,5.486c0.934,1.867 1.401,3.618 1.401,5.369c-0,3.501 -1.284,6.653 -3.968,9.337c-2.918,2.451 -5.953,3.618 -8.988,3.618c-3.151,0 -6.069,-1.167 -8.52,-3.618c-2.451,-2.451 -3.735,-5.369 -3.735,-8.987c-0,-3.852 1.4,-7.587 4.318,-11.088c2.101,-2.218 4.202,-3.852 6.303,-4.903c5.019,-2.684 12.022,-4.085 21.126,-4.085c13.073,0 22.293,3.152 27.779,9.571c2.685,3.152 4.552,7.003 5.719,11.789c0.584,2.568 0.817,4.202 0.817,5.019c0.117,1.4 0.234,22.176 0.234,62.327c-0,8.521 1.517,14.473 4.669,17.858c3.151,3.502 8.053,5.486 14.94,5.836c-2.568,-1.517 -4.436,-3.851 -5.603,-7.003c-0.583,-1.401 -0.817,-2.918 -0.817,-4.552c0,-3.618 1.284,-6.77 3.969,-9.571c2.801,-2.568 6.069,-3.852 9.687,-3.852c3.152,0 6.07,1.051 8.754,3.269c3.151,2.918 4.669,6.419 4.669,10.271c-0,2.451 -0.701,4.902 -1.984,7.12c-2.452,4.552 -6.887,8.287 -13.423,10.971c-5.369,2.101 -11.088,3.152 -17.041,3.152Zm-48.205,-47.388c1.984,-0 3.969,-1.284 6.186,-3.969c3.619,-4.785 5.486,-10.738 5.486,-17.858l0,-21.009c-1.05,2.334 -3.501,4.786 -7.47,7.237c-3.151,2.101 -5.252,3.968 -6.536,5.602c-2.334,3.268 -3.502,7.47 -3.502,12.722l0,6.187c0,5.135 1.168,8.52 3.385,10.271c0.7,0.583 1.517,0.817 2.451,0.817Zm404.905,7.236c-5.136,0 -9.804,-1.75 -13.89,-5.369c-5.252,-5.135 -7.82,-11.438 -7.82,-18.791c0,-3.852 1.284,-7.587 3.735,-11.439c5.019,-7.353 12.956,-12.022 23.577,-14.006c7.47,-1.868 11.789,-5.252 13.073,-10.038c0.233,-0.817 0.35,-2.334 0.35,-4.435c0,-3.268 -0.934,-5.836 -2.801,-7.587c-1.984,-1.751 -4.669,-2.684 -8.287,-2.684c-2.451,-0 -5.136,0.467 -8.054,1.284c2.218,1.05 3.969,2.801 5.253,5.252c1.05,1.751 1.634,3.501 1.634,5.486c-0,3.151 -1.168,6.069 -3.385,8.637c-2.802,2.918 -5.953,4.318 -9.571,4.318c-2.918,0 -5.603,-0.933 -7.937,-2.918c-2.918,-2.567 -4.319,-5.835 -4.319,-9.804c0,-3.151 0.934,-6.186 2.918,-9.221c2.685,-3.851 6.537,-6.653 11.555,-8.403c3.969,-1.518 9.688,-2.335 17.158,-2.335c13.773,0 23.344,3.502 28.596,10.622c3.969,5.019 5.953,12.022 5.953,20.776l-0,50.305l-14.357,0c-3.618,0 -6.769,-1.284 -9.687,-3.968c-1.751,-1.751 -2.918,-3.502 -3.618,-5.253c-6.42,6.42 -13.073,9.571 -20.076,9.571Zm7.353,-7.236c2.218,-0 4.435,-1.634 6.887,-4.902c3.151,-4.669 4.785,-10.155 4.785,-16.458l0,-21.476c-1.05,2.334 -3.735,4.902 -8.17,7.82c-1.518,1.051 -2.918,2.101 -4.085,3.152c-3.502,3.268 -5.253,7.82 -5.253,13.772l0,7.47c0,3.385 0.701,6.187 2.101,8.404c1.051,1.518 2.218,2.218 3.735,2.218Zm154.773,-81.353c-3.618,-0 -6.886,-1.284 -9.804,-3.852c-3.035,-3.034 -4.552,-6.536 -4.552,-10.388c-0,-3.385 1.167,-6.536 3.501,-9.337c3.152,-3.385 6.77,-5.019 10.855,-5.019c3.151,-0 6.069,0.934 8.754,2.918c3.735,3.151 5.602,6.886 5.602,11.438c0,3.385 -1.167,6.42 -3.384,9.104c-3.152,3.385 -6.77,5.136 -10.972,5.136Zm131.895,88.589c-5.136,0 -9.805,-1.75 -13.89,-5.369c-5.252,-5.135 -7.82,-11.438 -7.82,-18.791c-0,-3.852 1.284,-7.587 3.735,-11.439c5.019,-7.353 12.956,-12.022 23.577,-14.006c7.47,-1.868 11.789,-5.252 13.073,-10.038c0.233,-0.817 0.35,-2.334 0.35,-4.435c-0,-3.268 -0.934,-5.836 -2.802,-7.587c-1.984,-1.751 -4.668,-2.684 -8.287,-2.684c-2.451,-0 -5.135,0.467 -8.053,1.284c2.218,1.05 3.968,2.801 5.252,5.252c1.051,1.751 1.634,3.501 1.634,5.486c0,3.151 -1.167,6.069 -3.385,8.637c-2.801,2.918 -5.952,4.318 -9.571,4.318c-2.917,0 -5.602,-0.933 -7.936,-2.918c-2.918,-2.567 -4.319,-5.835 -4.319,-9.804c0,-3.151 0.934,-6.186 2.918,-9.221c2.685,-3.851 6.536,-6.653 11.555,-8.403c3.969,-1.518 9.688,-2.335 17.158,-2.335c13.773,0 23.344,3.502 28.596,10.622c3.968,5.019 5.952,12.022 5.952,20.776l0,50.305l-14.356,0c-3.618,0 -6.77,-1.284 -9.688,-3.968c-1.75,-1.751 -2.918,-3.502 -3.618,-5.253c-6.419,6.42 -13.072,9.571 -20.075,9.571Zm7.353,-7.236c2.218,-0 4.435,-1.634 6.886,-4.902c3.152,-4.669 4.786,-10.155 4.786,-16.458l-0,-21.476c-1.051,2.334 -3.735,4.902 -8.171,7.82c-1.517,1.051 -2.918,2.101 -4.085,3.152c-3.501,3.268 -5.252,7.82 -5.252,13.772l-0,7.47c-0,3.385 0.7,6.187 2.101,8.404c1.05,1.518 2.218,2.218 3.735,2.218Zm123.256,6.886l-14.473,0c-3.152,0 -6.186,-1.05 -8.987,-3.268c-1.518,-1.517 -2.685,-2.918 -3.502,-4.318c-1.05,-2.101 -1.634,-4.553 -1.634,-7.354l-0,-44.586c-0,-3.385 -0.7,-6.186 -2.218,-8.171c-1.167,-1.283 -2.568,-1.984 -4.318,-1.984c-1.751,0 -3.385,0.701 -4.786,1.984c-1.867,1.751 -3.268,3.735 -4.318,5.72l-0,61.977l-28.713,0l-0,-81.703l14.59,0c2.801,0 5.485,0.934 8.17,2.685c2.101,1.517 3.618,3.268 4.435,5.252c0.817,1.517 1.167,2.568 1.167,3.268c6.187,-7.47 13.306,-11.205 21.477,-11.205c3.851,0 7.703,0.934 11.321,2.801c4.319,2.452 7.587,5.836 9.688,10.388c1.401,2.918 2.101,6.303 2.101,10.038l0,58.476Zm-559.91,-88.239c-3.618,-0 -6.886,-1.284 -9.804,-3.852c-3.035,-3.034 -4.552,-6.536 -4.552,-10.388c0,-3.385 1.167,-6.536 3.502,-9.337c3.151,-3.385 6.769,-5.019 10.854,-5.019c3.152,-0 6.07,0.934 8.754,2.918c3.735,3.151 5.603,6.886 5.603,11.438c-0,3.385 -1.167,6.42 -3.385,9.104c-3.151,3.385 -6.77,5.136 -10.972,5.136Z" style="fill:#aa1e22;"/></g></svg>