<?xml version="1.0" encoding="UTF-8" standalone="no"?><!DOCTYPE svg PUBLIC "-//W3C//DTD SVG 1.1//EN" "http://www.w3.org/Graphics/SVG/1.1/DTD/svg11.dtd"><svg width="100%" height="100%" viewBox="0 0 1356 1179" version="1.1" xmlns="http://www.w3.org/2000/svg" xmlns:xlink="http://www.w3.org/1999/xlink" xml:space="preserve" xmlns:serif="http://www.serif.com/" style="fill-rule:evenodd;clip-rule:evenodd;stroke-linejoin:round;stroke-miterlimit:2;"><rect id="Logo-Full-color-with-tagline" serif:id="Logo Full color with tagline" x="0.926" y="0.039" width="1355.01" height="1178.92" style="fill:none;"/><g><path d="M839.006,283.446c-0.703,-0.032 -1.411,-0.048 -2.123,-0.048c-25.141,-0 -45.553,20.412 -45.553,45.554c-0,25.142 20.412,45.554 45.553,45.554c10.106,-0 19.447,-3.298 27.005,-8.874c-4.493,11.699 -10.236,23.524 -17.142,35.244c-6.677,11.33 -10.457,17.111 -17.805,26.127c-29.548,36.258 -76.666,69.4 -112.028,91.539l-0.015,0.009c-19.109,12.014 -43.433,11.926 -62.455,-0.226c-0.01,-0.006 -0.021,-0.013 -0.031,-0.02c-21.773,-13.787 -39.39,-26.331 -54.435,-37.943c-52.927,-40.853 -67.768,-68.238 -72.403,-75.843c-20.288,-33.293 -30.895,-66.443 -31.013,-94.954c1.483,-25.667 11.356,-47.601 29.619,-62.63c10.838,-8.919 24.63,-15.406 39.766,-18.799c25.678,-3.984 54.76,1.591 78.855,20.358l0.009,0.007c2.544,1.976 3.799,5.188 3.27,8.366c-0.523,3.142 -2.707,5.75 -5.702,6.819c-8.981,2.94 -17.321,8.321 -23.521,18.571c-13.677,22.617 -6.42,52.083 16.197,65.761c22.617,13.677 52.083,6.42 65.761,-16.197c11.663,-19.286 11.414,-37.846 7.27,-52.675c5.968,11.133 16.299,19.903 29.421,23.536c25.472,7.054 51.879,-7.899 58.933,-33.371c2.914,-10.522 1.651,-19.563 -1.649,-27.547c-1.41,-3.553 -0.799,-7.644 1.622,-10.67c1.364,-1.705 3.184,-2.924 5.198,-3.555c16.247,3.193 31.092,9.923 42.603,19.396c16.26,13.38 25.869,32.232 28.829,54.319c-6.314,-8.228 -15.371,-14.242 -25.799,-16.671c1.363,-3.008 2.596,-4.833 3.022,-5.485l0.788,-1.208l-8.66,-4.645l-0.564,1.341c-0.375,0.892 -1.754,3.927 -2.823,8.86Zm-176.55,224.201c-12.452,-7.434 -41.861,-25.218 -68.465,-47.452c-31.415,-26.256 -41.422,-44.091 -44.772,-49.278c-33.643,-52.09 -41.479,-107.603 -9.371,-137.286c1.943,-1.796 2.513,-1.631 2.647,-4.276c0.001,-0.026 -1.204,-3.423 -1.217,-3.429c-3.62,-1.72 -4.199,-2.692 -7.114,0.061c-11.312,10.683 -19.113,25.184 -21.529,43.383c-6.724,50.653 30.95,101.473 33.908,105.936c28.809,43.453 93.474,79.77 115.913,92.341Z" style="fill:#532f1a;"/><path d="M259.723,872.536c19.833,0 37.51,-5.892 48.719,-19.258l-21.126,-28.886c-6.611,5.892 -13.94,10.922 -23.425,10.922c-7.905,-0 -19.402,-6.18 -19.402,-22.707c0,-12.791 10.204,-21.701 24.432,-21.701c9.197,-0 17.533,1.868 27.449,9.485l10.06,-35.641c-14.802,-4.743 -25.725,-7.33 -44.264,-7.33c-36.647,0 -64.241,21.845 -64.241,58.205c0,36.504 27.594,56.911 61.798,56.911Z" style="fill:#532f1a;fill-rule:nonzero;"/><path d="M315.628,868.8l42.827,-0l0,-33.486c0,-4.886 4.312,-11.21 10.635,-11.21c3.593,0 9.486,3.162 10.204,9.054c-0.287,15.378 -0.862,31.33 -1.868,35.642l42.827,-0l-0,-107.787l-40.959,0l0,38.516c-1.581,-0.144 -3.162,-0.288 -4.743,-0.288c-5.173,0 -11.066,1.725 -16.096,5.318l0,-43.546l-40.959,0l0,61.223c0,17.964 -0.574,41.246 -1.868,46.564Z" style="fill:#532f1a;fill-rule:nonzero;"/><path d="M435.416,825.859c-3.736,-6.188 -5.822,-13.39 -5.822,-21.486c0,-0.388 0.005,-0.773 0.015,-1.157c0.716,-28.637 28.031,-45.796 61.783,-45.796c7.404,0 14.498,0.826 21.07,2.417c-0.827,1.505 -1.541,2.978 -2.152,4.355c-0.208,-0.079 -0.417,-0.157 -0.627,-0.233c-17.737,-6.39 -37.325,2.822 -43.716,20.559c-6.39,17.737 2.822,37.325 20.559,43.716c17.737,6.39 37.325,-2.822 43.716,-20.559c5.56,-15.433 -0.692,-32.268 -14.095,-40.591c1.363,-1.985 2.702,-3.632 3.924,-4.978c19.336,6.93 32.608,21.264 33.104,41.11c0.01,0.384 0.015,0.769 0.015,1.157c-0,6.654 -1.409,12.704 -3.985,18.083l0.01,-0.002c-0.034,0.064 -0.067,0.127 -0.1,0.19c-0.225,0.463 -0.458,0.921 -0.7,1.374c-4.498,9.153 -2.617,12.24 -4.727,17.661c-0.807,2.074 -5.004,-0.496 -5.048,-0.496c-6.439,-0 0.05,16.108 -14.501,8.44c-6.933,-3.653 -6.129,14.999 -17.588,5.316c-5.28,-4.462 -6.543,3.984 -11.948,6.945c-10.432,5.715 -11.587,-15.69 -17.807,-6.052c-8.853,13.717 -13.78,-4.651 -14.282,-5.552c-5.224,-9.378 -5.877,4.203 -10.838,2.766c-1.742,-0.505 -4.38,-9.431 -4.636,-10.297c-1.555,-5.26 -4.319,-1.361 -5.651,-0.802c-5.381,2.262 -4.23,-11.424 -5.973,-16.088Zm77.262,-55.908c3.947,1.784 6.473,4.447 5.802,6.309c-0.754,2.094 -5.27,2.389 -10.076,0.657c-4.807,-1.732 -8.097,-4.838 -7.343,-6.933c0.692,-1.919 4.539,-2.327 8.875,-1.05c0.809,-2.267 2.054,-5.315 3.813,-8.504c2.951,-5.351 5.777,-8.242 6.475,-9.002l4.263,4.738c-1.169,0.882 -6.692,4.876 -11.809,13.785Z" style="fill:#532f1a;"/><path d="M553.043,827.993c0.097,1.303 0.147,2.63 0.147,3.979c-0,31.949 -27.594,51.068 -61.798,51.068c-34.204,-0 -61.798,-19.119 -61.798,-51.068c0,-1.349 0.05,-2.676 0.148,-3.979c2.204,29.542 28.896,47.075 61.65,47.075c32.754,-0 59.446,-17.533 61.651,-47.075Z" style="fill:#532f1a;"/><path d="M623.61,872.536c19.833,0 37.51,-5.892 48.72,-19.258l-21.126,-28.886c-6.611,5.892 -13.941,10.922 -23.426,10.922c-7.904,-0 -19.402,-6.18 -19.402,-22.707c0,-12.791 10.204,-21.701 24.432,-21.701c9.198,-0 17.533,1.868 27.45,9.485l10.06,-35.641c-14.803,-4.743 -25.725,-7.33 -44.265,-7.33c-36.647,0 -64.24,21.845 -64.24,58.205c-0,36.504 27.593,56.911 61.797,56.911Z" style="fill:#532f1a;fill-rule:nonzero;"/><path d="M733.121,873.973c34.205,0 61.798,-21.844 61.798,-58.348c0,-36.36 -27.593,-58.205 -61.798,-58.205c-34.204,0 -61.797,21.845 -61.797,58.205c-0,36.504 27.593,58.348 61.797,58.348Zm0,-28.886c-7.904,-0 -14.227,-7.474 -14.227,-29.462c-0,-21.845 6.323,-29.318 14.227,-29.318c7.905,0 14.228,7.473 14.228,29.318c0,21.988 -6.323,29.462 -14.228,29.462Z" style="fill:#532f1a;fill-rule:nonzero;"/><path d="M847.088,842.931l-0,-57.343c14.228,0 20.407,13.222 20.407,30.037c0,15.665 -4.455,27.306 -20.407,27.306Zm-0,28.168c35.641,0 61.797,-7.617 61.797,-55.474c0,-42.684 -25.581,-56.911 -61.797,-56.911c-13.653,-0 -29.031,1.293 -40.959,2.299l-0,61.223c-0,17.964 -0.575,41.246 -1.868,46.564c13.509,1.437 28.599,2.299 42.827,2.299Z" style="fill:#532f1a;fill-rule:nonzero;"/><path d="M978.587,873.973c34.205,0 61.798,-21.844 61.798,-58.348c0,-36.36 -27.593,-58.205 -61.798,-58.205c-34.204,0 -61.797,21.845 -61.797,58.205c-0,36.504 27.593,58.348 61.797,58.348Zm0,-28.886c-7.904,-0 -14.227,-7.474 -14.227,-29.462c-0,-21.845 6.323,-29.318 14.227,-29.318c7.905,0 14.228,7.473 14.228,29.318c0,21.988 -6.323,29.462 -14.228,29.462Z" style="fill:#532f1a;fill-rule:nonzero;"/><path d="M1110.81,872.536c19.832,0 37.509,-5.892 48.719,-19.258l-21.126,-28.886c-6.611,5.892 -13.94,10.922 -23.426,10.922c-7.904,-0 -19.401,-6.18 -19.401,-22.707c-0,-12.791 10.204,-21.701 24.431,-21.701c9.198,-0 17.534,1.868 27.45,9.485l10.06,-35.641c-14.803,-4.743 -25.725,-7.33 -44.264,-7.33c-36.648,0 -64.241,21.845 -64.241,58.205c0,36.504 27.593,56.911 61.798,56.911Z" style="fill:#532f1a;fill-rule:nonzero;"/><path d="M688.562,659.301c2.626,-1.452 26.37,-14.765 41.14,-23.758c0.166,-0.101 15.919,-9.726 27.682,-17.403c46.086,-30.079 69.299,-51.704 73.57,-55.621c29.426,-26.988 40.127,-45.533 43.076,-50.092c-4.174,8.413 -10.319,21.014 -26.316,41.224c-9.559,12.076 -27.384,31.251 -46.142,47.761c-12.71,11.187 -49.173,42.503 -103.322,73.136c-1.325,0.749 -11.297,7.149 -23.346,0.893c-0.647,-0.336 -31.639,-17.156 -67.581,-43.823c-16.08,-11.93 -64.228,-48.286 -95.643,-93.446c-3.853,-5.539 -7.021,-10.881 -7.596,-11.85c-3.506,-5.913 -5.539,-10.068 -6.654,-12.292c6.086,9.57 25.676,40.825 85.845,84.21c0.511,0.368 25.293,18.653 63,40.702c12.807,7.489 34.86,19.654 37.594,20.917l0.001,-0.002c1.343,0.37 2.143,0.379 3.621,-0.063l0.01,-0.004c0.467,-0.196 0.476,-0.21 1.061,-0.489Z" style="fill:#975530;"/><path d="M836.883,291.805c20.502,0 37.147,16.645 37.147,37.147c-0,20.501 -16.645,37.146 -37.147,37.146c-20.501,-0 -37.146,-16.645 -37.146,-37.146c0,-20.502 16.645,-37.147 37.146,-37.147Zm3.468,4.955c-5.556,0 -10.067,1.966 -10.067,4.387c-0,2.421 4.511,4.386 10.067,4.386c5.556,0 10.067,-1.965 10.067,-4.386c-0,-2.421 -4.511,-4.387 -10.067,-4.387Z" style="fill:#c70000;"/><path d="M841.584,300.784c-0.024,0.202 -0.194,0.355 -0.398,0.357c-0.446,0.003 -1.205,0.008 -1.657,0.011c-0.212,0.002 -0.39,-0.161 -0.406,-0.372c-0.118,-1.497 -0.465,-7.286 0.62,-14.085c1.047,-6.561 2.871,-10.561 3.306,-11.596l6.108,3.276c-0.971,1.486 -6.046,8.914 -7.573,22.409Z" style="fill:#900;"/><path d="M738.307,586.505c18.866,-12.69 41.598,-29.496 64.52,-49.915c45.973,-40.952 68.332,-74.741 76.489,-87.149c-0.471,5.344 -1.114,12.503 -1.861,20.439c-0.718,7.616 -3.907,14.788 -9.079,20.424c-14.013,14.957 -33.465,33.552 -59.53,53.565c-24.363,18.706 -47.948,33.632 -67.068,44.635c-1.171,-0.67 -2.328,-1.336 -3.471,-1.999Z" style="fill:#975530;"/><path d="M481.077,432.951c8.845,20.863 24.859,51.066 52.21,84.416c56.717,69.155 125.989,107.84 152.816,122.479c-24.568,-11.7 -113.868,-53.799 -180.443,-138.032c-11.152,-14.048 -18.562,-30.693 -21.537,-48.381c-1.22,-7.215 -2.225,-14.06 -3.046,-20.482Z" style="fill:#975530;"/><path d="M512.694,450.806c-1.028,-3.586 -2.654,-6.973 -4.811,-10.017c-3.927,-5.541 -7.412,-11.062 -10.427,-16.536c-3.43,-6.226 -44.264,-71.632 -31.491,-138.047c13.242,-68.857 75.57,-91.748 124.949,-87.032c18.51,1.768 66.037,10.23 98.338,61.617c8.336,12.366 20.268,38.378 3.478,66.141c-10.979,18.155 -34.632,23.981 -52.787,13.002c-18.155,-10.98 -23.981,-34.633 -13.002,-52.788c4.847,-8.014 11.383,-12.198 18.401,-14.488c6.329,-2.171 10.958,-7.638 12.057,-14.239c1.099,-6.601 -1.509,-13.273 -6.793,-17.379c-47.717,-37.165 -113.188,-26.63 -142.592,6.96c-31.135,35.568 -26.961,98.334 11.493,161.435c4.786,7.855 20.035,36.213 74.698,78.405c15.243,11.766 33.092,24.477 55.152,38.447c22.102,14.119 50.366,14.221 72.57,0.263c36.114,-22.61 84.161,-56.549 114.338,-93.578c7.679,-9.424 11.641,-15.458 18.62,-27.3c11.144,-18.909 19.361,-38.091 24.366,-56.636c0.126,-0.467 0.25,-0.933 0.372,-1.399c14.776,-56.485 -0.426,-106.836 -53.754,-125.254c-6.117,-2.112 -12.093,-3.57 -17.822,-4.528c-7.196,-1.157 -14.459,1.645 -19.012,7.337c-4.553,5.691 -5.694,13.392 -2.986,20.159c2.573,6.212 3.553,13.249 1.285,21.438c-5.662,20.447 -26.86,32.451 -47.307,26.789c-20.447,-5.663 -32.45,-26.86 -26.788,-47.307c8.341,-30.12 33.797,-39.747 48.807,-42.585c43.922,-10.801 93.1,1.672 120.465,34.888c24.186,29.358 31.467,74.091 16.921,125.155c113.643,96.07 170.005,211.402 118.127,270.772c-45.917,52.548 -165.327,40.43 -290.526,-27.538c-24.125,-13.098 -43.067,-25.38 -52.963,-31.988c-0.677,-0.379 -3.807,-2.153 -6.309,-3.578c-1.8,-1.028 -3.96,-1.219 -5.912,-0.521c-4.282,1.632 -7.858,3.642 -9.475,4.215c-30.725,10.883 -38.749,-31.377 -48.593,-44.357c-1.714,-1.217 -3.415,-2.437 -5.104,-3.661c-0.98,-0.101 -2.005,0.132 -3.093,0.754c-40.219,23.021 -38.504,-24.593 -47.235,-41.783c-1.571,-3.091 -3.479,-5.199 -6.029,-5.735c-1.818,-0.382 -3.962,0.035 -6.543,1.462c-11.921,6.594 -17.642,-11.727 -23.083,-30.965Zm386.094,-84.858c-5.404,18.243 -13.582,37.272 -24.758,56.679c-6.257,10.865 -31.828,61.628 -142.41,131.787l-0.002,0.001c-5.48,3.477 -8.773,9.537 -8.709,16.026c0.064,6.488 3.477,12.483 9.023,15.85c36.249,21.435 87.942,47.348 143.701,59.846c88.774,19.896 148.313,-3.662 151.485,-64.688c1.769,-34.015 -14.243,-77.181 -45.54,-122.751c-25.782,-37.54 -56.658,-69.211 -82.79,-92.75Z" style="fill:#975530;"/></g><path d="M875.251,962.706c-1.784,2.18 -3.615,4.102 -5.493,5.764c-2.413,2.172 -4.907,3.801 -7.481,4.887c-2.534,1.127 -5.149,1.529 -7.844,1.207c-1.73,-0.161 -3.158,-0.744 -4.284,-1.75c-1.086,-0.965 -1.931,-2.212 -2.534,-3.74c-0.563,-1.569 -0.885,-3.359 -0.965,-5.37c-0.121,-2.012 -0.02,-4.143 0.301,-6.396c0.362,-2.735 1.006,-5.551 1.931,-8.447c0.925,-2.896 2.031,-5.712 3.319,-8.447c1.327,-2.735 2.815,-5.269 4.464,-7.602c1.69,-2.333 3.48,-4.284 5.37,-5.853c1.891,-1.569 3.842,-2.675 5.853,-3.318c2.051,-0.644 4.103,-0.624 6.154,0.06c1.287,0.402 2.192,1.287 2.715,2.655c0.564,1.327 0.845,2.936 0.845,4.827c0,1.85 -0.221,3.881 -0.664,6.093c-0.442,2.213 -1.005,4.405 -1.689,6.577c-0.684,2.172 -1.448,4.244 -2.293,6.215c-0.844,1.93 -1.669,3.58 -2.474,4.947c-0.241,0.362 -0.724,0.523 -1.448,0.483c-0.724,-0.04 -1.428,-0.241 -2.111,-0.603c-0.644,-0.362 -1.147,-0.825 -1.509,-1.388c-0.322,-0.603 -0.201,-1.247 0.362,-1.931c0.402,-0.523 0.945,-1.468 1.629,-2.836c0.684,-1.367 1.388,-2.916 2.112,-4.646c0.724,-1.769 1.388,-3.6 1.991,-5.49c0.604,-1.931 1.026,-3.701 1.267,-5.31c0.242,-1.609 0.242,-2.936 0,-3.982c-0.241,-1.046 -0.844,-1.609 -1.81,-1.689c-0.965,-0.041 -2.071,0.523 -3.318,1.689c-1.207,1.126 -2.454,2.655 -3.741,4.586c-1.287,1.89 -2.554,4.082 -3.801,6.576c-1.207,2.454 -2.313,4.988 -3.319,7.603c-0.965,2.614 -1.77,5.189 -2.413,7.723c-0.604,2.534 -0.925,4.806 -0.966,6.818c-0.04,2.011 0.262,3.68 0.905,5.008c0.644,1.287 1.73,2.011 3.259,2.172c1.407,0.161 2.876,-0.101 4.404,-0.785c1.569,-0.684 3.117,-1.609 4.646,-2.775c1.528,-1.167 3.017,-2.514 4.465,-4.043c1.488,-1.568 2.856,-3.137 4.103,-4.706c1.247,-1.569 2.353,-3.077 3.318,-4.525c1.006,-1.488 1.81,-2.776 2.414,-3.862c0.321,-0.603 0.704,-0.965 1.146,-1.086c0.271,-0.074 0.519,-0.087 0.744,-0.04c0.559,-0.597 1.135,-1.147 1.73,-1.649c1.206,-0.965 2.353,-1.307 3.439,-1.026c1.086,0.322 2.132,0.865 3.137,1.629c0.443,0.242 0.845,0.503 1.207,0.785l0.241,-0.483c0.121,-0.161 0.262,-0.342 0.423,-0.543l0.724,-1.086c0.281,-0.402 0.503,-0.664 0.664,-0.785c0.522,-0.522 1.206,-0.603 2.051,-0.241c0.804,0.241 1.528,0.704 2.172,1.388c0.603,0.603 0.744,1.227 0.422,1.87c-2.493,4.224 -4.002,7.824 -4.525,10.8c-0.482,3.017 -0.442,4.787 0.121,5.31c0.724,0.483 1.83,-0.241 3.318,-2.172c0.765,-0.885 1.489,-1.911 2.172,-3.077c0.684,-1.167 1.368,-2.454 2.052,-3.862c0.684,-1.448 1.207,-2.856 1.569,-4.223c0.402,-1.368 0.704,-2.695 0.905,-3.982c0.161,-2.575 -0.604,-4.405 -2.293,-5.491c-0.563,-0.282 -0.724,-0.804 -0.483,-1.569c0.081,-0.362 0.221,-0.724 0.423,-1.086c0.201,-0.362 0.462,-0.704 0.784,-1.026c0.644,-0.804 1.267,-1.307 1.87,-1.508c0.724,-0.322 1.267,-0.201 1.629,0.362c0.202,0.201 0.362,0.402 0.483,0.603c0.121,0.161 0.221,0.342 0.302,0.543c0.362,0.604 0.784,1.147 1.267,1.63c0.241,0.241 0.583,0.522 1.026,0.844c0.442,0.282 0.985,0.624 1.629,1.026c2.453,1.166 4.364,2.494 5.732,3.982c1.327,1.569 1.749,3.842 1.267,6.818c-0.161,0.724 -0.403,1.629 -0.724,2.715c-0.322,1.046 -0.724,2.273 -1.207,3.681c-0.483,1.327 -0.945,2.675 -1.388,4.042c-0.402,1.328 -0.824,2.695 -1.267,4.103c-0.362,1.408 -0.643,2.715 -0.845,3.922c-0.201,1.167 -0.301,2.273 -0.301,3.318c-0,1.891 0.764,2.937 2.292,3.138c-0.563,0.885 -1.508,1.166 -2.835,0.845c-1.408,-0.322 -2.635,-1.187 -3.681,-2.595c-1.126,-1.327 -1.508,-3.198 -1.146,-5.611c0.362,-1.529 0.804,-3.158 1.327,-4.887c0.563,-1.77 1.227,-3.62 1.991,-5.551c0.443,-1.207 0.825,-2.313 1.147,-3.319c0.321,-1.005 0.603,-1.91 0.844,-2.715c0.644,-2.172 0.765,-3.982 0.362,-5.43c-0.442,-1.368 -1.649,-2.454 -3.62,-3.258c-0.08,3.902 -1.287,8.407 -3.62,13.515c-2.454,5.189 -5.149,8.749 -8.085,10.68c-0.764,0.362 -1.83,0.422 -3.198,0.181c-1.247,-0.362 -2.433,-0.926 -3.56,-1.69c-1.086,-0.724 -1.729,-1.609 -1.93,-2.655c-0.242,-1.528 -0.041,-3.539 0.603,-6.033c-0.322,0.442 -0.684,0.905 -1.086,1.388c-0.362,0.482 -0.764,1.025 -1.207,1.629c-1.689,2.373 -3.56,4.585 -5.611,6.637c-0.523,0.442 -1.327,0.543 -2.413,0.301c-1.046,-0.241 -2.012,-0.704 -2.897,-1.387c-0.844,-0.644 -1.267,-1.388 -1.267,-2.233c0.074,-0.591 0.175,-1.185 0.304,-1.782Zm13.996,-10.828c0.08,-0.081 0.161,-0.382 0.241,-0.905c0,-0.402 -0.06,-0.764 -0.181,-1.086c-0.12,-0.403 -0.301,-0.624 -0.543,-0.664c-0.322,-0.04 -0.704,0.161 -1.146,0.603c-1.891,2.012 -3.419,4.304 -4.586,6.879c-0.683,1.287 -1.186,2.393 -1.508,3.318c-0.282,0.885 -0.463,1.609 -0.543,2.172c0.965,-0.885 2.313,-2.413 4.042,-4.585c0.845,-1.086 1.609,-2.112 2.293,-3.077c0.724,-0.966 1.368,-1.851 1.931,-2.655Zm-79.304,-12.929c-1.307,-0.272 -2.788,-0.447 -4.443,-0.526c-3.057,4.706 -5.53,9.694 -7.421,14.963c-0.965,2.695 -1.709,5.189 -2.232,7.482c-0.483,2.293 -0.724,4.404 -0.724,6.335c-0,3.821 1.367,5.732 4.102,5.732c-1.528,1.529 -3.338,1.81 -5.43,0.845c-2.212,-1.006 -3.499,-3.198 -3.861,-6.577c-0.081,-0.925 -0.061,-1.991 0.06,-3.198c0.161,-1.247 0.422,-2.634 0.784,-4.163c-1.005,1.569 -2.192,2.997 -3.559,4.284c-1.288,1.247 -2.514,1.991 -3.681,2.232c-1.166,0.081 -2.313,-0.402 -3.439,-1.448c-1.086,-1.166 -1.609,-2.373 -1.569,-3.62c0.242,-1.81 1.126,-4.626 2.655,-8.447c1.609,-3.781 3.117,-6.778 4.525,-8.99c0.443,-0.442 1.086,-0.543 1.931,-0.302c0.442,0.081 0.845,0.222 1.207,0.423c0.402,0.201 0.764,0.422 1.086,0.663c0.724,0.564 0.925,1.127 0.603,1.69c-4.425,8.045 -6.194,12.691 -5.31,13.938c0.604,0.764 1.408,0.543 2.414,-0.664c0.483,-0.604 1.006,-1.307 1.569,-2.112c0.563,-0.845 1.126,-1.79 1.689,-2.836c0.563,-1.046 1.106,-2.071 1.629,-3.077c0.563,-1.005 1.066,-2.011 1.509,-3.017c0.442,-1.005 0.824,-1.85 1.146,-2.534l0.845,-1.689c0.402,-0.925 0.784,-1.81 1.146,-2.655c0.402,-0.885 0.825,-1.75 1.267,-2.594c-1.528,0.281 -2.976,0.703 -4.344,1.267c-1.368,0.563 -2.695,1.267 -3.982,2.111c-0.523,0.121 -1.026,-0.08 -1.509,-0.603c-0.321,-0.282 -0.603,-0.583 -0.844,-0.905c-0.202,-0.362 -0.403,-0.744 -0.604,-1.146c-0.201,-0.443 -0.342,-0.865 -0.422,-1.267c-0.081,-0.403 -0.141,-0.785 -0.181,-1.147c-0,-0.764 0.281,-1.247 0.845,-1.448c2.051,-0.442 4.203,-0.784 6.456,-1.026c2.252,-0.281 4.645,-0.502 7.18,-0.663c1.367,-2.333 2.735,-4.284 4.102,-5.853c0.564,-0.563 1.348,-0.603 2.354,-0.121c1.045,0.483 1.85,1.187 2.413,2.112c0.644,0.885 0.623,1.73 -0.06,2.534c-0.201,0.242 -0.423,0.483 -0.664,0.724c-0.201,0.242 -0.422,0.483 -0.664,0.724c1.086,0.081 2.072,0.222 2.957,0.423c0.266,0.046 0.525,0.094 0.778,0.144c0.042,-0.069 0.085,-0.137 0.127,-0.205c1.166,-1.85 2.232,-3.218 3.198,-4.102c0.522,-0.523 1.166,-0.725 1.93,-0.604c0.765,0.081 1.468,0.322 2.112,0.724c0.644,0.362 1.126,0.825 1.448,1.388c0.322,0.563 0.342,1.046 0.06,1.448c-0.522,0.241 -1.367,1.066 -2.534,2.474c-0.483,0.604 -0.993,1.28 -1.529,2.025c0.487,1.09 0.655,2.145 0.504,3.164c-0.121,1.126 -0.523,1.85 -1.207,2.172c0.199,-0.994 -0.194,-1.857 -1.178,-2.591c-0.129,0.197 -0.259,0.397 -0.391,0.6c-1.367,2.172 -2.755,4.625 -4.163,7.361c-1.408,2.735 -2.615,5.571 -3.62,8.507c0.643,-0.925 1.347,-1.89 2.112,-2.896c0.764,-1.046 1.528,-2.051 2.292,-3.017c0.805,-0.965 1.589,-1.83 2.353,-2.594c0.805,-0.805 1.569,-1.428 2.293,-1.871c0.523,-0.322 1.127,-0.422 1.81,-0.301c0.724,0.08 1.388,0.301 1.991,0.663c0.604,0.362 1.066,0.805 1.388,1.328c0.322,0.523 0.362,1.045 0.121,1.568c-0.362,0.805 -0.825,1.77 -1.388,2.897c-0.523,1.126 -1.046,2.312 -1.569,3.559c-0.482,1.207 -0.925,2.394 -1.327,3.56c-0.362,1.126 -0.543,2.112 -0.543,2.957c0.925,-0.483 1.85,-1.147 2.775,-1.991c0.926,-0.885 1.831,-1.891 2.716,-3.017c0.884,-1.167 1.729,-2.414 2.534,-3.741c0.804,-1.327 1.568,-2.655 2.292,-3.982c0.121,-0.282 0.342,-0.423 0.664,-0.423c0.322,0 0.624,0.101 0.905,0.302c0.282,0.161 0.523,0.402 0.724,0.724c0.201,0.282 0.242,0.563 0.121,0.845c-0.644,1.528 -1.428,3.057 -2.353,4.585c-0.925,1.529 -1.891,2.957 -2.896,4.284c-1.006,1.328 -1.991,2.474 -2.957,3.439c-0.965,0.966 -1.83,1.65 -2.594,2.052c-0.523,0.281 -1.147,0.402 -1.871,0.362c-0.724,-0.081 -1.428,-0.242 -2.111,-0.483c-0.684,-0.241 -1.288,-0.563 -1.811,-0.965c-0.522,-0.402 -0.844,-0.805 -0.965,-1.207c-0.161,-0.684 -0.141,-1.569 0.06,-2.655c0.202,-1.086 0.463,-2.172 0.785,-3.258c0.362,-1.086 0.704,-2.071 1.025,-2.956c0.322,-0.885 0.523,-1.469 0.604,-1.75c-0.805,0.684 -1.75,1.709 -2.836,3.077c-1.046,1.368 -2.092,2.836 -3.137,4.405c-1.046,1.568 -2.032,3.097 -2.957,4.585c-0.885,1.488 -1.549,2.695 -1.991,3.62c-0.201,0.403 -0.583,0.624 -1.146,0.664c-0.604,-0 -1.207,-0.101 -1.81,-0.302c-0.644,-0.241 -1.187,-0.543 -1.63,-0.905c-0.482,-0.362 -0.663,-0.744 -0.543,-1.146c0.322,-1.207 0.845,-2.816 1.569,-4.827c0.724,-2.051 1.569,-4.284 2.534,-6.697c0.966,-2.414 2.011,-4.908 3.138,-7.482c1.166,-2.615 2.333,-5.068 3.499,-7.361c0.358,-0.693 0.713,-1.362 1.064,-2.008Zm-93.195,16.865c-1.378,0.844 -2.706,1.704 -3.984,2.58c-1.368,0.966 -2.675,1.971 -3.922,3.017c-0.483,0.362 -0.905,0.885 -1.267,1.569c-0.764,1.649 -1.71,3.499 -2.836,5.551c-1.086,2.051 -2.252,4.022 -3.499,5.913c-1.247,1.93 -2.514,3.6 -3.802,5.007c-1.247,1.408 -2.433,2.293 -3.559,2.655c-0.483,0.161 -1.207,0.121 -2.172,-0.12c-1.006,-0.242 -1.911,-0.664 -2.716,-1.268c-0.844,-0.603 -1.448,-1.367 -1.81,-2.292c-0.362,-0.925 -0.181,-1.971 0.543,-3.138c0.925,-1.488 2.193,-3.017 3.801,-4.585c1.609,-1.609 3.218,-3.098 4.827,-4.465c1.609,-1.368 3.037,-2.575 4.284,-3.62c1.287,-1.046 2.032,-1.77 2.233,-2.172c0.442,-0.805 0.865,-1.73 1.267,-2.776c0.402,-1.086 0.744,-2.031 1.025,-2.836c-0.563,0.684 -1.206,1.448 -1.93,2.293c-0.684,0.845 -1.428,1.689 -2.233,2.534c-0.764,0.845 -1.548,1.629 -2.353,2.353c-0.804,0.724 -1.569,1.328 -2.293,1.81c-0.442,0.282 -1.025,0.362 -1.749,0.242c-0.724,-0.121 -1.408,-0.362 -2.052,-0.724c-0.574,-0.304 -1.063,-0.665 -1.467,-1.082c-0.505,0.615 -1.022,1.197 -1.55,1.745c-0.965,1.046 -1.87,1.79 -2.715,2.233c-0.563,0.281 -1.206,0.402 -1.93,0.362c-0.725,-0.081 -1.428,-0.242 -2.112,-0.483c-0.684,-0.241 -1.287,-0.563 -1.81,-0.965c-0.523,-0.402 -0.825,-0.805 -0.905,-1.207c-0.161,-0.684 -0.161,-1.609 -0,-2.775c0.161,-1.167 0.382,-2.333 0.663,-3.5c0.322,-1.166 0.624,-2.212 0.905,-3.137c0.322,-0.966 0.543,-1.589 0.664,-1.871c-0.804,0.684 -1.709,1.669 -2.715,2.957c-1.006,1.287 -2.011,2.654 -3.017,4.103c-0.965,1.448 -1.87,2.876 -2.715,4.283c-0.804,1.408 -1.428,2.575 -1.87,3.5c-0.202,0.362 -0.604,0.563 -1.207,0.603c-0.603,0 -1.207,-0.1 -1.81,-0.301c-0.604,-0.202 -1.126,-0.483 -1.569,-0.845c-0.483,-0.362 -0.664,-0.724 -0.543,-1.086c0.241,-0.966 0.603,-2.233 1.086,-3.801c0.02,-0.066 0.04,-0.133 0.06,-0.199c-0.59,0.775 -1.194,1.505 -1.81,2.19c-1.046,1.206 -1.991,1.991 -2.835,2.353c-0.523,0.201 -1.127,0.261 -1.811,0.181c-0.683,-0.081 -1.327,-0.262 -1.93,-0.543c-0.604,-0.322 -1.106,-0.724 -1.509,-1.207c-0.402,-0.523 -0.583,-1.106 -0.543,-1.75c0.04,-0.804 0.221,-1.87 0.543,-3.197c0.282,-1.368 0.684,-2.796 1.207,-4.284c0.483,-1.529 1.026,-3.017 1.629,-4.465c0.603,-1.489 1.227,-2.756 1.871,-3.801c0.201,-0.322 0.603,-0.483 1.206,-0.483c0.644,-0 1.267,0.121 1.871,0.362c0.603,0.241 1.106,0.563 1.508,0.965c0.402,0.403 0.503,0.825 0.302,1.267c-1.891,3.621 -3.178,6.456 -3.862,8.508c-0.684,2.011 -0.905,3.318 -0.663,3.922c0.16,0.442 0.502,0.502 1.025,0.181c0.523,-0.362 1.167,-1.026 1.931,-1.991c0.804,-0.966 1.71,-2.213 2.715,-3.741c0.791,-1.202 1.607,-2.529 2.447,-3.979c0.166,-0.422 0.336,-0.845 0.51,-1.271c0.804,-1.971 1.689,-3.801 2.654,-5.49c0.282,-0.563 0.724,-0.845 1.328,-0.845c0.643,0 1.267,0.141 1.87,0.423c0.604,0.281 1.086,0.643 1.448,1.086c0.402,0.442 0.543,0.824 0.423,1.146c-0.403,0.845 -0.845,1.709 -1.328,2.594c-0.442,0.845 -0.885,1.65 -1.327,2.414c-0.402,0.724 -0.764,1.367 -1.086,1.931c-0.282,0.563 -0.443,0.945 -0.483,1.146c0.644,-0.925 1.327,-1.85 2.052,-2.775c0.764,-0.926 1.508,-1.79 2.232,-2.595c0.764,-0.804 1.528,-1.528 2.293,-2.172c0.764,-0.644 1.508,-1.187 2.232,-1.629c0.483,-0.282 1.066,-0.362 1.75,-0.241c0.724,0.12 1.388,0.362 1.991,0.724c0.603,0.362 1.066,0.804 1.388,1.327c0.362,0.483 0.442,0.965 0.241,1.448c-0.322,0.805 -0.744,1.81 -1.267,3.017c-0.523,1.166 -1.026,2.413 -1.508,3.741c-0.483,1.287 -0.905,2.534 -1.267,3.741c-0.362,1.206 -0.543,2.232 -0.543,3.077c0.764,-0.443 1.588,-1.066 2.473,-1.871c0.885,-0.804 1.75,-1.729 2.595,-2.775c0.575,-0.68 1.133,-1.394 1.674,-2.142c0.082,-0.19 0.168,-0.381 0.257,-0.573c0.724,-1.609 1.568,-3.138 2.534,-4.586c1.005,-1.488 2.071,-2.856 3.197,-4.103c1.127,-1.247 2.253,-2.272 3.379,-3.077c0.724,-0.523 1.388,-0.824 1.991,-0.905c0.604,-0.08 1.167,-0.02 1.69,0.181c0.523,0.161 1.025,0.422 1.508,0.784c0.523,0.362 1.046,0.745 1.569,1.147c0.161,-0.201 0.382,-0.523 0.664,-0.966c0.321,-0.442 0.563,-0.724 0.724,-0.844c0.362,-0.282 0.804,-0.402 1.327,-0.362c0.563,-0 1.086,0.12 1.569,0.362c0.523,0.201 0.945,0.482 1.267,0.844c0.322,0.322 0.462,0.664 0.422,1.026c-0.161,0.845 -0.382,1.77 -0.664,2.776c-0.281,0.965 -0.583,1.951 -0.905,2.956c-0.281,1.006 -0.583,1.971 -0.905,2.896c-0.281,0.925 -0.523,1.73 -0.724,2.414c1.489,-1.046 2.776,-1.931 3.862,-2.655c0.416,-0.268 0.83,-0.53 1.24,-0.786c-0.161,-0.905 -0.173,-1.809 -0.033,-2.714c0.12,-1.086 0.402,-2.111 0.844,-3.077c0.443,-0.965 1.006,-1.85 1.69,-2.655c0.724,-0.844 1.528,-1.568 2.413,-2.172c0.443,-0.281 0.966,-0.402 1.569,-0.362c0.603,0 1.207,0.101 1.81,0.302c0.603,0.201 1.146,0.443 1.629,0.724c0.523,0.282 0.925,0.523 1.207,0.724c1.046,-1.689 1.951,-2.936 2.715,-3.741c0.804,-0.844 1.448,-1.488 1.931,-1.93c0.281,-0.202 0.663,-0.141 1.146,0.181c0.483,0.281 0.925,0.683 1.327,1.206c0.443,0.483 0.765,0.986 0.966,1.509c0.241,0.523 0.221,0.885 -0.061,1.086c-0.643,0.442 -1.407,1.146 -2.292,2.111c-0.885,0.966 -1.71,1.992 -2.474,3.078c-0.764,1.086 -1.368,2.152 -1.81,3.197c-0.402,1.006 -0.463,1.831 -0.181,2.474c-0.201,0.081 -0.483,0.061 -0.845,-0.06c-0.322,-0.121 -0.664,-0.302 -1.026,-0.543c-0.321,-0.242 -0.623,-0.543 -0.905,-0.905c-0.281,-0.402 -0.482,-0.825 -0.603,-1.267c-0.08,-0.322 -0.08,-0.684 0,-1.086c0.08,-0.443 0.181,-0.865 0.302,-1.267c0.12,-0.403 0.261,-0.785 0.422,-1.147c0.161,-0.362 0.282,-0.643 0.362,-0.844c-0.764,-0.041 -1.488,0.382 -2.172,1.267c-0.644,0.844 -1.126,1.87 -1.448,3.077c-0.322,1.206 -0.443,2.474 -0.362,3.801c0.08,1.287 0.503,2.373 1.267,3.258c0.764,-0.483 1.649,-1.086 2.655,-1.81c1.046,-0.724 2.091,-1.428 3.137,-2.112c1.046,-0.724 2.072,-1.347 3.077,-1.87c1.046,-0.523 1.951,-0.845 2.715,-0.966c0.564,-0.08 1.207,0.061 1.931,0.423c0.724,0.362 1.247,0.684 1.569,0.965c-0.161,0.161 -0.282,0.262 -0.362,0.302l-0.181,-0c-0.08,-0.04 -0.201,-0.081 -0.362,-0.121c-0.121,-0.04 -0.302,-0.04 -0.543,0c-0.603,0.121 -1.488,0.523 -2.655,1.207c-1.166,0.643 -2.373,1.388 -3.62,2.232c-1.247,0.805 -2.413,1.609 -3.5,2.414c-1.045,0.764 -1.729,1.327 -2.051,1.689c0.201,0.322 0.402,0.624 0.603,0.905c0.202,0.282 0.403,0.583 0.604,0.905c0.603,1.086 0.865,2.172 0.784,3.258c-0.08,1.086 -0.422,2.152 -1.026,3.198c-0.563,1.006 -1.327,1.951 -2.292,2.836c-0.966,0.885 -1.991,1.629 -3.078,2.232c-0.724,0.403 -1.548,0.684 -2.473,0.845c-0.885,0.201 -1.75,0.262 -2.595,0.181c-0.885,-0.04 -1.689,-0.201 -2.413,-0.483c-0.764,-0.281 -1.348,-0.683 -1.75,-1.206c-0.442,-0.563 -0.664,-1.227 -0.664,-1.991c-0.04,-0.765 0.242,-1.65 0.845,-2.655c0.925,-1.529 2.132,-2.957 3.62,-4.284c1.448,-1.327 2.937,-2.574 4.465,-3.741c-0.724,-1.046 -1.468,-2.031 -2.232,-2.956c-0.173,-0.231 -0.334,-0.467 -0.481,-0.71Zm-1.631,14.285c0.563,-0.04 1.227,-0.342 1.991,-0.905c0.804,-0.603 1.529,-1.307 2.172,-2.111c0.684,-0.805 1.207,-1.63 1.569,-2.474c0.402,-0.845 0.483,-1.529 0.241,-2.052c-1.247,1.167 -2.433,2.353 -3.56,3.56c-1.086,1.167 -1.89,2.494 -2.413,3.982Zm-10.257,-20.393c0.201,-0.322 0.362,-0.684 0.482,-1.086c0.121,-0.443 0.161,-0.805 0.121,-1.086c0,-0.282 -0.121,-0.443 -0.362,-0.483c-0.201,-0.04 -0.563,0.161 -1.086,0.603c-0.804,0.684 -1.609,1.509 -2.413,2.474c-0.765,0.925 -1.489,1.891 -2.172,2.896c-0.684,1.006 -1.288,1.971 -1.811,2.896c-0.522,0.925 -0.905,1.73 -1.146,2.414c-0.08,0.362 0,0.543 0.241,0.543c0.242,-0 0.644,-0.242 1.207,-0.724c0.603,-0.483 1.267,-1.147 1.991,-1.991c0.764,-0.845 1.569,-1.81 2.414,-2.896c0.885,-1.127 1.729,-2.313 2.534,-3.56Zm-14.24,28.478c1.328,-0.965 2.655,-2.313 3.983,-4.042c1.367,-1.73 2.554,-3.439 3.559,-5.129l-2.413,2.414c-0.845,0.885 -1.649,1.749 -2.413,2.594c-0.765,0.885 -1.388,1.69 -1.871,2.414c-0.523,0.764 -0.804,1.347 -0.845,1.749Zm-50.174,-18.696c-0.167,0.239 -0.337,0.478 -0.508,0.716c-1.086,1.569 -2.212,2.997 -3.379,4.284c-1.166,1.247 -2.313,2.132 -3.439,2.655c-0.603,0.281 -1.247,0.382 -1.931,0.302c-0.643,-0.121 -1.247,-0.342 -1.81,-0.664c-0.523,-0.362 -0.985,-0.785 -1.387,-1.267c-0.362,-0.523 -0.564,-1.026 -0.604,-1.509c-0.08,-0.643 0,-1.528 0.242,-2.654c0.241,-1.127 0.502,-2.152 0.784,-3.078c-0.483,0.564 -1.006,1.227 -1.569,1.992c-0.523,0.724 -1.106,1.508 -1.75,2.353c-0.643,0.844 -1.327,1.689 -2.051,2.534c-0.684,0.844 -1.408,1.629 -2.172,2.353c-0.362,0.362 -0.925,0.503 -1.69,0.422c-0.724,-0.08 -1.448,-0.281 -2.172,-0.603c-0.724,-0.362 -1.347,-0.805 -1.87,-1.328c-0.563,-0.563 -0.805,-1.146 -0.724,-1.749c0.121,-1.529 0.483,-3.158 1.086,-4.887c0.603,-1.73 1.347,-3.399 2.232,-5.008c0.845,-1.65 1.79,-3.178 2.836,-4.586c1.086,-1.408 2.152,-2.554 3.198,-3.439c0.764,-0.603 1.468,-0.945 2.112,-1.026c0.643,-0.08 1.267,0 1.87,0.242c0.604,0.201 1.207,0.522 1.81,0.965c0.604,0.402 1.247,0.804 1.931,1.207c0.443,-0.483 0.865,-0.986 1.267,-1.509c0.443,-0.563 0.905,-1.106 1.388,-1.629c0.281,-0.362 0.724,-0.503 1.327,-0.422c0.644,0.08 1.247,0.301 1.81,0.663c0.563,0.363 1.006,0.805 1.328,1.328c0.362,0.483 0.402,0.945 0.12,1.388c-1.367,2.333 -2.473,4.404 -3.318,6.214c-0.805,1.81 -1.408,3.339 -1.81,4.586c-0.362,1.247 -0.543,2.192 -0.543,2.836c0.04,0.643 0.201,0.965 0.482,0.965c0.805,-0.04 2.032,-1.126 3.681,-3.258c1.564,-2.022 3.472,-4.949 5.724,-8.78c0.083,-0.224 0.166,-0.435 0.249,-0.633c0.322,-0.804 0.604,-1.327 0.845,-1.568c0.282,-0.282 0.704,-0.382 1.267,-0.302c0.563,0.04 1.106,0.181 1.629,0.422c0.523,0.242 0.965,0.543 1.327,0.905c0.363,0.322 0.483,0.624 0.363,0.905c-0.282,0.564 -0.644,1.549 -1.087,2.957c-0.442,1.367 -0.884,2.836 -1.327,4.404c-0.402,1.569 -0.764,3.078 -1.086,4.526c-0.282,1.448 -0.402,2.514 -0.362,3.197c0.201,-0.04 0.684,-0.522 1.448,-1.448c0.764,-0.925 1.609,-2.091 2.534,-3.499c0.925,-1.448 1.83,-3.057 2.715,-4.827c0.925,-1.77 1.609,-3.52 2.052,-5.249c0.482,-1.73 0.643,-3.339 0.482,-4.827c-0.16,-1.488 -0.824,-2.675 -1.991,-3.56c0.724,-0.322 1.529,-0.282 2.414,0.121c0.925,0.362 1.729,0.985 2.413,1.87c0.684,0.885 1.187,1.971 1.509,3.258c0.321,1.247 0.281,2.554 -0.121,3.922c-0.443,1.448 -1.086,3.077 -1.931,4.887c-0.845,1.77 -1.79,3.52 -2.836,5.25c-1.005,1.689 -2.051,3.238 -3.137,4.645c-1.046,1.408 -2.011,2.434 -2.896,3.078c-0.483,0.362 -1.126,0.583 -1.931,0.663c-0.804,0.041 -1.609,-0.02 -2.413,-0.181c-0.765,-0.201 -1.448,-0.523 -2.052,-0.965c-0.603,-0.443 -0.965,-0.986 -1.086,-1.629c-0.121,-0.724 -0.141,-1.649 -0.06,-2.776c0.08,-1.126 0.241,-2.333 0.482,-3.62c0.028,-0.178 0.056,-0.357 0.086,-0.535Zm-11.791,-7.671c0.121,-0.16 0.181,-0.442 0.181,-0.844c0,-0.402 -0.08,-0.764 -0.241,-1.086c-0.121,-0.362 -0.322,-0.584 -0.603,-0.664c-0.282,-0.08 -0.644,0.121 -1.086,0.603c-0.926,0.885 -1.79,1.931 -2.595,3.138c-0.764,1.207 -1.448,2.393 -2.051,3.56c-0.564,1.166 -1.026,2.252 -1.388,3.258c-0.362,0.965 -0.543,1.689 -0.543,2.172c0.442,-0.362 1.026,-0.945 1.75,-1.75c0.764,-0.844 1.548,-1.77 2.353,-2.775c0.804,-1.006 1.589,-2.011 2.353,-3.017c0.764,-1.006 1.388,-1.87 1.87,-2.595Zm-32.241,11.784c-1.546,1.815 -3.128,3.438 -4.745,4.869c-2.413,2.172 -4.907,3.801 -7.481,4.887c-2.535,1.127 -5.149,1.529 -7.844,1.207c-1.73,-0.161 -3.158,-0.744 -4.284,-1.75c-1.086,-0.965 -1.931,-2.212 -2.534,-3.74c-0.563,-1.569 -0.885,-3.359 -0.966,-5.37c-0.12,-2.012 -0.02,-4.143 0.302,-6.396c0.362,-2.735 1.006,-5.551 1.931,-8.447c0.925,-2.896 2.031,-5.712 3.318,-8.447c1.328,-2.735 2.816,-5.269 4.465,-7.602c1.69,-2.333 3.48,-4.284 5.37,-5.853c1.891,-1.569 3.842,-2.675 5.853,-3.318c2.051,-0.644 4.103,-0.624 6.154,0.06c1.287,0.402 2.192,1.287 2.715,2.655c0.563,1.327 0.845,2.936 0.845,4.827c-0,1.85 -0.221,3.881 -0.664,6.093c-0.442,2.213 -1.005,4.405 -1.689,6.577c-0.684,2.172 -1.448,4.244 -2.293,6.215c-0.845,1.93 -1.669,3.58 -2.474,4.947c-0.241,0.362 -0.724,0.523 -1.448,0.483c-0.724,-0.04 -1.428,-0.241 -2.112,-0.603c-0.643,-0.362 -1.146,-0.825 -1.508,-1.388c-0.322,-0.603 -0.201,-1.247 0.362,-1.931c0.402,-0.523 0.945,-1.468 1.629,-2.836c0.684,-1.367 1.388,-2.916 2.112,-4.646c0.724,-1.769 1.388,-3.6 1.991,-5.49c0.603,-1.931 1.026,-3.701 1.267,-5.31c0.241,-1.609 0.241,-2.936 0,-3.982c-0.241,-1.046 -0.845,-1.609 -1.81,-1.689c-0.965,-0.041 -2.072,0.523 -3.319,1.689c-1.206,1.126 -2.453,2.655 -3.74,4.586c-1.288,1.89 -2.555,4.082 -3.802,6.576c-1.206,2.454 -2.312,4.988 -3.318,7.603c-0.965,2.614 -1.77,5.189 -2.414,7.723c-0.603,2.534 -0.925,4.806 -0.965,6.818c-0.04,2.011 0.262,3.68 0.905,5.008c0.644,1.287 1.73,2.011 3.258,2.172c1.408,0.161 2.876,-0.101 4.405,-0.785c1.569,-0.684 3.117,-1.609 4.646,-2.775c1.528,-1.167 3.017,-2.514 4.465,-4.043c1.488,-1.568 2.856,-3.137 4.102,-4.706c0.607,-0.763 1.18,-1.512 1.721,-2.247c0.258,-0.743 0.53,-1.483 0.814,-2.218c0.885,-2.333 1.83,-4.545 2.835,-6.637c1.006,-2.091 1.991,-3.962 2.957,-5.611c0.201,-0.362 0.483,-0.583 0.845,-0.664c0.362,-0.08 0.744,-0.06 1.146,0.061c0.925,0.321 1.569,0.724 1.931,1.206c0.402,0.443 0.462,0.966 0.181,1.569c-0.523,1.126 -1.086,2.313 -1.69,3.56c-0.603,1.207 -1.227,2.594 -1.87,4.163c0.603,-0.845 1.146,-1.629 1.629,-2.353c0.442,-0.603 0.825,-1.187 1.146,-1.75c0.362,-0.563 0.584,-0.905 0.664,-1.025c0.362,-0.564 0.664,-0.865 0.905,-0.906c0.241,-0.08 0.644,0 1.207,0.242c1.126,0.442 1.971,0.764 2.534,0.965c0.563,0.201 0.945,0.463 1.146,0.785c0.201,0.321 0.262,0.784 0.181,1.387c-0.08,0.604 -0.181,1.529 -0.301,2.776c-0.242,1.81 -0.282,3.539 -0.121,5.189c0.04,0.362 0.121,0.623 0.241,0.784c0.161,0.121 0.302,0.221 0.423,0.302c0.161,0.04 0.281,0.1 0.362,0.181c0.12,0.04 0.161,0.161 0.12,0.362c-0.08,0.322 -0.442,0.503 -1.086,0.543c-0.603,0.04 -1.267,-0.02 -1.991,-0.181c-0.724,-0.161 -1.408,-0.382 -2.051,-0.664c-0.604,-0.322 -0.945,-0.684 -1.026,-1.086c-0.201,-0.684 -0.282,-1.408 -0.241,-2.172c0.04,-0.805 0.04,-1.609 -0,-2.414c-2.132,2.333 -3.962,4.868 -5.491,7.603c-1.528,2.695 -2.735,5.852 -3.62,9.473c-0.121,0.442 -0.443,0.683 -0.965,0.724c-0.564,-0 -1.147,-0.121 -1.75,-0.362c-0.604,-0.242 -1.126,-0.564 -1.569,-0.966c-0.442,-0.402 -0.623,-0.824 -0.543,-1.267c0.176,-1.056 0.39,-2.136 0.642,-3.24Zm-73.306,-1.341c-0.505,0.615 -1.022,1.197 -1.549,1.745c-0.966,1.046 -1.871,1.79 -2.715,2.233c-0.564,0.281 -1.207,0.402 -1.931,0.362c-0.724,-0.081 -1.428,-0.242 -2.112,-0.483c-0.684,-0.241 -1.287,-0.563 -1.81,-0.965c-0.523,-0.402 -0.825,-0.805 -0.905,-1.207c-0.161,-0.684 -0.161,-1.609 -0,-2.775c0.161,-1.167 0.382,-2.333 0.664,-3.5c0.321,-1.166 0.623,-2.212 0.905,-3.137c0.321,-0.966 0.543,-1.589 0.663,-1.871c-0.804,0.684 -1.709,1.669 -2.715,2.957c-1.005,1.287 -2.011,2.654 -3.017,4.103c-0.965,1.448 -1.87,2.876 -2.715,4.283c-0.804,1.408 -1.428,2.575 -1.87,3.5c-0.201,0.362 -0.604,0.563 -1.207,0.603c-0.603,0 -1.207,-0.1 -1.81,-0.301c-0.603,-0.202 -1.126,-0.483 -1.569,-0.845c-0.482,-0.362 -0.663,-0.724 -0.543,-1.086c0.242,-0.966 0.604,-2.233 1.086,-3.801c0.02,-0.066 0.04,-0.133 0.06,-0.199c-0.59,0.775 -1.193,1.505 -1.809,2.19c-1.046,1.206 -1.992,1.991 -2.836,2.353c-0.523,0.201 -1.127,0.261 -1.81,0.181c-0.684,-0.081 -1.328,-0.262 -1.931,-0.543c-0.603,-0.322 -1.106,-0.724 -1.508,-1.207c-0.403,-0.523 -0.584,-1.106 -0.544,-1.75c0.041,-0.804 0.222,-1.87 0.544,-3.197c0.281,-1.368 0.683,-2.796 1.206,-4.284c0.483,-1.529 1.026,-3.017 1.629,-4.465c0.604,-1.489 1.227,-2.756 1.871,-3.801c0.201,-0.322 0.603,-0.483 1.206,-0.483c0.644,-0 1.268,0.121 1.871,0.362c0.603,0.241 1.106,0.563 1.508,0.965c0.403,0.403 0.503,0.825 0.302,1.267c-1.891,3.621 -3.178,6.456 -3.862,8.508c-0.683,2.011 -0.905,3.318 -0.663,3.922c0.161,0.442 0.503,0.502 1.025,0.181c0.523,-0.362 1.167,-1.026 1.931,-1.991c0.805,-0.966 1.71,-2.213 2.715,-3.741c0.791,-1.202 1.607,-2.529 2.447,-3.979c0.166,-0.422 0.336,-0.845 0.51,-1.271c0.804,-1.971 1.689,-3.801 2.655,-5.49c0.281,-0.563 0.724,-0.845 1.327,-0.845c0.644,0 1.267,0.141 1.87,0.423c0.604,0.281 1.086,0.643 1.448,1.086c0.403,0.442 0.544,0.824 0.423,1.146c-0.402,0.845 -0.845,1.709 -1.328,2.594c-0.442,0.845 -0.884,1.65 -1.327,2.414c-0.402,0.724 -0.764,1.367 -1.086,1.931c-0.282,0.563 -0.442,0.945 -0.483,1.146c0.644,-0.925 1.328,-1.85 2.052,-2.775c0.764,-0.926 1.508,-1.79 2.232,-2.595c0.764,-0.804 1.529,-1.528 2.293,-2.172c0.764,-0.644 1.508,-1.187 2.232,-1.629c0.483,-0.282 1.066,-0.362 1.75,-0.241c0.724,0.12 1.388,0.362 1.991,0.724c0.604,0.362 1.066,0.804 1.388,1.327c0.362,0.483 0.442,0.965 0.241,1.448c-0.321,0.805 -0.744,1.81 -1.267,3.017c-0.523,1.166 -1.025,2.413 -1.508,3.741c-0.483,1.287 -0.905,2.534 -1.267,3.741c-0.362,1.206 -0.543,2.232 -0.543,3.077c0.764,-0.443 1.589,-1.066 2.474,-1.871c0.884,-0.804 1.749,-1.729 2.594,-2.775c0.575,-0.68 1.133,-1.394 1.675,-2.142c0.082,-0.19 0.167,-0.381 0.256,-0.573c0.724,-1.609 1.568,-3.138 2.534,-4.586c1.005,-1.488 2.071,-2.856 3.198,-4.103c1.126,-1.247 2.252,-2.272 3.378,-3.077c0.725,-0.523 1.388,-0.824 1.992,-0.905c0.603,-0.08 1.166,-0.02 1.689,0.181c0.523,0.161 1.026,0.422 1.508,0.784c0.523,0.362 1.046,0.745 1.569,1.147c0.161,-0.201 0.382,-0.523 0.664,-0.966c0.322,-0.442 0.563,-0.724 0.724,-0.844c0.362,-0.282 0.804,-0.402 1.327,-0.362c0.563,-0 1.086,0.12 1.569,0.362c0.523,0.201 0.945,0.482 1.267,0.844c0.322,0.322 0.463,0.664 0.422,1.026c-0.16,0.845 -0.382,1.77 -0.663,2.776c-0.282,0.965 -0.584,1.951 -0.905,2.956c-0.282,1.006 -0.584,1.971 -0.905,2.896c-0.282,0.925 -0.523,1.73 -0.724,2.414c1.488,-1.046 2.775,-1.931 3.861,-2.655c1.126,-0.724 2.233,-1.408 3.319,-2.052c0.402,-0.201 0.683,-0.16 0.844,0.121c0.201,0.241 0.262,0.583 0.181,1.026c-0.04,0.442 -0.201,0.945 -0.482,1.508c-0.242,0.523 -0.604,0.946 -1.086,1.267c-1.529,0.925 -2.997,1.871 -4.405,2.836c-1.368,0.966 -2.675,1.971 -3.922,3.017c-0.482,0.362 -0.905,0.885 -1.267,1.569c-0.764,1.649 -1.709,3.499 -2.836,5.551c-1.086,2.051 -2.252,4.022 -3.499,5.913c-1.247,1.93 -2.514,3.6 -3.801,5.007c-1.247,1.408 -2.434,2.293 -3.56,2.655c-0.483,0.161 -1.207,0.121 -2.172,-0.12c-1.006,-0.242 -1.911,-0.664 -2.715,-1.268c-0.845,-0.603 -1.448,-1.367 -1.81,-2.292c-0.362,-0.925 -0.181,-1.971 0.543,-3.138c0.925,-1.488 2.192,-3.017 3.801,-4.585c1.609,-1.609 3.218,-3.098 4.827,-4.465c1.609,-1.368 3.037,-2.575 4.283,-3.62c1.288,-1.046 2.032,-1.77 2.233,-2.172c0.442,-0.805 0.865,-1.73 1.267,-2.776c0.402,-1.086 0.744,-2.031 1.026,-2.836c-0.563,0.684 -1.207,1.448 -1.931,2.293c-0.684,0.845 -1.428,1.689 -2.233,2.534c-0.764,0.845 -1.548,1.629 -2.353,2.353c-0.804,0.724 -1.568,1.328 -2.292,1.81c-0.443,0.282 -1.026,0.362 -1.75,0.242c-0.724,-0.121 -1.408,-0.362 -2.052,-0.724c-0.574,-0.304 -1.063,-0.665 -1.467,-1.082Zm-0.463,15.924c1.327,-0.965 2.654,-2.313 3.982,-4.042c1.367,-1.73 2.554,-3.439 3.56,-5.129l-2.414,2.414c-0.844,0.885 -1.649,1.749 -2.413,2.594c-0.764,0.885 -1.388,1.69 -1.871,2.414c-0.523,0.764 -0.804,1.347 -0.844,1.749Zm14.239,-28.478c0.201,-0.322 0.362,-0.684 0.483,-1.086c0.12,-0.443 0.161,-0.805 0.12,-1.086c0,-0.282 -0.12,-0.443 -0.362,-0.483c-0.201,-0.04 -0.563,0.161 -1.086,0.603c-0.804,0.684 -1.609,1.509 -2.413,2.474c-0.764,0.925 -1.488,1.891 -2.172,2.896c-0.684,1.006 -1.287,1.971 -1.81,2.896c-0.523,0.925 -0.905,1.73 -1.147,2.414c-0.08,0.362 0,0.543 0.242,0.543c0.241,-0 0.643,-0.242 1.206,-0.724c0.604,-0.483 1.267,-1.147 1.991,-1.991c0.765,-0.845 1.569,-1.81 2.414,-2.896c0.885,-1.127 1.73,-2.313 2.534,-3.56Zm-88.835,11.028c-2.268,3.011 -4.614,5.59 -7.039,7.736c-2.414,2.172 -4.907,3.801 -7.482,4.887c-2.534,1.127 -5.148,1.529 -7.843,1.207c-1.73,-0.161 -3.158,-0.744 -4.284,-1.75c-1.086,-0.965 -1.931,-2.212 -2.534,-3.74c-0.564,-1.569 -0.885,-3.359 -0.966,-5.37c-0.12,-2.012 -0.02,-4.143 0.302,-6.396c0.362,-2.735 1.005,-5.551 1.931,-8.447c0.925,-2.896 2.031,-5.712 3.318,-8.447c1.327,-2.735 2.816,-5.269 4.465,-7.602c1.689,-2.333 3.479,-4.284 5.37,-5.853c1.89,-1.569 3.841,-2.675 5.852,-3.318c2.052,-0.644 4.103,-0.624 6.155,0.06c1.287,0.402 2.192,1.287 2.715,2.655c0.563,1.327 0.845,2.936 0.845,4.827c-0,1.85 -0.222,3.881 -0.664,6.093c-0.443,2.213 -1.006,4.405 -1.69,6.577c-0.683,2.172 -1.448,4.244 -2.292,6.215c-0.845,1.93 -1.67,3.58 -2.474,4.947c-0.241,0.362 -0.724,0.523 -1.448,0.483c-0.724,-0.04 -1.428,-0.241 -2.112,-0.603c-0.643,-0.362 -1.146,-0.825 -1.508,-1.388c-0.322,-0.603 -0.201,-1.247 0.362,-1.931c0.402,-0.523 0.945,-1.468 1.629,-2.836c0.684,-1.367 1.388,-2.916 2.112,-4.646c0.724,-1.769 1.387,-3.6 1.991,-5.49c0.603,-1.931 1.025,-3.701 1.267,-5.31c0.241,-1.609 0.241,-2.936 -0,-3.982c-0.242,-1.046 -0.845,-1.609 -1.81,-1.689c-0.966,-0.041 -2.072,0.523 -3.319,1.689c-1.207,1.126 -2.454,2.655 -3.741,4.586c-1.287,1.89 -2.554,4.082 -3.801,6.576c-1.207,2.454 -2.313,4.988 -3.318,7.603c-0.966,2.614 -1.77,5.189 -2.414,7.723c-0.603,2.534 -0.925,4.806 -0.965,6.818c-0.04,2.011 0.261,3.68 0.905,5.008c0.643,1.287 1.729,2.011 3.258,2.172c1.408,0.161 2.876,-0.101 4.405,-0.785c1.568,-0.684 3.117,-1.609 4.645,-2.775c1.529,-1.167 3.017,-2.514 4.465,-4.043c1.489,-1.568 2.856,-3.137 4.103,-4.706c1.247,-1.569 2.353,-3.077 3.319,-4.525c0.56,-0.829 1.058,-1.596 1.493,-2.3c0.064,-0.159 0.13,-0.317 0.196,-0.476c1.086,-2.413 1.911,-3.901 2.474,-4.464c0.402,-0.322 1.086,-0.362 2.051,-0.121c0.845,0.201 1.569,0.543 2.172,1.026c0.644,0.482 0.885,0.945 0.724,1.387c-0.08,0.121 -0.221,0.362 -0.422,0.724c-0.161,0.322 -0.382,0.744 -0.664,1.267c-0.321,0.564 -0.623,1.187 -0.905,1.871c-0.281,0.684 -0.583,1.408 -0.905,2.172c-0.362,0.764 -0.704,1.508 -1.025,2.232c-0.282,0.684 -0.584,1.388 -0.905,2.112c-0.282,0.724 -0.503,1.368 -0.664,1.931c-0.161,0.523 -0.262,1.005 -0.302,1.448c-0.201,0.804 0.02,1.046 0.664,0.724c1.89,-1.287 3.922,-3.982 6.094,-8.085c1.086,-2.092 2.051,-4.043 2.896,-5.853c0.845,-1.85 1.569,-3.62 2.172,-5.309c0.241,-0.402 0.704,-0.604 1.388,-0.604c0.643,0 1.327,0.181 2.051,0.543c0.764,0.282 1.368,0.684 1.81,1.207c0.483,0.483 0.584,0.945 0.302,1.388c-1.287,2.293 -2.293,4.384 -3.017,6.275c-0.724,1.85 -1.186,3.56 -1.388,5.128c-0.402,3.098 -0.301,4.787 0.302,5.069c1.086,0.241 2.353,-0.584 3.801,-2.474c1.529,-1.891 2.856,-4.204 3.982,-6.939c0.644,-1.367 1.147,-2.695 1.509,-3.982c0.362,-1.287 0.643,-2.534 0.845,-3.741c0.241,-2.413 -0.282,-4.002 -1.569,-4.766c-0.805,-0.443 -1.167,-1.066 -1.086,-1.871c0.12,-0.724 0.523,-1.408 1.206,-2.051c0.604,-0.684 1.328,-1.106 2.173,-1.267c0.764,-0.201 1.387,0.04 1.87,0.724c0.161,0.322 0.342,0.623 0.543,0.905l0.724,0.724c0.443,0.442 1.368,1.046 2.776,1.81c2.534,1.247 4.505,2.594 5.912,4.042c1.368,1.529 1.811,3.802 1.328,6.818c-0.201,0.684 -0.463,1.569 -0.785,2.655c-0.321,1.046 -0.744,2.273 -1.267,3.681c-0.482,1.287 -0.945,2.614 -1.387,3.982c-0.403,1.368 -0.825,2.755 -1.267,4.163c-0.443,1.408 -0.765,2.715 -0.966,3.922c-0.161,1.207 -0.241,2.313 -0.241,3.318c-0,1.971 0.784,3.017 2.353,3.138c-0.603,0.885 -1.609,1.166 -3.017,0.845c-1.408,-0.322 -2.715,-1.167 -3.922,-2.535c-1.247,-1.448 -1.689,-3.298 -1.327,-5.55c0.483,-1.569 1.026,-3.238 1.629,-5.008c0.644,-1.77 1.348,-3.641 2.112,-5.612c0.483,-1.166 0.885,-2.252 1.207,-3.258c0.362,-1.005 0.663,-1.931 0.905,-2.775c0.683,-2.011 0.804,-3.781 0.362,-5.31c-0.483,-1.448 -1.75,-2.534 -3.802,-3.258c0,3.862 -1.146,8.467 -3.439,13.817c-1.126,2.655 -2.393,4.847 -3.801,6.577c-1.368,1.729 -2.836,3.016 -4.404,3.861c-1.69,0.523 -3.621,0.201 -5.793,-0.965c-2.132,-1.207 -3.278,-2.896 -3.439,-5.068l-0.965,1.448c-0.282,0.442 -0.604,0.885 -0.966,1.327c-0.724,0.925 -1.649,1.971 -2.775,3.138c-0.684,0.603 -1.609,0.884 -2.776,0.844c-1.126,0 -2.212,-0.281 -3.258,-0.844c-1.005,-0.644 -1.568,-1.368 -1.689,-2.173c-0.052,-1.017 0.082,-2.289 0.402,-3.814Zm52.151,-15.916c-0.242,0.322 -0.604,0.503 -1.086,0.544c-0.443,0.04 -0.905,-0 -1.388,-0.121c-0.443,-0.161 -0.845,-0.382 -1.207,-0.664c-0.322,-0.281 -0.462,-0.583 -0.422,-0.905c0.08,-0.563 0.201,-1.146 0.362,-1.75c0.201,-0.643 0.402,-1.226 0.603,-1.749c0.201,-0.564 0.402,-1.066 0.604,-1.509c0.201,-0.442 0.362,-0.784 0.482,-1.026c0.242,-0.362 0.684,-0.543 1.328,-0.543c0.643,-0.04 1.267,0.061 1.87,0.302c0.644,0.241 1.167,0.563 1.569,0.966c0.402,0.402 0.482,0.804 0.241,1.206c-0.121,0.242 -0.322,0.604 -0.603,1.086c-0.242,0.443 -0.503,0.925 -0.785,1.448l-0.844,1.448c-0.282,0.483 -0.523,0.905 -0.724,1.267Zm167.975,0c-0.241,0.322 -0.603,0.503 -1.086,0.544c-0.442,0.04 -0.905,-0 -1.387,-0.121c-0.443,-0.161 -0.845,-0.382 -1.207,-0.664c-0.322,-0.281 -0.463,-0.583 -0.422,-0.905c0.08,-0.563 0.201,-1.146 0.362,-1.75c0.201,-0.643 0.402,-1.226 0.603,-1.749c0.201,-0.564 0.402,-1.066 0.603,-1.509c0.201,-0.442 0.362,-0.784 0.483,-1.026c0.241,-0.362 0.684,-0.543 1.327,-0.543c0.644,-0.04 1.267,0.061 1.871,0.302c0.643,0.241 1.166,0.563 1.569,0.966c0.402,0.402 0.482,0.804 0.241,1.206c-0.121,0.242 -0.322,0.604 -0.603,1.086c-0.242,0.443 -0.503,0.925 -0.785,1.448l-0.845,1.448c-0.281,0.483 -0.522,0.905 -0.724,1.267Zm103.175,-2.715c0.121,-0.281 0.423,-0.462 0.905,-0.543c0.483,-0.12 1.026,-0.12 1.629,0c0.644,0.081 1.308,0.302 1.991,0.664c0.684,0.362 1.288,0.865 1.81,1.508c0.564,0.604 0.986,1.368 1.268,2.293c0.281,0.925 0.341,2.011 0.181,3.258c-0.242,1.851 -0.805,3.781 -1.69,5.793c-0.885,1.971 -1.87,3.821 -2.956,5.551c-1.046,1.729 -2.072,3.238 -3.077,4.525c-0.966,1.247 -1.69,2.051 -2.173,2.413c-0.563,0.443 -1.106,0.664 -1.629,0.664c-0.523,-0.04 -1.066,-0.241 -1.629,-0.603c-0.523,-0.403 -1.066,-0.966 -1.629,-1.69c-0.563,-0.724 -1.126,-1.548 -1.689,-2.474c-0.845,0.926 -1.609,1.81 -2.293,2.655c-0.644,0.805 -1.327,1.488 -2.051,2.052c-0.483,0.402 -1.107,0.522 -1.871,0.362c-0.764,-0.202 -1.508,-0.564 -2.232,-1.086c-0.724,-0.564 -1.348,-1.227 -1.871,-1.992c-0.523,-0.804 -0.804,-1.568 -0.844,-2.292c-0.041,-1.086 0.221,-2.534 0.784,-4.345c0.523,-1.81 1.166,-3.64 1.931,-5.49c0.764,-1.891 1.548,-3.6 2.353,-5.129c0.804,-1.528 1.488,-2.534 2.051,-3.016c0.403,-0.322 0.925,-0.363 1.569,-0.121c0.644,0.201 1.227,0.543 1.75,1.026c0.563,0.442 0.965,0.965 1.206,1.568c0.282,0.563 0.242,1.046 -0.12,1.448c-0.563,0.604 -1.227,1.549 -1.991,2.836c-0.724,1.247 -1.408,2.595 -2.052,4.043c-0.603,1.408 -1.126,2.775 -1.568,4.103c-0.403,1.287 -0.564,2.252 -0.483,2.896c0.684,-0.483 1.428,-1.227 2.232,-2.233c0.845,-1.005 1.67,-2.091 2.474,-3.258c0.805,-1.207 1.569,-2.413 2.293,-3.62c0.724,-1.207 1.347,-2.273 1.87,-3.198c0.282,-0.483 0.664,-0.684 1.147,-0.603c0.482,0.08 0.945,0.301 1.387,0.663c0.483,0.362 0.865,0.785 1.147,1.267c0.281,0.483 0.382,0.865 0.301,1.147c-0.08,0.362 -0.301,0.985 -0.663,1.87c-0.322,0.845 -0.664,1.75 -1.026,2.715c-0.362,0.926 -0.684,1.811 -0.965,2.655c-0.242,0.805 -0.342,1.348 -0.302,1.629c1.569,-1.568 2.997,-3.399 4.284,-5.49c1.287,-2.092 2.212,-4.123 2.775,-6.094c0.604,-2.011 0.724,-3.781 0.362,-5.31c-0.321,-1.569 -1.287,-2.574 -2.896,-3.017Zm167.614,8.568c0.161,-0.161 0.362,-0.221 0.603,-0.181c0.282,0.04 0.543,0.141 0.785,0.302c0.241,0.161 0.422,0.382 0.543,0.663c0.12,0.242 0.1,0.503 -0.061,0.785c-0.523,1.569 -1.267,3.137 -2.232,4.706c-0.925,1.529 -1.991,2.977 -3.198,4.344c-1.207,1.368 -2.474,2.615 -3.801,3.741c-1.327,1.126 -2.635,2.052 -3.922,2.776c-0.603,0.321 -1.247,0.442 -1.931,0.362c-0.683,-0.081 -1.367,-0.262 -2.051,-0.543c-0.684,-0.322 -1.307,-0.684 -1.871,-1.086c-0.563,-0.403 -1.025,-0.785 -1.387,-1.147c-0.765,-0.804 -1.187,-1.87 -1.267,-3.198c-0.081,-1.367 0.08,-2.835 0.482,-4.404c0.362,-1.569 0.926,-3.198 1.69,-4.887c0.764,-1.69 1.609,-3.279 2.534,-4.767c0.965,-1.488 1.971,-2.796 3.017,-3.922c1.046,-1.126 2.031,-1.951 2.956,-2.474c0.563,-0.281 1.086,-0.422 1.569,-0.422c0.483,-0.04 0.985,0.04 1.508,0.241c0.523,0.161 1.046,0.423 1.569,0.785c0.563,0.322 1.187,0.684 1.87,1.086c0.966,0.603 1.408,1.367 1.328,2.293c-0,0.442 -0.181,1.226 -0.543,2.353c-0.322,1.126 -0.805,2.313 -1.448,3.559c-0.604,1.207 -1.368,2.354 -2.293,3.44c-0.885,1.045 -1.891,1.749 -3.017,2.111c-0.804,0.202 -1.508,0.262 -2.112,0.181c-0.603,-0.08 -1.267,-0.281 -1.991,-0.603c-0.201,0.402 -0.422,1.006 -0.663,1.81c-0.242,0.764 -0.423,1.549 -0.543,2.353c-0.121,0.805 -0.161,1.529 -0.121,2.172c0.04,0.604 0.282,0.946 0.724,1.026c0.644,0.121 1.549,-0.221 2.715,-1.026c1.207,-0.804 2.454,-1.85 3.741,-3.137c1.287,-1.328 2.554,-2.816 3.801,-4.465c1.247,-1.649 2.253,-3.258 3.017,-4.827Zm-6.034,-4.465c-0.402,0.282 -0.925,0.825 -1.568,1.629c-0.604,0.765 -1.207,1.589 -1.81,2.474c-0.564,0.885 -1.066,1.71 -1.509,2.474c-0.402,0.764 -0.603,1.247 -0.603,1.448c0.724,0.121 1.387,-0.101 1.991,-0.664c0.643,-0.563 1.207,-1.267 1.689,-2.112c0.523,-0.884 0.925,-1.81 1.207,-2.775c0.322,-0.965 0.523,-1.79 0.603,-2.474Z" style="fill:#542f1a;"/></svg>